<?xml version="1.0" encoding="UTF-8" standalone="no"?>
<svg version="1.1" viewBox="0 0 1024 1024" width="1024" height="1024" xmlns="http://www.w3.org/2000/svg">
<path d="m 512,261.95196 16.27532,-29.59148 c 10.35702,-19.23447 34.0302,-25.15276 51.78509,-14.79574 19.23447,10.35701 25.15276,34.0302 14.79574,51.78509 L 432.10299,548.98935 h 116.88636 c 36.98936,0 57.7034,44.38723 44.38723,75.45829 H 248.63579 c -20.71404,0 -36.98935,-16.27532 -36.98935,-36.98936 0,-20.71403 16.27531,-36.98935 36.98935,-36.98935 h 96.17233 L 467.61277,334.4511 427.66427,267.87026 c -10.35702,-19.23447 -4.43872,-41.42808 14.79574,-51.7851 19.23447,-10.35702 41.42808,-4.43872 51.7851,14.79574 z m -146.47785,403.92376 -35.50978,62.14211 c -10.35702,19.23447 -34.0302,25.15276 -51.78509,14.79574 -19.23447,-10.35702 -25.15276,-34.0302 -14.79574,-51.78509 l 26.63233,-47.34638 c 32.55063,-10.35702 57.70339,-2.95915 75.45828,22.19362 z M 679.19188,551.9485 h 97.6519 c 20.71404,0 36.98936,16.27532 36.98936,36.98936 0,20.71404 -16.27532,36.98935 -36.98936,36.98935 h -54.74424 l 36.98935,65.10127 c 10.35702,19.23446 4.43872,41.42807 -14.79574,51.78509 -19.23447,10.35702 -41.42808,4.43873 -51.7851,-14.79574 C 630.36594,620.00892 584.49914,541.59148 553.42808,486.84724 522.35702,432.10299 544.55063,378.83832 565.26467,359.60386 591.89701,401.03194 628.88636,466.1332 679.19188,551.9485 Z M 512,53.332 C 257.51324,53.332 53.332,257.51324 53.332,512 53.332,766.48676 257.51324,970.668 512,970.668 766.48676,970.668 970.668,766.48676 970.668,512 970.668,257.51324 766.48676,53.332 512,53.332 Z M 912.96461,512 C 912.96461,730.97698 735.4157,912.96461 512,912.96461 293.02302,912.96461 111.03539,735.4157 111.03539,512 111.03539,293.02302 288.5843,111.03539 512,111.03539 730.97698,111.03539 912.96461,288.5843 912.96461,512 Z" />
</svg>
