<?xml version="1.0" encoding="UTF-8" standalone="no"?>
<svg version="1.1" viewBox="0 0 1024 1024" width="1024" height="1024" xmlns="http://www.w3.org/2000/svg">
<path d="m 219.18339,371.46646 c -10.35511,11.8344 -26.62741,23.66881 -44.37902,20.71021 -1.4793,-16.27231 5.9172,-35.50322 16.27231,-47.33762 10.3551,-11.8344 29.58601,-23.6688 44.37901,-23.6688 1.4793,22.1895 -5.9172,38.46181 -16.2723,50.29621 m 16.2723,28.10671 c -25.14811,-1.4793 -45.85831,14.793 -56.21342,14.793 -11.8344,0 -31.0653,-14.793 -50.29621,-14.793 -25.1481,0 -47.337611,14.793 -62.130615,36.9825 -28.106708,45.85832 -7.396502,115.38543 17.751605,152.36795 13.313703,19.23091 28.10671,39.94112 48.81691,39.94112 19.23091,0 25.14811,-11.83441 47.33761,-11.83441 22.18951,0 29.58601,11.83441 50.29622,10.35511 20.7102,0 34.02391,-19.23091 45.85831,-36.98251 14.79301,-20.71021 20.71021,-41.42042 20.71021,-44.37902 0,0 -39.94111,-16.2723 -39.94111,-62.13061 0,-39.94112 31.0653,-56.21342 34.02391,-56.21342 -19.23091,-26.62741 -45.85832,-28.10671 -56.21342,-28.10671 m 143.49214,-54.73412 v 279.58777 h 44.37901 V 528.2723 h 60.65132 c 54.73411,0 94.67523,-36.9825 94.67523,-91.71663 0,-54.73411 -36.98251,-91.71662 -91.71663,-91.71662 z m 44.37901,36.98251 h 50.29622 c 36.98251,0 59.17201,20.7102 59.17201,56.21342 0,35.5032 -20.7102,56.21342 -59.17201,56.21342 h -50.29622 z m 232.25017,247.04317 c 26.6274,0 51.77551,-14.793 65.08922,-35.5032 h 1.4793 v 34.0239 h 39.94111 V 486.8519 c 0,-39.94111 -31.06531,-66.56853 -81.36153,-66.56853 -45.85831,0 -79.88222,25.1481 -81.36152,62.13062 h 36.98251 c 1.4793,-16.27231 19.23091,-29.58601 41.42041,-29.58601 25.14811,0 41.42042,11.8344 41.42042,34.02392 v 16.27229 l -54.73412,1.4793 c -50.29621,1.47931 -76.92362,23.66881 -76.92362,59.17203 -1.4793,39.94111 28.10671,65.08922 68.04782,65.08921 z m 11.8344,-34.02391 c -23.66881,0 -36.98251,-10.3551 -36.98251,-29.58601 0,-16.27231 14.793,-26.62741 41.42041,-29.586 l 47.33762,-1.4793 v 16.2723 c 1.4793,26.6274 -22.18951,44.37901 -51.77552,44.37901 z m 146.45074,106.50963 c 41.42041,0 62.13062,-16.27231 79.88222,-65.08922 L 970.668,424.72127 h -44.37902 l -51.77551,165.68165 h -1.4793 L 821.25865,424.72127 h -45.85831 l 72.48572,204.14346 -4.4379,10.3551 c -5.9172,20.7102 -16.2723,29.58601 -35.50321,29.58601 -1.4793,0 -10.3551,0 -11.8344,0 v 34.02391 c 5.9172,-1.4793 16.2723,-1.4793 17.7516,-1.4793 z" />
</svg>
