<?xml version="1.0" encoding="UTF-8" standalone="no"?>
<svg version="1.1" width="1024" height="1024" viewBox="0 0 1024 1024" xmlns="http://www.w3.org/2000/svg">
  <path d="m 735.51473,431.00268 c 0,0 37.09897,-28.20407 8.89489,-56.40815 -28.26739,-28.20408 -55.71176,8.19849 -55.71176,8.19849 L 468.0983,603.42424 c 0,0 -66.56922,85.8151 -116.99469,33.87022 -50.42547,-51.94489 33.87021,-116.99469 33.87021,-116.99469 L 693.88918,211.35275 c 0,0 86.8597,-95.69127 168.46476,-14.08621 81.60506,81.63672 -14.33945,168.68634 -14.33945,168.68634 L 429.76481,784.23422 c 0,0 -133.83484,154.60012 -257.76184,30.67312 C 48.075968,690.98033 204.16385,558.66491 204.16385,558.66491 L 521.78417,241.04458 c 0,0 35.61121,-29.69183 8.89489,-56.40815 -26.71632,-26.71632 -56.3765,8.89489 -56.3765,8.89489 L 109.96033,557.9052 c 0,0 -137.538396,150.89656 16.08044,304.45209 153.61884,153.61891 304.48374,16.1121 304.48374,16.1121 L 931.36055,377.6017 c 0,0 100.15455,-110.56885 -19.27753,-230.06424 C 792.65094,28.042074 682.01878,128.25993 682.01878,128.25993 L 314.51111,495.79926 c 0,0 -110.47388,89.70859 -10.28768,189.86313 100.1862,100.1862 188.37538,-11.77544 188.37538,-11.77544 z" />
</svg>
