<?xml version="1.0" encoding="UTF-8" standalone="no"?>
<svg width="1024" height="1024" viewBox="0 0 1024 1024" version="1.1" xmlns="http://www.w3.org/2000/svg">
  <path d="m 377.63697,194.49901 c -10.06679,0 -20.78652,4.79221 -27.31249,11.31251 L 66.765029,489.37108 c -12.535582,12.5356 -12.535724,32.72024 -1.27e-4,45.25584 L 350.32449,818.18651 c 7.14148,7.12592 17.96997,11.30746 27.3125,11.31449 l 557.00073,-7.2e-4 c 4.41022,-0.042 8.696,-0.92999 12.47845,-2.50782 7.66207,-3.23007 13.78562,-9.35163 17.01462,-17.01462 1.61503,-3.83096 2.50592,-8.04652 2.50592,-12.47852 l 10e-6,-571.00003 c -0.043,-4.40997 -0.92803,-8.69758 -2.50592,-12.48051 -3.22999,-7.66199 -9.35363,-13.78366 -17.01531,-17.0139 -3.83096,-1.61489 -8.04648,-2.50587 -12.47848,-2.50587 z m 10.50975,63.99997 514.49037,-1e-4 -1.2e-4,507.00011 -514.49018,10e-6 -253.50013,-253.49999 z" />
  <rect width="350" height="64" x="-944.33185" y="13.25444" ry="32" transform="rotate(-135)" />
  <rect width="350" height="64" x="-220.25444" y="-801.33179" ry="32" transform="rotate(135)" />
</svg>
