<?xml version="1.0" encoding="UTF-8" standalone="no"?>
<svg width="1024" height="1024" viewBox="0 0 1024 1024" xmlns="http://www.w3.org/2000/svg" version="1.1">
  <path fill="inherit" d="M 512 53.332031 C 259.87877 53.332031 53.332031 259.87873 53.332031 512 C 53.332031 764.12127 259.87877 970.66797 512 970.66797 C 764.1213 970.66797 970.66797 764.12127 970.66797 512 C 970.66797 259.87873 764.1213 53.332031 512 53.332031 z M 512 117.33203 C 609.13924 117.33203 698.26243 152.89559 767.18359 211.56055 L 211.56055 767.18359 C 152.89559 698.26243 117.33203 609.13922 117.33203 512 C 117.33203 294.78774 294.78779 117.33203 512 117.33203 z M 812.43945 256.81641 C 871.10441 325.73757 906.66797 414.86078 906.66797 512 C 906.66797 729.21226 729.21231 906.66797 512 906.66797 C 414.86081 906.66797 325.73756 871.10441 256.81641 812.43945 L 812.43945 256.81641 z" />
</svg>
