<?xml version="1.0" encoding="UTF-8" standalone="no"?>
<svg version="1.1" width="1024" height="1024" viewBox="0 0 1024 1024" xmlns="http://www.w3.org/2000/svg">
  <path d="m 511.9491,53.332031 c -36.99773,0 -66.99031,29.992584 -66.99031,66.990309 0.0384,3.8629 0.41079,7.71525 1.11312,11.51396 -125.37583,30.35412 -213.78121,142.4475 -214.0823,271.44509 v 322.80484 c 0,21.536 -17.45836,38.99436 -38.99436,38.99436 h -1.25177 c -17.48039,0 -31.55403,14.07365 -31.55403,31.55404 0,17.48039 14.07364,31.55207 31.55403,31.55207 56.5853,0 155.34752,0 226.01417,0 -5.42301,12.63992 -8.24626,26.24212 -8.30153,39.99616 0,56.601 45.88417,102.48517 102.48517,102.48517 56.601,0 102.48517,-45.88417 102.48517,-102.48517 -0.005,-13.74321 -2.77463,-27.34497 -8.14335,-39.99616 73.84855,0 154.73538,0 225.95558,0 17.48039,0 31.55207,-14.07168 31.55207,-31.55207 0,-17.48039 -14.07168,-31.55404 -31.55207,-31.55404 h -1.33575 c -21.53599,0 -38.99436,-17.45836 -38.99436,-38.99436 V 403.28139 C 791.88809,274.1052 703.488,161.71324 577.95321,131.25825 c 0.62743,-3.61217 0.95727,-7.26976 0.98619,-10.93591 0,-36.997725 -29.99258,-66.990309 -66.9903,-66.990309 z m 0,133.980609 c 119.27625,0 215.96874,96.6925 215.96874,215.96875 v 322.80484 c 0.3014,13.43605 3.22974,26.68319 8.61985,38.99436 H 287.36051 c 5.39011,-12.31117 8.31844,-25.55831 8.61984,-38.99436 V 403.28139 c 0,-119.27625 96.6925,-215.96875 215.96875,-215.96875 z m -0.008,640.87601 c 22.0882,0 39.99421,17.90602 39.99421,39.99421 0,22.0882 -17.90601,39.99421 -39.99421,39.99421 -22.0882,0 -39.99421,-17.90601 -39.99421,-39.99421 0,-22.08819 17.90601,-39.99421 39.99421,-39.99421 z" />
</svg>
