<?xml version="1.0" encoding="UTF-8" standalone="no"?>
<svg viewBox="0 0 1024 1024" version="1.1" width="1024" height="1024" xmlns="http://www.w3.org/2000/svg">
  <path d="M 927.66787,282.666 H 913.3345 V 196.66575 C 913.3345,116.39885 735.60065,53.332 512,53.332 c -223.60065,0 -401.3345,63.06685 -401.3345,143.33375 V 282.666 H 96.332125 C 72.592473,282.666 53.332,301.90856 53.332,325.66613 V 468.99987 C 53.332,492.73953 72.592473,512 96.332125,512 H 110.6655 v 286.6675 c 0,31.65884 25.67466,57.3335 57.3335,57.3335 v 57.3335 c 0,31.65884 25.67466,57.3335 57.3335,57.3335 h 57.3335 c 31.65884,0 57.3335,-25.67466 57.3335,-57.3335 V 856.001 h 344.001 v 57.3335 c 0,31.65884 25.67466,57.3335 57.3335,57.3335 h 57.3335 c 31.65884,0 57.3335,-25.67466 57.3335,-57.3335 V 856.001 h 11.4667 c 28.66675,0 45.8668,-22.9334 45.8668,-45.8668 V 512 h 14.33337 c 23.73966,0 43.00013,-19.26047 43.00013,-43.00013 V 325.66613 c 0,-23.75757 -19.26047,-43.00013 -43.00013,-43.00013 z M 339.9995,182.33237 c 0,-7.91918 6.41419,-14.33337 14.33337,-14.33337 h 315.33426 c 7.91918,0 14.33337,6.41419 14.33337,14.33337 v 28.66675 c 0,7.91919 -6.41419,14.33338 -14.33337,14.33338 H 354.33287 c -7.91918,0 -14.33337,-6.41419 -14.33337,-14.33338 z m -86.00025,587.66838 c -31.65884,0 -57.3335,-25.67466 -57.3335,-57.3335 0,-31.65884 25.67466,-57.3335 57.3335,-57.3335 31.65884,0 57.3335,25.67466 57.3335,57.3335 0,31.65884 -25.67466,57.3335 -57.3335,57.3335 z M 483.33325,569.3335 H 282.666 c -31.65884,0 -57.3335,-25.67466 -57.3335,-57.3335 V 339.9995 c 0,-31.65884 25.67466,-57.3335 57.3335,-57.3335 h 200.66725 z m 57.3335,0 V 282.666 H 741.334 c 31.65884,0 57.3335,25.67466 57.3335,57.3335 V 512 c 0,31.65884 -25.67466,57.3335 -57.3335,57.3335 z m 229.334,200.66725 c -31.65884,0 -57.3335,-25.67466 -57.3335,-57.3335 0,-31.65884 25.67466,-57.3335 57.3335,-57.3335 31.65884,0 57.3335,25.67466 57.3335,57.3335 0,31.65884 -25.67466,57.3335 -57.3335,57.3335 z" />
</svg>
