<?xml version="1.0" encoding="UTF-8" standalone="no"?>
<svg version="1.1" width="1024" height="1024" viewBox="0 0 1024 1024" xmlns="http://www.w3.org/2000/svg">
  <path d="M 859.95503,970.668 H 164.04496 c -34.92203,0 -63.26455,-28.34252 -63.26455,-63.26455 V 211.49338 c 0,-34.95367 28.34252,-63.26455 63.26455,-63.26455 h 63.26455 v 31.63227 c 0,52.41468 42.48215,94.89683 94.89683,94.89683 52.38305,0 94.89683,-42.48215 94.89683,-94.89683 v -31.63227 h 189.79366 v 31.63227 c 0,52.41468 42.51378,94.89683 94.89683,94.89683 52.38305,0 94.89683,-42.48215 94.89683,-94.89683 v -31.63227 h 63.26455 c 34.92203,0 63.26455,28.31088 63.26455,63.26455 v 695.91007 c 0,34.92203 -28.34252,63.26455 -63.26456,63.26455 z m 0,-601.01324 H 164.04496 V 907.40345 H 859.95503 Z M 322.20634,685.97752 h -94.89683 v -94.89683 h 94.89683 z m 0,158.16138 h -94.89683 v -94.89683 h 94.89683 z M 480.36772,527.81614 h -94.89683 v -94.89683 h 94.89683 z m 0,158.16138 h -94.89683 v -94.89683 h 94.89683 z m 0,158.16138 h -94.89683 v -94.89683 h 94.89683 z M 638.5291,527.81614 h -94.89683 v -94.89683 h 94.89683 z m 0,158.16138 h -94.89683 v -94.89683 h 94.89683 z m 0,158.16138 H 543.63227 V 749.24207 H 638.5291 Z M 796.69048,527.81614 h -94.89683 v -94.89683 h 94.89683 z m 0,158.16138 h -94.89683 v -94.89683 h 94.89683 z M 700.81305,243.12566 c -34.41592,0 -62.28395,-27.89967 -62.28395,-62.28396 v -65.22575 c 0,-34.415915 27.86803,-62.28395 62.28395,-62.28395 34.41592,0 62.28395,27.868035 62.28395,62.28395 v 65.22575 c 0,34.38429 -27.86803,62.28396 -62.28395,62.28396 z m -379.58731,0 c -34.41592,0 -62.28395,-27.89967 -62.28395,-62.28396 v -65.22575 c 0,-34.415915 27.86803,-62.28395 62.28395,-62.28395 34.41592,0 62.28395,27.868035 62.28395,62.28395 v 65.22575 c 0,34.38429 -27.89967,62.28396 -62.28395,62.28396 z" />
</svg>
