<?xml version="1.0" encoding="UTF-8" standalone="no"?>
<svg version="1.1" viewBox="0 0 1024 1024" width="1024" height="1024" xmlns="http://www.w3.org/2000/svg">
<path d="m 968.90373,573.1326 -10.39002,-30.51485 c -5.80344,-16.94229 -24.14978,-30.60844 -41.09208,-30.60844 H 879.51209 C 851.05653,432.07165 816.23591,335.65972 806.1267,313.1012 c -15.81905,-35.10143 -66.08429,-51.01408 -93.79102,-58.68959 0,0 -46.24029,-17.59752 -200.31217,-17.59752 -154.07188,0 -200.31216,17.59752 -200.31216,17.59752 -32.38692,10.85804 -77.41036,26.11546 -95.28869,60.28085 -8.42434,16.09986 -43.71298,115.2263 -72.54295,197.41045 h -37.25432 c -16.848686,0 -35.288638,13.66616 -41.092075,30.60845 L 55.049688,573.2262 c -5.709833,16.84869 3.276134,30.51485 20.12482,30.51485 H 111.8672 c -4.77379,13.75976 -7.58191,22.0905 -7.58191,22.0905 -2.90171,4.961 -5.054601,27.89393 -5.054601,33.97818 v 173.26066 12.07489 93.1358 c 0,17.87833 14.508591,32.38692 32.386921,32.38692 h 118.68964 c 17.87832,0 32.38692,-14.50859 32.38692,-32.38692 v -59.34482 h 458.65869 v 59.34482 c 0,17.87833 14.50859,32.38692 32.38692,32.38692 h 118.68964 c 17.87832,0 32.38692,-14.50859 32.38692,-32.38692 v -93.1358 -12.07489 -173.35426 c 0,-6.17786 -2.15289,-29.01719 -5.05461,-33.97819 0,0 -2.90172,-8.33074 -7.76912,-22.0905 h 36.87991 c 16.84868,0.0936 25.83465,-13.57255 20.03121,-30.51484 z M 282.03894,743.77235 h -49.0484 c -43.99379,0 -87.80038,-5.89704 -87.80038,-33.79097 V 676.1904 c 0,-32.57413 18.90797,-33.79098 39.3136,-33.79098 19.93762,0 59.43843,16.84869 85.46029,28.54916 28.36195,12.63652 60.09365,23.30735 60.09365,44.36821 -0.0936,19.4696 -11.04525,28.45556 -48.01876,28.45556 z M 213.61455,524.36501 c 24.14978,-100.24969 50.35885,-156.87999 56.16229,-172.69904 4.58659,-11.51327 9.17317,-46.89551 242.24667,-46.89551 233.0735,0 238.59613,40.43685 239.15775,40.90487 7.20749,21.43527 35.66305,86.20911 58.50238,178.59608 0,0 -98.47121,33.51016 -297.66013,33.51016 -199.28252,0 -298.40896,-33.41656 -298.40896,-33.41656 z m 480.37478,190.85818 c 0,-21.15446 31.73169,-31.73169 60.09365,-44.36821 26.02186,-11.60687 65.52267,-28.54916 85.46028,-28.54916 20.40563,0 39.3136,1.21685 39.3136,33.79097 v 33.79098 h 0.0936 c 0,27.89394 -43.90019,33.79098 -87.80038,33.79098 h -49.142 c -36.97351,0.0936 -48.01876,-8.89236 -48.01876,-28.45556 z" />
</svg>
