<?xml version="1.0" encoding="UTF-8" standalone="no"?>
<svg version="1.1" width="1024" height="1024" viewBox="0 0 1024 1024" xmlns="http://www.w3.org/2000/svg">
  <path d="M 218.21778,6.000015e-5 C 202.43355,-1.1228049e-5 189.72559,12.708012 189.72559,28.492248 V 883.23248 c 0,15.78424 12.70796,28.49219 28.49219,28.49219 h 216.64453 c -4.88168,7.35345 -9.72548,14.73229 -14.65625,22.05273 -3.55851,4.10887 -2.94181,11.12364 1.41601,14.43164 2.50233,2.11494 5.93891,2.42431 9.08204,2.26563 19.36802,-0.0143 38.73532,-5.3e-4 58.1035,-0.004 10.53044,24.39928 20.81234,48.9074 31.11328,73.41803 21.67128,-32.81753 43.42695,-65.56785 65.1875,-98.32623 9.20127,2.29446 18.99053,2.47732 28.19141,0.082 21.7627,32.76985 43.52531,65.53977 65.21875,98.35543 11.06364,-25.86146 21.0197,-51.35328 31.03321,-73.51168 26.61259,-0.0371 53.22519,-0.0149 79.83788,-0.0176 -8.72957,-12.87042 -17.37262,-25.79817 -25.98632,-38.74609 h 42.38085 c 15.78426,0 28.49024,-12.70795 28.49024,-28.49219 V 214.85358 L 619.42286,0.00201313 Z M 246.70996,56.982482 H 562.44239 V 243.34381 c 0,15.78423 12.70598,28.49219 28.49023,28.49219 H 777.292 v 582.90625 h -51.49806 c -5.86269,-7.19569 -1.87378,-17.46551 -0.79491,-25.54492 13.9715,-19.18425 27.07102,-37.98136 23.90038,-61.23438 -3.29064,-17.84743 -14.8101,-31.02281 -24.1914,-44.4668 -4.00791,-20.89121 -6.81545,-43.33644 -22.20703,-57.08203 -16.10721,-12.52154 -33.26622,-12.50784 -51.22461,-14.89062 -17.05062,-11.21001 -32.72587,-25.08538 -52.45118,-24.95313 -21.15484,1.91993 -36.48795,13.92585 -51.88477,24.98242 -20.83363,3.59744 -43.99505,6.22278 -56.79881,22.41211 -13.56283,17.11644 -14.45842,32.14166 -16.75586,51.31641 -6.77208,8.58834 -14.05646,16.96148 -18.86133,26.875 -6.42043,13.61055 -7.50948,29.80469 -2.27735,43.98242 5.31549,12.58478 14.42812,23.41672 21.74804,33.61914 1.07423,5.90105 2.14845,11.80209 3.22267,17.70313 -1.59412,2.42633 -3.18651,4.85399 -4.7793,7.28125 H 246.70996 Z M 619.42286,80.587951 753.68848,214.85162 H 619.42286 Z M 599.88575,675.97074 c 12.709,2.30949 21.5351,18.14834 31.70312,21.96485 12.9315,2.41652 27.28086,4.0021 38.68164,5.71093 1.18419,0.50442 1.5867,1.86231 1.59179,3.04493 3.75668,38.90107 7.34747,36.80454 27.82032,66.36718 2.23153,5.30891 -1.43754,9.06404 -4.04687,12.82618 -5.7898,8.10474 -11.57804,16.21059 -17.36914,24.31445 -1.7185,12.4182 -3.39625,24.7828 -5.31056,37.17187 -0.32849,1.23236 -1.21636,2.57848 -2.63086,2.58008 -12.7935,2.19362 -25.60736,4.28717 -38.39062,6.5293 -10.15296,6.81818 -20.8797,15.12137 -29.79102,21.34375 -2.41474,1.26468 -5.44846,0.98943 -7.81836,-0.25586 -9.51829,-6.74861 -17.91988,-14.0726 -26.51366,-20.45313 -13.41607,-2.63883 -26.8118,-3.63383 -39.83203,-6.25585 -0.92133,-0.46583 -1.41308,-1.4411 -1.45509,-2.44336 -2.11051,-12.38526 -4.41748,-24.74198 -6.27149,-37.16797 -5.78975,-10.4909 -14.44499,-20.72952 -20.66796,-29.64844 -2.78006,-3.58911 -1.5104,-8.79542 1.11133,-11.66406 5.62991,-7.56281 11.38082,-15.05834 17.4043,-22.34766 1.30569,-1.55407 2.30212,-3.43958 2.38085,-5.50391 1.07222,-9.13125 2.37246,-18.32878 3.57618,-27.42968 0.27534,-4.11028 2.48143,-8.24249 5.41602,-10.51563 11.76867,-2.7388 24.74106,-4.23488 35.55859,-5.73633 12.91451,-5.39159 23.81925,-21.20363 34.85352,-22.43164 z" />
  <rect width="382.85318" height="56.9828" x="311.19574" y="313.4054" ry="28.4914" />
  <rect width="382.85318" height="56.9828" x="311.19574" y="427.371" ry="28.4914" />
  <rect width="382.85318" height="56.9828" x="311.19574" y="541.33661" ry="28.4914" />
</svg>
