<?xml version="1.0" encoding="UTF-8" standalone="no"?>
<svg version="1.1" width="1024" height="1024" viewBox="0 0 1024 1024" xmlns="http://www.w3.org/2000/svg">
  <path d="m 390.5522,115.74946 c -47.7187,6.19145 -100.59793,14.19372 -126.25448,39.76453 -39.91473,43.40378 -36.38744,76.03929 -43.51109,131.2069 -19.60204,24.7448 -33.83111,40.66649 -47.1579,63.75887 -18.93065,36.37115 -19.18648,80.00716 2.77046,114.23247 15.0399,21.39891 31.79978,44.53015 45.45074,63.56971 3.87716,21.32284 7.752,42.64611 11.63293,63.96826 -53.57825,81.56165 -99.49845,152.31176 -148.679766,225.34029 H 250.87384 c 23.48452,54.16503 44.22007,102.90168 65.20383,153.07751 49.45035,-74.97753 101.66182,-153.33068 147.42836,-222.20782 33.09207,13.38954 64.70088,14.09302 96.91073,-0.11485 53.39666,80.39328 99.65303,149.8148 147.50558,222.32267 21.43983,-51.84396 44.76175,-105.57488 65.20383,-153.07751 H 939.19691 C 889.87104,744.59224 837.59003,664.29085 793.9308,597.93895 c 3.09339,-23.18179 6.18256,-46.36416 9.27467,-69.54612 13.4929,-22.50569 32.11885,-42.13687 42.822,-61.94727 23.63225,-40.56528 25.71895,-86.72008 -1.23664,-124.71986 -13.83532,-19.81939 -27.67121,-39.63836 -41.50617,-59.45799 -5.84858,-25.77748 -10.09422,-52.8518 -14.23548,-74.2586 -9.26528,-43.08789 -37.39829,-74.90483 -80.06353,-82.20285 -25.30551,-3.45502 -53.11283,-7.07379 -75.54179,-10.06076 C 596.66208,91.037736 554.32096,53.807645 513.20314,53.332221 463.51429,56.405896 427.75076,89.783407 390.5522,115.74946 Z m 121.43989,2.11076 c 32.92457,0.0914 69.8004,39.86202 95.4336,58.28544 29.25369,3.88696 59.11014,8.35092 86.17315,12.1427 18.63362,1.45119 32.36078,16.23208 33.71041,33.48644 4.34218,30.29333 11.6149,60.41662 15.45248,87.33874 18.16109,23.12405 36.41907,49.63558 51.56172,70.79039 9.85543,17.94641 7.91693,38.136 -2.40354,53.70075 -16.37153,22.91936 -32.74307,45.83873 -49.11461,68.7581 -3.88102,29.21663 -8.35542,59.18143 -12.14272,86.18702 -2.76165,16.43656 -14.0757,30.04524 -29.21798,33.16154 -33.21328,5.52788 -65.49775,10.99458 -94.98518,16.02511 -23.09796,18.1325 -49.5746,36.36282 -70.69614,51.49163 -17.69285,9.90582 -38.8468,7.90223 -54.34073,-1.97636 -22.6122,-18.03578 -44.39874,-33.27065 -63.86017,-49.49547 -32.66925,-3.07598 -68.73436,-8.32618 -96.98474,-14.15051 -14.02149,-6.3758 -22.51565,-16.96493 -23.89129,-31.23514 -5.62017,-31.65235 -11.25552,-62.21853 -15.47184,-90.96222 -18.14833,-23.12412 -36.40181,-49.62489 -51.54155,-70.77083 -9.85995,-17.64792 -7.81647,-38.83171 2.0243,-54.26405 15.85602,-21.47099 33.27241,-44.39848 49.49746,-63.86017 3.36068,-28.21881 7.6745,-58.65953 11.10227,-84.19273 7.28965,-15.78225 16.95816,-29.97827 30.43627,-36.51663 25.87844,-6.82043 66.72408,-12.03381 93.8371,-15.64841 25.20606,-18.30826 62.49716,-58.38682 95.42173,-58.29534 z m 309.30134,636.30456 h -90.81805 c -11.2296,28.42134 -24.46407,58.15636 -35.54034,83.84027 -27.41443,-41.92653 -54.82799,-83.85364 -82.24235,-125.78021 6.87662,-5.04504 13.75453,-10.08834 20.63236,-15.13172 49.72235,-9.96403 87.16097,-6.18666 126.69104,-36.72245 21.18305,32.42612 43.05827,65.90782 61.27734,93.79411 z M 284.8537,676.83594 c 31.93287,16.23743 73.94478,17.00774 106.94,21.33037 6.48548,5.09745 12.97173,10.19392 19.45819,15.29013 -27.39961,41.50519 -54.80053,83.00951 -82.20276,124.51297 -13.01173,-30.18904 -24.48518,-56.20203 -35.5245,-83.80463 h -90.87349 c 20.5032,-30.96668 41.00797,-61.93231 61.51098,-92.89912 6.95504,5.83024 13.41334,11.40755 20.69158,15.57028 z" />
</svg>
