<?xml version="1.0" encoding="UTF-8" standalone="no"?>
<svg width="1024" height="1024" viewBox="0 0 1024 1024" xmlns="http://www.w3.org/2000/svg" version="1.1">
  <path d="M 384 53.332031 C 273.06695 53.332031 188.41966 75.658611 132.03906 132.03906 C 75.658466 188.41952 53.332031 273.06642 53.332031 384 L 53.332031 640 C 53.332031 750.93305 75.658611 835.58034 132.03906 891.96094 C 188.41952 948.34154 273.06642 970.66797 384 970.66797 L 640 970.66797 C 750.93305 970.66797 835.58034 948.34139 891.96094 891.96094 C 948.34154 835.58048 970.66797 750.93358 970.66797 640 L 970.66797 384 C 970.66797 273.06695 948.34139 188.41966 891.96094 132.03906 C 835.58048 75.658466 750.93358 53.332031 640 53.332031 L 384 53.332031 z M 795.86133 267.35547 C 809.03103 267.35577 822.19972 272.40285 832.29102 282.49414 C 852.47222 302.67674 852.47362 335.17093 832.29102 355.35352 L 446.14258 741.48047 C 446.13258 741.48947 446.12719 741.49977 446.11719 741.50977 C 443.59429 744.03267 440.87708 746.23681 438.01758 748.12891 C 436.58778 749.07501 435.12285 749.94402 433.62695 750.73242 C 426.14695 754.67462 417.91519 756.64463 409.68359 756.64453 C 408.03789 756.64453 406.39165 756.56773 404.75195 756.41016 C 403.11225 756.25256 401.47902 756.01637 399.85742 755.70117 C 398.23582 755.38597 396.62666 754.99233 395.03516 754.51953 C 393.44356 754.04683 391.86981 753.49563 390.32031 752.86523 C 388.77081 752.23473 387.2453 751.52628 385.75 750.73828 C 384.2547 749.95018 382.78867 749.08437 381.35938 748.13867 C 379.93018 747.19297 378.53675 746.16765 377.18555 745.06445 C 375.83445 743.96115 374.52467 742.78043 373.26367 741.51953 L 191.70898 559.96289 C 171.52628 539.78019 171.52628 507.28436 191.70898 487.10156 L 191.71094 487.10156 C 211.89364 466.91896 244.38957 466.91886 264.57227 487.10156 L 409.69727 632.22656 L 759.42969 282.49219 C 769.52099 272.40068 782.69173 267.35517 795.86133 267.35547 z" />
</svg>
