<?xml version="1.0" encoding="UTF-8" standalone="no"?>
<svg width="1024" height="1024" viewBox="0 0 1024 1024" xmlns="http://www.w3.org/2000/svg" version="1.1">
  <path d="m 384,53.332031 c -110.93305,0 -195.58034,22.326578 -251.96094,78.707029 C 75.658463,188.41952 53.332031,273.06642 53.332031,384 v 256 c 0,110.93305 22.326578,195.58034 78.707029,251.96094 56.38046,56.3806 141.02736,78.70703 251.96094,78.70703 h 256 c 110.93305,0 195.58034,-22.32658 251.96094,-78.70703 C 948.34154,835.58048 970.66797,750.93358 970.66797,640 V 384 c 0,-110.93305 -22.32658,-195.58034 -78.70703,-251.96094 C 835.58048,75.658463 750.93358,53.332031 640,53.332031 Z m 0,63.999999 h 256 c 102.40021,0 167.08758,20.34334 206.70703,59.96289 39.61945,39.61956 59.96094,104.30534 59.96094,206.70508 v 256 c 0,102.40021 -20.34334,167.08758 -59.96289,206.70703 C 807.08552,886.32648 742.39974,906.66797 640,906.66797 H 384 c -102.40021,0 -167.08758,-20.34334 -206.70703,-59.96289 C 137.67352,807.08552 117.33203,742.39974 117.33203,640 V 384 c 0,-102.40021 20.34334,-167.08758 59.96289,-206.70703 C 216.91448,137.67352 281.60026,117.33203 384,117.33203 Z" />
</svg>
