<?xml version="1.0" encoding="UTF-8" standalone="no"?>
<svg width="1024" height="1024" viewBox="0 0 1024 1024" xmlns="http://www.w3.org/2000/svg" version="1.1">
  <path d="M 512,53.332031 C 259.87873,53.332031 53.332031,259.87873 53.332031,512 53.332031,764.12127 259.87873,970.66797 512,970.66797 764.12127,970.66797 970.66797,764.12127 970.66797,512 970.66797,259.87873 764.12127,53.332031 512,53.332031 Z m 0,63.999999 C 729.21226,117.33203 906.66797,294.78774 906.66797,512 906.66797,729.21226 729.21226,906.66797 512,906.66797 294.78774,906.66797 117.33203,729.21226 117.33203,512 117.33203,294.78774 294.78774,117.33203 512,117.33203 Z" />
  <path d="m 511.48438,224 c -17.72801,0 -32,14.272 -32,32 v 256 c -0.0324,11.8987 6.58291,22.29472 16.79296,28.18164 l 186.29688,107.55859 c 15.3529,8.864 34.84889,3.64001 43.71289,-11.71289 8.864,-15.35289 3.64001,-34.84889 -11.71289,-43.71289 L 543.48438,493.53711 V 256 c 0,-17.728 -14.27201,-32 -32,-32 z" />
</svg>
