<?xml version="1.0" encoding="UTF-8" standalone="no"?>
<svg width="1024" height="1024" viewBox="0 0 1024 1024" xmlns="http://www.w3.org/2000/svg" version="1.1">
<rect width="502.6879" height="83.44619" x="128.50034" y="682.354" ry="41.5" rx="41.5" transform="rotate(-45)" />
<rect width="322.9126" height="83.44619" x="592.69904" y="351.91315" ry="41.5" rx="41.5" />
<rect width="322.9126" height="83.44619" x="-431.30093" y="588.64038" ry="41.5" rx="41.5" transform="rotate(-90)" />
<rect width="502.6879" height="83.44619" x="852.57788" y="-41.723164" ry="41.5" rx="41.5" transform="rotate(45)" />
<rect width="322.9126" height="83.44619" x="592.69885" y="-672.08667" ry="41.5" rx="41.5" transform="rotate(90)" />
<rect width="322.9126" height="83.44619" x="592.69904" y="588.64069" ry="41.5" rx="41.5" />
<rect width="322.9126" height="83.44619" x="108.38831" y="-435.35953" ry="41.5" rx="41.5" transform="rotate(90)" />
<rect width="322.9126" height="83.44619" x="108.38828" y="351.91315" ry="41.5" rx="41.5" />
<rect width="502.6879" height="83.44619" x="92.889008" y="-41.723282" ry="41.5" rx="41.5" transform="rotate(45)" />
<rect width="322.9126" height="83.44619" x="592.69885" y="-435.35944" ry="41.5" rx="41.5" transform="rotate(90)" />
<rect width="502.6879" height="83.44619" x="-631.18848" y="682.35413" ry="41.5" rx="41.5" transform="rotate(-45)" />
<rect width="322.9126" height="83.44619" x="108.38828" y="588.64069" ry="41.5" rx="41.5" />
</svg>
