<?xml version="1.0" encoding="UTF-8" standalone="no"?>
<svg width="1024" height="1024" viewBox="0 0 1024 1024" xmlns="http://www.w3.org/2000/svg" version="1.1">
  <path d="m 413.668,276.668 c -17.728,0 -32,14.272 -32,32 v 566 c 0,17.728 14.272,32 32,32 h 461 c 17.728,0 32,-14.272 32,-32 v -566 c 0,-17.728 -14.272,-32 -32,-32 z m 32,64 h 397 v 502 h -397 z" />
  <path d="m 149.33203,117.33203 c -17.728,0 -32,14.272 -32,32 v 566 c 0,17.728 14.272,32 32,32 h 168.33594 v -64 H 181.33203 v -502 h 397 v 31.33594 h 64 v -63.33594 c 0,-17.728 -14.272,-32 -32,-32 z" />
</svg>
