<?xml version="1.0" encoding="UTF-8" standalone="no"?>
<svg version="1.1" width="1024" height="1024" viewBox="0 0 1024 1024" xmlns="http://www.w3.org/2000/svg">
  <path d="m 242.371,71.290807 c -20.25535,0.02599 -40.37991,7.978627 -55.16811,21.822943 -14.38743,13.33999 -23.80789,31.98396 -25.70303,51.53827 -0.74694,7.43277 -0.35777,14.91084 -0.44422,22.36591 0,92.51263 0,185.02526 0,277.53788 -35.90804,57.44925 -71.814732,114.89938 -107.72364,172.3481 0,111.93704 0,223.87408 0,335.81112 305.77867,0 611.55733,0 917.336,0 0,-111.93704 0,-223.87408 0,-335.81112 -35.90891,-57.44872 -71.8156,-114.89885 -107.72364,-172.3481 0,-38.57659 0,-77.15317 0,-115.72975 C 789.359,242.98068 715.77592,157.13333 642.19402,71.284972 c -133.27434,0.0019 -266.54868,0.0039 -399.82302,0.0059 z m 0.28003,55.542973 c 116.43306,0 232.86612,0 349.29919,0 4.3e-4,57.29267 -0.003,114.58578 0.0454,171.87817 0.47266,20.4391 8.938,40.60688 23.33595,55.14402 13.03921,13.28693 30.74623,21.94106 49.28233,23.84605 7.5779,0.79968 15.20765,0.39963 22.81106,0.48692 39.99086,0 79.98172,0 119.97258,0 0,77.23808 0,154.47616 0,231.71425 -196.93167,0 -393.86333,0 -590.795,0 8.9e-4,-152.63467 -9e-5,-305.26953 0.0233,-457.90407 0.22245,-9.24671 5.74201,-18.25668 14.09291,-22.34455 3.67824,-1.87484 7.80569,-2.83789 11.93235,-2.82079 z m 542.49194,195.80831 c -37.72615,-0.0113 -75.45324,0.0183 -113.1788,-0.0508 -8.91759,-0.46574 -17.29399,-6.02867 -21.38654,-13.93511 -1.51359,-2.85128 -2.49903,-5.98317 -2.87443,-9.19045 -0.0868,-0.70303 -0.16251,-1.71309 -0.1953,-2.53617 -0.0782,-3.7613 0.0121,-7.52423 -0.0255,-11.28637 0.0141,-41.35872 0.0196,-82.71744 0.0146,-124.07616 45.88197,53.69166 91.76393,107.38332 137.6459,161.07499 z M 268.77929,181.00188 c 0,17.85184 0,35.70369 0,53.55554 90.33202,0 180.66405,0 270.99608,0 0,-18.51562 0,-37.03124 0,-55.54686 -90.33203,0 -180.66406,0 -270.99608,0 0,0.66377 0,1.32755 0,1.99132 z m 0,143.63152 c 0,17.85185 0,35.70369 0,53.55554 90.33202,0 180.66405,0 270.99608,0 0,-18.51561 0,-37.03124 0,-55.54685 -90.33203,0 -180.66406,0 -270.99608,0 0,0.66377 0,1.32754 0,1.99131 z m 0,143.62958 c 0,17.8525 0,35.705 0,53.55748 162.14714,0 324.29428,0 486.44142,0 0,-18.51626 0,-37.03253 0,-55.54879 -162.14714,0 -324.29428,0 -486.44142,0 0,0.66377 0,1.32754 0,1.99131 z M 161.05564,609.90319 c -12.06782,0 -24.13564,0 -36.20347,0 12.06783,-19.30774 24.13565,-38.61547 36.20347,-57.92322 0,19.30775 0,38.61548 0,57.92322 z m 738.09219,0 c -12.06783,0 -24.13565,0 -36.20347,0 0,-19.30774 0,-38.61547 0,-57.92322 12.06782,19.30775 24.13564,38.61548 36.20347,57.92322 z m -594.46067,55.5488 c 0.0125,16.04942 -0.0653,32.10026 0.0989,48.14867 0.862,23.50319 10.45655,46.57076 26.53246,63.74071 14.29028,15.39434 33.54405,26.1684 54.22078,29.99192 7.76743,1.47719 15.69759,1.92756 23.59285,1.74826 71.06091,-0.002 142.12213,0.005 213.18282,-0.0376 23.30982,-0.48475 46.35749,-9.50815 63.71486,-25.09174 15.82443,-14.07492 27.02605,-33.31506 31.2054,-54.09627 1.72079,-8.29637 2.2741,-16.7978 2.07763,-25.25783 0,-13.0487 0,-26.09739 0,-39.1461 65.26943,0 130.53887,0 195.80831,0 0,77.23808 0,154.47617 0,231.71425 -268.74743,0 -537.49487,0 -806.24229,0 0,-77.23808 0,-154.47617 0,-231.71425 65.26943,0 130.53887,0 195.8083,0 z m 359.07881,0 c -0.0151,15.59738 0.0633,31.19649 -0.092,46.79268 -0.70674,12.99165 -7.59929,25.49143 -18.23691,32.99182 -7.79475,5.58625 -17.42115,8.55616 -27.01123,8.28089 -53.11007,0.0395 -106.22017,0.007 -159.33026,0.005 -18.79973,-0.0167 -37.60021,0.006 -56.39949,-0.0354 -12.59203,-0.42258 -24.8305,-6.6068 -32.70108,-16.43579 -6.4518,-7.91846 -9.96199,-18.15039 -9.76925,-28.36069 0.0307,-14.41259 -2e-5,-28.82563 0.008,-43.23842 101.17732,0 202.35463,0 303.53194,0 z" />
</svg>
