<?xml version="1.0" encoding="UTF-8" standalone="no"?>
<svg width="1024" height="1024" viewBox="0 0 1024 1024" version="1.1" xmlns="http://www.w3.org/2000/svg">
  <rect width="520.75098" height="83" x="-200.04375" y="742.90906" ry="41.5" transform="rotate(-45)" />
  <rect width="83" height="324.327" x="-200.04375" y="501.58209" ry="41.5" transform="rotate(-45)" />
  <path d="M 511.99997,53.33203 C 259.87872,53.33203 53.332025,259.87873 53.332025,512 c 0,252.12127 206.546695,458.66797 458.667945,458.66797 252.1213,0 458.66801,-206.5467 458.66801,-458.66797 0,-252.12127 -206.5467,-458.66797 -458.66801,-458.66797 z m 0,64 c 217.2123,0 394.66801,177.45571 394.66801,394.66797 0,217.21226 -177.4557,394.66797 -394.66801,394.66797 -217.21224,0 -394.66795,-177.45571 -394.66795,-394.66797 0,-217.21226 177.45571,-394.66797 394.66795,-394.66797 z" />
</svg>
