<?xml version="1.0" encoding="UTF-8" standalone="no"?>
<svg version="1.1" width="1024" height="1024" viewBox="0 0 1024 1024" xmlns="http://www.w3.org/2000/svg">
  <path d="M 512.00005,53.332031 A 458.668,458.668 0 0 0 53.33205,512 a 458.668,458.668 0 0 0 458.668,458.66797 h 225 v -64 h -225 A 394.668,394.668 0 0 1 117.33205,512 394.668,394.668 0 0 1 512.00005,117.33203 394.668,394.668 0 0 1 906.66795,512 v 76.16602 c 0,46.85252 -37.9815,84.83398 -84.834,84.83398 -46.8525,-6e-5 -84.834,-37.9815 -84.8339,-84.83398 V 512 a 225,225 0 0 0 -225,-225 225,225 0 0 0 -225,225 225,225 0 0 0 225,225 225,225 0 0 0 175.1542,-85.46289 c 23.8044,50.50022 75.1497,85.46285 134.6797,85.46289 82.1987,0 148.834,-66.63524 148.834,-148.83398 V 512 A 458.668,458.668 0 0 0 512.00005,53.332031 Z m 0,297.667969 a 161,161 0 0 1 161,161 161,161 0 0 1 -161,161 161,161 0 0 1 -161,-161 161,161 0 0 1 161,-161 z" />
</svg>
