<?xml version="1.0" encoding="UTF-8" standalone="no"?>
<svg version="1.1" viewBox="0 0 1024 1024" width="1024" height="1024" xmlns="http://www.w3.org/2000/svg">
<path d="m 624.89373,53.331999 c -23.20571,0 -46.4115,8.679638 -63.76746,26.035598 l -447.21079,445.739843 -0.004,0.004 c -39.322288,39.3223 -60.578646,90.95987 -60.578646,146.88459 0,55.9247 21.256358,107.56229 60.578796,146.88472 l 91.20845,91.20845 c 40.85717,40.85717 93.92965,60.5788 146.88472,60.5788 h 1.47096 2.94189 570.78783 c 17.8696,0 32.40328,-14.53174 32.40328,-32.40135 0,-17.86961 -14.9285,-30.93234 -32.40328,-30.93234 H 501.64442 L 944.63323,464.3455 c 34.71191,-34.71192 34.71191,-92.82299 0,-127.53491 l 0.0135,0.0116 -255.97783,-257.44878 -0.008,-0.0058 C 671.30537,62.011697 648.09944,53.331999 624.89373,53.331999 Z m -0.73451,62.624241 c 7.51054,0 14.35124,2.37455 18.91219,8.07576 l 0.20629,0.2564 257.67433,257.67434 c 11.06851,11.0685 11.06851,27.63114 0,38.69964 L 566.79607,754.82026 270.64187,457.23367 604.80361,124.5236 l 0.006,-0.004 c 4.83748,-4.83747 12.49731,-8.5635 19.34982,-8.5635 z m -397.19854,386.41223 294.67361,294.67168 -67.8969,67.89691 c -56.57574,56.57574 -148.33435,56.54116 -203.41119,0.0521 l -0.027,-0.027 -91.23544,-91.23352 c -26.84891,-26.8489 -42.39725,-63.62135 -42.39725,-101.73257 0,-38.11122 15.54834,-74.88368 42.39725,-101.73259 z" />
</svg>
