<?xml version="1.0" encoding="UTF-8" standalone="no"?>
<svg width="1024" height="1024" viewBox="0 0 1024 1024" version="1.1" xmlns="http://www.w3.org/2000/svg">
  <path d="m 511.82616,53.332009 c -28.71148,0.0013 -57.38538,7.388427 -83.02807,22.192124 a 32.004235,32.004235 0 0 0 -0.002,0.002 L 175.34458,221.87847 a 32.004235,32.004235 0 0 0 -0.20899,0.1211 c -51.0783,30.01482 -82.778069,84.85944 -82.778069,144.07692 v 291.84928 c 0,59.54252 31.693249,114.58351 82.990959,144.19802 l 253.44766,146.35044 a 32.004235,32.004235 0 0 0 0.125,0.0723 c 51.58492,29.47692 114.9954,29.53708 166.28077,-0.0703 a 32.004235,32.004235 0 0 0 0.002,-0.002 L 848.65346,802.12184 a 32.004235,32.004235 0 0 0 0.21094,-0.12109 c 51.07763,-30.01444 82.77808,-84.85749 82.77808,-144.07498 V 366.07649 c 0,-59.54327 -31.84085,-114.14498 -82.77808,-144.07692 a 32.004235,32.004235 0 0 0 -0.21094,-0.1211 L 595.20386,75.526087 a 32.004235,32.004235 0 0 0 -0.125,-0.07227 C 569.2864,60.715355 540.53764,53.330692 511.82616,53.332005 Z m 0.0273,63.972771 c 17.69012,0.001 35.45041,4.56384 51.47238,13.71919 L 816.44339,277.183 c 31.83737,18.71013 51.19698,52.00693 51.19698,88.89349 v 291.84928 c 0,36.35042 -19.49268,70.24758 -51.17745,88.87787 L 563.20083,893.04861 c -31.49106,18.17893 -70.48358,18.238 -102.52675,-0.0723 L 207.34952,746.69622 a 32.004235,32.004235 0 0 0 -0.002,0 C 175.86843,728.5231 156.35959,694.81256 156.35959,657.92577 V 366.07649 c 0,-36.35978 19.50232,-70.26861 51.20088,-88.89545 l 253.2367,-146.22738 0.002,-0.002 c 15.74515,-9.08923 33.36513,-13.64823 51.05438,-13.64692 z" />
  <path d="M 479.64678,610.67649 457.80853,307.3675 c -2.52087,-38.07268 18.98877,-69.86739 55.00003,-70.36768 43.29102,1.62952 56.63286,41.85356 55.00003,73.60298 l -23.4559,300.07369 z m 31.54413,176.32363 c -33.36813,0.0457 -64.03046,-25.13048 -63.89709,-59.85298 0.13337,-34.7225 29.6045,-62.33091 63.89709,-62.27944 34.29259,0.0515 65.71709,27.97973 65.51474,62.27944 -0.20235,34.29971 -32.14661,59.80725 -65.51474,59.85298 z" />
</svg>
