<?xml version="1.0" encoding="UTF-8" standalone="no"?>
<svg width="1024" height="1024" viewBox="0 0 1024 1024" xmlns="http://www.w3.org/2000/svg" version="1.1">
<rect width="500.64435" height="83.106964" x="95.455132" y="-41.553474" ry="41.5" rx="41.5" transform="rotate(45)" />
<rect width="321.59991" height="83.106964" x="57.373947" y="-136.43898" ry="41.5" rx="41.5" transform="rotate(90)" />
<rect width="321.59991" height="83.106964" x="57.373802" y="53.332058" ry="41.5" rx="41.5" />
<rect width="500.64435" height="83.106964" x="-628.62225" y="682.52386" ry="41.5" rx="41.5" transform="rotate(-45)" />
<rect width="321.59991" height="83.106964" x="57.373802" y="887.56104" ry="41.5" rx="41.5" />
<rect width="321.59991" height="83.106964" x="-966.62628" y="53.332054" ry="41.5" rx="41.5" transform="rotate(-90)" />
<rect width="500.64435" height="83.106964" x="852.05524" y="-41.553623" ry="41.5" rx="41.5" transform="rotate(45)" />
<rect width="500.64435" height="83.106964" x="127.89293" y="682.6474" ry="41.5" rx="41.5" transform="rotate(-45)" />
<rect width="321.59991" height="83.106964" x="-966.62622" y="887.56104" ry="41.5" rx="41.5" transform="rotate(-90)" />
<rect width="321.59991" height="83.106964" x="-378.97375" y="887.56104" ry="41.5" rx="41.5" transform="rotate(-90)" />
<rect width="321.59991" height="83.106964" x="645.02631" y="53.332016" ry="41.5" rx="41.5" />
<rect width="321.59991" height="83.106964" x="645.02631" y="887.56104" ry="41.5" rx="41.5" />
</svg>
