<?xml version="1.0" encoding="UTF-8" standalone="no"?>
<svg version="1.1" viewBox="0 0 1024 1024" width="1024" height="1024" xmlns="http://www.w3.org/2000/svg">
<path d="M 510.52043,54.501345 C 253.07452,54.501345 53.332,243.88685 53.332,498.37361 c 0,134.64125 54.74425,250.04804 143.5187,328.46547 5.91829,5.9183 10.35702,16.27532 11.83659,25.15276 l 1.47957,81.37658 c 1.47958,25.15276 26.63234,44.38723 51.7851,32.55063 l 91.7336,-39.9485 c 5.9183,-1.47957 16.27532,-4.43872 25.15276,-1.47957 C 420.2664,934.848 464.65363,943.72544 512,943.72544 770.92548,942.24587 970.668,752.86037 970.668,499.85318 970.668,246.846 769.44591,54.501345 510.52043,54.501345 Z M 785.72123,396.28299 651.07997,607.8621 c -20.71403,32.55063 -66.58083,44.38722 -97.65189,19.23446 L 446.89874,545.71998 c -10.35702,-5.91829 -22.19362,-5.91829 -32.55064,0 L 269.34983,653.7289 c -19.23446,14.79574 -44.38722,-8.87745 -31.07106,-29.59149 L 372.92003,412.5583 c 20.71403,-32.55063 66.58083,-44.38722 97.65189,-19.23446 l 106.52934,81.37658 c 10.35702,5.9183 22.19362,5.9183 32.55064,0 L 753.17059,363.73236 c 22.19362,-8.87745 44.38723,13.31616 32.55064,32.55063 z" />
</svg>
