<?xml version="1.0" encoding="UTF-8" standalone="no"?>
<svg version="1.1" viewBox="0 0 1024 1024" width="1024" height="1024" xmlns="http://www.w3.org/2000/svg">
<path d="M 918.8829,53.332 H 105.1171 c -29.591487,0 -51.7851,23.673187 -51.7851,51.7851 v 813.7658 c 0,29.59149 23.673187,51.7851 51.7851,51.7851 H 543.07106 V 614.09062 H 424.70512 V 476.49022 H 543.07106 V 374.3996 c 0,-118.36594 71.01956,-183.4672 177.5489,-183.4672 35.50978,0 71.01956,1.47957 106.52934,5.9183 v 122.80465 h -71.01956 c -56.22382,0 -68.06041,26.63234 -68.06041,66.58084 v 87.29488 H 822.71058 L 803.47612,612.61105 H 685.11018 V 964.7497 H 918.8829 c 29.59149,0 51.7851,-22.19361 51.7851,-51.78509 V 105.1171 C 969.18843,75.525613 945.51524,53.332 918.8829,53.332 Z" />
</svg>
