<?xml version="1.0" encoding="UTF-8" standalone="no"?>
<svg width="1024" height="1024" viewBox="0 0 1024 1024" version="1.1" xmlns="http://www.w3.org/2000/svg">
  <path d="M 182.03903,-9.9998318e-6 C 164.31104,-8.9999832e-5 150.03903,14.27199 150.03903,31.99999 v 960 c 0,17.72801 14.27201,32.00001 32,32.00001 h 659.92193 c 17.72801,0 32,-14.272 32,-32.00001 V 241.31194 L 632.65086,0.00194 Z M 214.03903,63.99999 h 354.61329 v 209.31054 c 0,17.728 14.272,32 32,32 H 809.96096 V 959.99999 H 214.03903 Z m 418.61133,26.51106 150.79951,150.79948 h -150.7995 z" />
  <path d="m 341.333,543.99902 a 32,32 0 0 0 -32,32 32,32 0 0 0 32,32 h 341.33399 a 32,32 0 0 0 32,-32 32,32 0 0 0 -32,-32 z" />
  <path d="m 512.00098,373.33301 a 32,32 0 0 0 -32.00001,32 v 341.33398 a 32,32 0 0 0 32.00001,32 32,32 0 0 0 32,-32 V 405.33301 a 32,32 0 0 0 -32,-32 z" />
</svg>
