<?xml version="1.0" encoding="UTF-8" standalone="no"?>
<svg width="1024" height="1024" viewBox="0 0 1024 1024" version="1.1" xmlns="http://www.w3.org/2000/svg">
  <path d="M 490.64258 0 C 476.97721 -6.1666615e-05 465.97461 11.000636 465.97461 24.666016 L 465.97461 117.33398 L 257.6543 117.33203 C 243.98893 117.33196 232.98828 128.33267 232.98828 141.99805 L 232.98828 234.66602 L 24.666016 234.66406 C 11.000644 234.66399 0 245.6647 0 259.33008 L 0 999.33398 C 0 1012.9993 11.000644 1024 24.666016 1024 L 533.35742 1024 C 547.02281 1024 558.02539 1012.9993 558.02539 999.33398 L 558.02539 906.66797 L 766.3457 906.66797 C 780.01109 906.66797 791.01172 895.66733 791.01172 882.00195 L 791.01172 789.33594 L 999.33398 789.33594 C 1012.9993 789.33594 1024 778.3353 1024 764.66992 L 1024 186.01172 L 837.99023 0.001953125 L 490.64258 0 z M 515.30859 49.333984 L 788.65625 49.333984 L 788.65625 210.67773 C 788.65625 224.34311 799.65884 235.34375 813.32422 235.34375 L 974.66602 235.34375 L 974.66602 740.00195 L 791.01172 740.00195 L 791.01172 616.66797 L 886.08008 616.66797 C 899.74546 616.66797 910.74805 605.66733 910.74805 592.00195 C 910.74805 578.33657 899.74546 567.33594 886.08008 567.33594 L 791.01172 567.33594 L 791.01172 518.00195 L 886.08008 518.00195 C 899.74546 518.00195 910.74805 507.00132 910.74805 493.33594 C 910.74805 479.67056 899.74546 468.66797 886.08008 468.66797 L 791.01172 468.66797 L 791.01172 419.33398 L 886.08008 419.33398 C 899.74546 419.33398 910.74805 408.33335 910.74805 394.66797 C 910.74805 381.00259 899.74546 370.00195 886.08008 370.00195 L 791.01172 370.00195 L 791.01172 320.66797 L 886.08008 320.66797 C 899.74546 320.66797 910.74805 309.66733 910.74805 296.00195 C 910.74805 282.33657 899.74546 271.33398 886.08008 271.33398 L 759.00195 271.33398 L 605.00195 117.33398 L 515.30859 117.33398 L 515.30859 49.333984 z M 837.98828 69.769531 L 954.23047 186.01172 L 837.98828 186.01172 L 837.98828 69.769531 z M 282.32031 166.66602 L 555.66992 166.66602 L 555.66992 328.00977 C 555.66992 341.67515 566.67056 352.67578 580.33594 352.67578 L 741.67969 352.67578 L 741.67969 857.33398 L 558.02539 857.33398 L 558.02539 734 L 653.09375 734 C 666.75913 734 677.75977 722.99936 677.75977 709.33398 C 677.75977 695.6686 666.75913 684.66797 653.09375 684.66797 L 558.02539 684.66797 L 558.02539 635.33398 L 653.09375 635.33398 C 666.75913 635.33398 677.75977 624.33335 677.75977 610.66797 C 677.75977 597.00259 666.75913 586 653.09375 586 L 558.02539 586 L 558.02539 536.66602 L 653.09375 536.66602 C 666.75913 536.66602 677.75977 525.66538 677.75977 512 C 677.75977 498.33462 666.75913 487.33398 653.09375 487.33398 L 558.02539 487.33398 L 558.02539 438 L 653.09375 438 C 666.75913 438 677.75977 426.99936 677.75977 413.33398 C 677.75977 399.6686 666.75913 388.66602 653.09375 388.66602 L 526.01562 388.66602 L 372.01367 234.66602 L 282.32031 234.66602 L 282.32031 166.66602 z M 605.00195 187.10156 L 721.24414 303.34375 L 605.00195 303.34375 L 605.00195 187.10156 z M 49.333984 283.99805 L 322.68164 283.99805 L 322.68164 445.3418 C 322.68164 459.00718 333.68423 470.00781 347.34961 470.00781 L 508.69141 470.00781 L 508.69141 974.66602 L 49.333984 974.66602 L 49.333984 283.99805 z M 372.01367 304.43359 L 488.25586 420.67578 L 372.01367 420.67578 L 372.01367 304.43359 z M 137.98047 505.99805 C 124.31509 505.99805 113.3125 516.99868 113.3125 530.66406 C 113.3125 544.32944 124.31509 555.33203 137.98047 555.33203 L 420.10547 555.33203 C 433.77085 555.33203 444.77148 544.32944 444.77148 530.66406 C 444.77148 516.99868 433.77085 505.99805 420.10547 505.99805 L 137.98047 505.99805 z M 137.98047 604.66602 C 124.31509 604.66602 113.3125 615.66665 113.3125 629.33203 C 113.3125 642.99741 124.31509 653.99805 137.98047 653.99805 L 420.10547 653.99805 C 433.77085 653.99805 444.77148 642.99741 444.77148 629.33203 C 444.77148 615.66665 433.77085 604.66602 420.10547 604.66602 L 137.98047 604.66602 z M 137.98047 703.33203 C 124.31509 703.33203 113.3125 714.33462 113.3125 728 C 113.3125 741.66538 124.31509 752.66602 137.98047 752.66602 L 420.10547 752.66602 C 433.77085 752.66602 444.77148 741.66538 444.77148 728 C 444.77148 714.33462 433.77085 703.33203 420.10547 703.33203 L 137.98047 703.33203 z M 137.98047 802 C 124.31509 802 113.3125 813.00064 113.3125 826.66602 C 113.3125 840.3314 124.31509 851.33203 137.98047 851.33203 L 420.10547 851.33203 C 433.77085 851.33203 444.77148 840.3314 444.77148 826.66602 C 444.77148 813.00064 433.77085 802 420.10547 802 L 137.98047 802 z " />
</svg>
