<?xml version="1.0" encoding="UTF-8" standalone="no"?>
<svg version="1.1" width="1024" height="1024" viewBox="0 0 1024 1024" xmlns="http://www.w3.org/2000/svg">
  <path d="M 182.03903,-4.9998319e-6 C 164.31104,-8.4999832e-5 150.03903,14.271995 150.03903,31.999995 V 992 c 0,17.728 14.27201,32 32,32 h 659.92193 c 17.72802,0 32,-14.272 32,-32 V 241.31195 L 632.65086,0.001945 Z m 32,63.9999999998319 h 354.6133 V 273.31054 c 0,17.728 14.272,32 32,32 H 809.96096 V 960 H 214.03903 Z m 418.61133,26.51106 150.79951,150.799485 h -150.7995 z" />
  <rect width="430" height="64" x="297.03903" y="352" ry="32" />
  <rect width="430" height="64" x="297.03903" y="480" ry="32" />
  <rect width="430" height="64" x="297.03903" y="608" ry="32" />
  <rect width="430" height="64" x="297.03903" y="736" ry="32" />
</svg>
