<?xml version="1.0" encoding="UTF-8" standalone="no"?>
<svg version="1.1" width="1024" height="1024" viewBox="0 0 1024 1024" xmlns="http://www.w3.org/2000/svg">
  <path d="M 182.03903,-4.9998319e-6 C 164.31104,-8.4999832e-5 150.03903,14.271995 150.03903,31.999995 V 992 c 0,17.728 14.27201,32 32,32 h 659.92193 c 17.72802,0 32,-14.272 32,-32 V 241.31195 L 632.65086,0.001945 Z m 32,63.9999999998319 h 354.6133 V 273.31054 c 0,17.728 14.272,32 32,32 H 809.96096 V 960 H 214.03903 Z m 418.61133,26.51106 150.79951,150.799485 h -150.7995 z" />
  <rect width="430" height="64" x="297.03903" y="352" ry="32" />
  <rect width="207.61301" height="64" x="297.03903" y="224" ry="32" />
  <path d="m 306.96975,548.08997 c -18.00221,59.75715 -25.52106,126.74905 3.88513,181.07084 2.60649,4.58432 5.74929,7.85369 9.08653,11.20442 -8.87068,11.27668 -17.29349,22.89412 -25.73047,34.4961 l 34.33008,34.33008 c 9.83639,-13.45261 19.69449,-26.89877 30.13476,-39.89258 40.86528,11.46043 80.11081,-5.19623 112.625,-23.22266 16.61716,10.57755 28.23283,12.47077 46.07669,10.17927 33.46477,-6.39052 57.24081,-24.06512 79.07175,-46.17146 3.49039,18.98649 16.69156,30.64832 35.7793,29.14649 14.03319,-1.5667 24.37848,-9.54102 34.35667,-17.36773 17.38911,-13.51057 41.80576,-36.25028 62.51833,-36.27485 7.84887,-2.02081 3.94009,-40.35849 3.93554,-47.80664 -34.93623,-1.8937 -65.73767,22.72522 -89.63672,41.16992 0.97447,-19.12749 -8.33964,-37.47463 -27.70406,-40.88219 -33.61498,3.5998 -49.02041,38.75384 -73.88383,55.88414 17.19101,-21.92207 31.15351,-39.48006 29.87343,-65.61811 -2.77461,-38.08921 -27.12577,-64.67452 -64.88202,-62.02882 -37.23087,5.88538 -58.82334,27.44209 -67.96184,60.90584 -6.33045,27.40027 -6.25175,54.88225 3.40598,79.82899 -17.93842,8.24989 -33.52811,15.98449 -51.10938,19.17187 19.23157,-30.42351 34.96485,-63.27141 44.56613,-98.03056 7.31421,-26.32805 10.98276,-53.68033 10.66081,-81.01045 1.16252,-34.53069 -5.15402,-82.71163 -41.80672,-87.00668 -54.52114,-0.51637 -82.49717,45.97261 -97.59109,87.92477 z m 85.5947,-41.52356 c 8.80276,10.40776 6.90159,60.37362 1.8453,86.94729 -8.38089,40.10293 -23.73281,73.932 -44.23397,106.93552 -5.2621,-11.3932 -8.4682,-23.66883 -10.12683,-36.08681 -3.33268,-30.05008 0.93323,-63.53951 9.00967,-91.00694 6.55323,-17.64401 23.48501,-62.16477 43.50583,-66.78906 z m 118.82813,107.39648 c 11.62651,-0.86949 14.61072,14.26454 11.96588,22.26889 -7.05541,19.23409 -22.46505,32.41369 -37.21393,44.22134 -4.34753,-15.40026 -4.37834,-26.54082 -1.5,-39.28906 4.22254,-15.49316 10.30228,-26.98352 26.74805,-27.20117 z" />
</svg>
