<?xml version="1.0" encoding="UTF-8" standalone="no"?>
<svg version="1.1" viewBox="0 0 1024 1024" width="1024" height="1024" xmlns="http://www.w3.org/2000/svg">
  <path d="m 143.80624,52.977073 c -40.22003,1.881983 -58.952979,48.054667 -36.83789,74.623047 l 257.66016,298.66601 v 498.38086 c 2.16158,33.58951 40.15836,60.13963 69.84956,38.59181 L 638.79452,835.38723 c 12.35373,-7.2888 21.61922,-24.4848 21.82617,-37.35547 V 423.3052 l 254.4668,-293.95118 c 26.23638,-32.000686 3.85364,-75.455617 -35.11328,-76.376947 z m 38.04492,64.874997 H 842.01522 L 609.28866,387.47512 c -6.33156,6.33156 -9.2342,13.27438 -10.66015,19.35156 H 426.32772 c -2.23162,-6.62474 -4.99167,-12.96141 -8.61523,-17.57031 z M 428.00741,470.82668 H 597.23983 V 785.92434 L 428.00741,893.27395 Z" />
</svg>
