<?xml version="1.0" encoding="UTF-8" standalone="no"?>
<svg version="1.1" width="1024" height="1024" viewBox="0 0 1024 1024" xmlns="http://www.w3.org/2000/svg">
  <path d="m 366.46011,53.332733 c -71.27417,0.01928 -119.56948,68.870127 -113.28385,135.473427 3.08873,22.40368 13.39288,44.50694 25.2521,62.19175 25.79132,35.77306 54.03422,58.75342 87.42433,82.10398 2.52136,1.82772 1.9153,5.51012 -1.13283,5.12894 H 141.9979 c -17.7281,0 -32.00018,14.27205 -32.00018,32.00018 v 256.00145 c 0,17.72808 14.27208,32.00018 32.00018,32.00018 h 25.00014 v 280.43518 c 0,17.7281 14.27208,32.00018 32.00018,32.00018 h 626.00354 c 17.72811,0 32.00018,-14.27208 32.00018,-32.00018 V 658.23264 h 25.00014 c 17.7281,0 32.00019,-14.2721 32.00019,-32.00018 V 370.23101 c 0,-17.72811 -14.27209,-32.00019 -32.00019,-32.00018 H 659.50083 c 36.81809,-30.79849 80.17394,-68.31536 84.21336,-119.54951 2.02842,-49.87244 -40.54914,-100.09982 -88.38917,-107.14513 -29.80849,-3.48803 -52.56703,2.33651 -74.63519,22.32434 -31.10353,31.13022 -48.38269,71.39232 -61.13901,109.83851 -1.5244,2.14667 -3.21793,1.11072 -4.00393,-0.83204 C 496.66491,188.30827 480.36006,132.13593 441.93319,89.461843 419.95726,67.127832 396.20508,53.215514 366.46011,53.332733 Z m 4.46682,76.060977 c 23.71185,2.08597 38.34592,37.76969 46.63308,55.51398 15.3941,33.25339 26.54839,68.29826 35.69356,103.73106 1.79699,4.41327 -1.92369,8.80545 -6.22074,5.85354 -39.52075,-24.46929 -76.9788,-46.20703 -104.67052,-79.63716 -7.66866,-9.81159 -15.71691,-20.95591 -17.51572,-32.42206 -6.26072,-28.57292 28.69644,-53.57218 46.08034,-53.03936 z m 266.90385,56.58235 c 13.03181,1.63515 25.81795,10.37466 32.34003,20.3087 8.38756,17.81808 -19.73023,40.9202 -30.07439,50.43779 -20.67618,17.98231 -41.72059,32.34641 -61.83628,45.20534 7.2086,-25.03081 13.9306,-50.37168 24.86342,-74.10589 7.20464,-12.87378 18.36987,-41.85406 34.70722,-41.84594 z M 205.99826,402.23119 h 213.19262 c 17.7281,0 32.00018,14.27207 32.00018,32.00018 v 99.00056 c 0,17.72808 -14.27208,32.00018 -32.00018,32.00018 H 205.99826 c -17.7281,0 -32.00018,-14.2721 -32.00018,-32.00018 v -99.00056 c 0,-17.72811 14.27208,-32.00021 32.00018,-32.00018 z m 398.81086,0 h 213.1926 c 17.7281,0 32.00018,14.27207 32.00018,32.00018 v 99.00056 c 0,17.72808 -14.27208,32.00018 -32.00018,32.00018 H 604.80911 c -17.7281,0 -32.00018,-14.2721 -32.00018,-32.00018 v -99.00056 c 0,-17.72811 14.27208,-32.00021 32.00019,-32.00018 z M 262.99858,629.23248 h 156.1923 c 17.7281,0 32.00018,14.27207 32.00018,32.00018 v 213.43479 c 0,17.7281 -14.27208,32.00018 -32.00018,32.00018 h -156.1923 c -17.7281,0 -32.00018,-14.27208 -32.00018,-32.00018 V 661.23266 c 0,-17.72812 14.27208,-32.00018 32.00018,-32.00018 z m 341.81054,0 h 156.19033 c 17.72811,0 32.00018,14.27207 32.00018,32.00018 v 213.43479 c 0,17.7281 -14.27207,32.00018 -32.00018,32.00018 H 604.80911 c -17.7281,0 -32.00018,-14.27208 -32.00018,-32.00018 V 661.23266 c 0,-17.72812 14.27208,-32.00018 32.00019,-32.00018 z" />
</svg>
