<?xml version="1.0" encoding="UTF-8" standalone="no"?>
<svg version="1.1" viewBox="0 0 1024 1024" width="1024" height="1024" xmlns="http://www.w3.org/2000/svg">
  <path d="M 113.33203 217.03711 C 80.092032 217.03711 53.332031 243.79711 53.332031 277.03711 L 53.332031 746.96289 C 53.332031 780.20289 80.092032 806.96289 113.33203 806.96289 L 910.01172 806.96289 C 943.25172 806.96289 970.01172 780.20289 970.01172 746.96289 L 970.01172 277.03711 C 970.01172 243.79711 943.25172 217.03711 910.01172 217.03711 L 113.33203 217.03711 z M 276.58789 387.06641 C 306.15817 387.06641 334.25001 397.41603 354.94922 416.63672 L 322.42188 449.16406 C 312.07227 438.81446 292.85154 429.94336 279.54492 432.90039 C 249.97463 432.90039 223.36132 453.59964 213.01172 480.21289 C 208.57618 494.99804 208.57618 509.78126 213.01172 526.04492 C 221.88281 555.6152 245.53909 573.35742 279.54492 573.35742 C 295.80857 573.35742 309.11524 568.92187 319.46484 563.00781 C 331.29296 554.13673 340.16406 542.30858 341.64258 527.52344 L 279.54492 527.52344 L 279.54492 480.21289 L 388.95508 480.21289 C 390.4336 489.08398 390.43359 496.47657 390.43359 505.34766 C 388.95507 542.31051 377.12693 573.35744 353.4707 594.05664 C 334.25001 613.27733 307.63669 623.62695 276.58789 623.62695 C 233.71097 623.62695 190.83397 598.49216 173.0918 560.05078 C 156.82814 526.04496 156.82814 486.12692 173.0918 453.59961 C 193.791 413.67972 233.71097 387.06641 276.58789 387.06641 z M 470.27344 403.33008 L 538.28516 403.33008 C 554.54882 403.33008 570.81251 409.24415 581.16211 422.55078 C 604.81834 444.72849 607.77537 481.69143 582.64062 506.82617 C 572.29102 517.17577 556.02733 523.08789 539.76367 523.08789 L 496.88672 523.08789 L 496.88672 605.88477 L 470.27344 605.88477 L 470.27344 403.33008 z M 495.4082 428.46484 L 495.4082 499.43359 L 538.28516 499.43359 C 548.63476 499.43359 557.50586 494.99804 563.41992 489.08398 C 578.20506 474.29884 575.24804 452.12108 561.94141 437.33594 C 557.50586 431.42188 547.15624 428.46484 538.28516 428.46484 L 495.4082 428.46484 z M 659.52344 463.94922 C 678.74413 463.94922 695.00782 469.86329 705.35742 480.21289 C 715.70702 490.56249 721.62109 505.34572 721.62109 523.08789 C 723.09961 523.08789 723.09961 608.8418 723.09961 608.8418 L 697.96484 608.8418 L 697.96484 588.14258 L 696.48633 588.14258 C 686.13673 604.40623 671.35155 613.27734 653.60938 613.27734 C 637.34573 613.27734 624.03905 608.84179 613.68945 598.49219 C 603.33985 589.6211 597.42578 577.79296 597.42578 563.00781 C 597.42578 548.22267 603.33985 537.87304 613.68945 527.52344 C 624.03905 518.65235 638.82424 515.69727 656.56641 515.69727 C 672.83007 515.69727 686.13673 517.17384 696.48633 524.56641 L 696.48633 518.65234 C 696.48633 509.78126 692.05078 502.39062 686.13672 496.47656 C 680.22266 490.5625 669.87303 486.12695 661.00195 486.12695 C 646.2168 486.12695 635.86718 492.04103 625.51758 505.34766 L 603.33984 490.5625 C 615.16795 471.34182 634.3887 463.94922 659.52344 463.94922 z M 727.53516 466.90625 L 757.10547 466.90625 L 798.50391 568.92188 L 836.94531 466.90625 L 863.55859 466.90625 L 779.2832 667.98242 L 752.66992 667.98242 L 785.19727 597.01367 L 727.53516 466.90625 z M 661.00195 536.39453 C 655.08789 537.87304 644.73828 542.30859 635.86719 546.74414 C 629.95313 552.65819 625.51758 557.09376 625.51758 565.96484 C 625.51758 574.83593 626.9961 577.79298 634.38867 582.22852 C 640.30273 586.66406 646.2168 588.14258 655.08789 588.14258 C 665.43749 588.14258 675.78712 583.70702 684.6582 576.31445 C 693.52929 567.44337 696.48633 557.09374 696.48633 546.74414 C 687.61524 540.83008 675.78709 536.39453 661.00195 536.39453 z" />
</svg>
