<?xml version="1.0" encoding="UTF-8" standalone="no"?>
<svg version="1.1" width="1024" height="1024" viewBox="0 0 1024 1024" xmlns="http://www.w3.org/2000/svg">
  <path d="M 512.00586,167.43359 0,432.61328 c 18.484235,9.24309 36.968849,18.48551 55.453125,27.72852 v 275 A 65.168343,65.168343 0 0 0 23.253906,791.39844 65.168343,65.168343 0 0 0 88.423828,856.56641 65.168343,65.168343 0 0 0 153.5918,791.39844 65.168343,65.168343 0 0 0 121.39453,735.20117 V 494.33984 c 21.4634,11.06725 42.92673,22.13488 64.39063,33.20118 0.007,55.75552 -0.0322,111.51046 0.0391,167.26562 5.94171,48.94958 62.60354,64.36406 100.83594,73.81836 91.33028,18.69337 177.38628,22.86658 263.05078,22.23633 54.01822,-1.79086 109.28774,-6.73852 158.32226,-15.9375 37.59412,-9.18802 97.16378,-20.45993 119.87696,-50.75195 8.68215,-12.08506 10.36753,-24.02189 10.30273,-37.86719 0.02,-56.06013 0.008,-110.23897 0.008,-158.76367 L 1024,432.60938 Z m -0.004,74.18946 L 879.75,432.60742 c -19.01681,9.6756 -38.03434,19.349 -57.05273,29.02149 -51.84821,-40.63472 -185.1585,-58.68381 -271.38086,-61.40235 -27.83008,-0.81132 -55.68709,-0.75672 -83.51368,0.16797 -84.21585,1.06716 -204.95916,20.2702 -266.02539,60.77735 -18.58664,-8.7457 -38.68582,-18.98741 -57.52148,-28.56446 z m -3.57617,219.68164 c 81.53173,0.70875 150.47445,7.29298 227.3711,28.41797 19.34601,5.31472 36.51724,8.33885 36.48242,19.6582 V 628.49219 C 688.64851,601.41291 598.71621,595.3072 513.41992,595.15234 c -88.85832,-10e-4 -178.61088,5.33134 -261.69336,33.34961 V 505.01758 c -0.0678,-2.75424 10.82629,-7.95365 21.74414,-10.83399 61.67406,-16.27087 155.25524,-32.64292 234.95508,-32.8789 z M 494.9668,661.36523 c 51.99268,-0.5861 104.42476,1.80898 150.90234,7.11719 27.62997,3.88234 103.84752,12.60994 103.67578,24.66992 -0.36552,16.14536 -112.53687,26.70636 -156.23437,29.67969 -41.5078,2.7204 -83.15327,3.28812 -124.72461,1.88672 -69.94587,-3.47995 -140.36382,-8.84219 -201.6875,-31.42383 57.1687,-21.22113 120.8439,-27.15235 176.45898,-30.34765 16.99613,-0.86028 34.27848,-1.38667 51.60938,-1.58204 z" />
</svg>
