<?xml version="1.0" encoding="UTF-8" standalone="no"?>
<svg width="1024" height="1024" viewBox="0 0 1024 1024" xmlns="http://www.w3.org/2000/svg" version="1.1">
  <path d="M 310.83008 127.7168 C 169.10619 129.12624 53.332031 243.33914 53.332031 386.42188 C 53.332031 578.50512 180.61029 646.8725 409.20117 833.01953 C 513.05803 917.59265 512.00106 917.45179 615 832.21484 C 863.89709 626.23961 970.66797 575.56453 970.66797 386.42188 C 970.66797 256.15321 868.16324 127.7168 713.16992 127.7168 C 587.19331 127.7168 512 229.91211 512 229.91211 C 512 229.91211 438.32627 126.44885 310.83008 127.7168 z M 713.2207 192.90625 C 828.75938 192.62377 906.76101 290.71332 906.74023 389.32422 C 906.70453 558.89807 766.486 629.55266 539.44727 813.4082 C 511.43787 836.09015 512.70865 836.12466 484.88281 813.38281 C 272.13985 639.50998 117.96225 561.56466 117.25195 387.68555 C 116.83383 285.33102 200.11362 192.75086 310.86133 192.94141 C 435.72238 193.15625 512.13477 339.54883 512.13477 339.54883 C 512.13477 339.54883 587.6141 193.21335 713.2207 192.90625 z" />
</svg>
