<?xml version="1.0" encoding="UTF-8" standalone="no"?>
<svg width="1024" height="1024" viewBox="0 0 1024 1024" version="1.1" xmlns="http://www.w3.org/2000/svg">
  <path d="M 512.00001,53.33203 C 259.87874,53.33203 53.332045,259.87873 53.332045,512 c 0,252.12127 206.546695,458.66797 458.667965,458.66797 252.12124,0 458.66794,-206.5467 458.66794,-458.66797 0,-252.12127 -206.54669,-458.66797 -458.66794,-458.66797 z m 0,64 c 217.21225,0 394.66794,177.45571 394.66794,394.66797 0,217.21226 -177.45569,394.66797 -394.66794,394.66797 -217.21226,0 -394.66797,-177.45571 -394.66797,-394.66797 0,-217.21226 177.45571,-394.66797 394.66797,-394.66797 z" />  <path d="M 479.64678,610.67649 457.80853,307.3675 c -2.52087,-38.07268 18.98877,-69.86739 55.00003,-70.36768 43.29102,1.62952 56.63286,41.85356 55.00003,73.60298 l -23.4559,300.07369 z m 31.54413,176.32363 c -33.36813,0.0457 -64.03046,-25.13048 -63.89709,-59.85298 0.13337,-34.7225 29.6045,-62.33091 63.89709,-62.27944 34.29259,0.0515 65.71709,27.97973 65.51474,62.27944 -0.20235,34.29971 -32.14661,59.80725 -65.51474,59.85298 z" />
</svg>
