<?xml version="1.0" encoding="UTF-8" standalone="no"?>
<svg version="1.1" viewBox="0 0 1024 1024" width="1024" height="1024" xmlns="http://www.w3.org/2000/svg">
<path d="M 969.72107,322.6145 C 968.2415,275.26813 959.36406,241.23792 949.00704,210.16686 938.65002,179.09581 922.3747,153.94304 897.22194,128.79028 872.06918,103.63752 846.91642,88.841779 817.32493,77.005185 787.73345,65.168592 755.18282,57.770721 704.87729,56.291146 653.0922,53.331998 638.29645,53.331998 512.53265,53.331998 c -125.76381,0 -139.07998,0 -189.3855,1.479574 -50.30552,1.479574 -81.37658,10.35702 -112.44764,20.714039 C 179.62845,85.88263 154.47569,103.63752 129.32293,128.79028 104.17017,153.94304 87.894852,179.09581 77.537832,210.16686 65.701239,239.75835 58.303368,272.30898 56.823793,322.6145 55.344219,372.92003 53.864645,386.23619 53.864645,512 c 0,125.76381 0,139.07997 1.479574,189.3855 1.479574,50.30552 10.35702,81.37658 20.714039,112.44764 10.357019,31.07105 26.632332,56.22382 51.785102,81.37658 25.15276,25.15276 51.78509,41.42808 81.37658,51.78509 29.59148,10.35702 62.14211,19.23447 112.44764,20.71404 50.30552,2.95915 63.62169,2.95915 189.38549,2.95915 125.76381,0 139.07998,0 189.3855,-1.47957 50.30552,-1.47958 81.37658,-10.35702 112.44764,-20.71404 31.07106,-10.35702 56.22382,-26.63234 81.37658,-51.7851 25.15276,-25.15276 41.42808,-51.7851 51.7851,-81.37658 10.35702,-29.59148 19.23446,-62.14212 20.71404,-112.44764 1.47957,-47.34637 1.47957,-62.14211 1.47957,-187.90592 0,-125.76381 2.95915,-142.03912 1.47957,-192.34465 z m -82.85615,374.33227 c -1.47957,44.38723 -10.35702,68.06042 -16.27532,85.81531 -8.87744,20.71404 -19.23446,36.98935 -35.50978,51.7851 -16.27531,16.27531 -31.07106,25.15276 -51.78509,35.50978 -16.27532,5.91829 -39.94851,14.79574 -85.81531,16.27531 -47.34637,0 -62.14211,0 -183.4672,0 -121.32508,0 -137.6004,0 -184.94677,-1.47957 -44.38723,-1.47958 -68.06042,-10.35702 -85.81531,-16.27532 -20.71404,-8.87744 -36.98935,-19.23446 -51.78509,-35.50978 -16.27532,-16.27531 -25.15277,-31.07106 -35.50979,-51.7851 -5.91829,-16.27531 -14.79574,-39.9485 -16.27531,-85.8153 0,-45.8668 0,-60.66254 0,-183.4672 0,-122.80466 0,-137.6004 1.47957,-184.94678 1.47958,-44.38722 10.35702,-68.06041 16.27532,-85.8153 8.87744,-20.71404 19.23446,-36.98935 34.03021,-51.7851 16.27531,-16.27531 31.07105,-25.15276 51.78509,-34.0302 16.27532,-5.9183 39.94851,-14.79574 85.81531,-16.27532 47.34637,-1.47957 62.14211,-1.47957 184.94677,-1.47957 122.80466,0 137.6004,0 184.94678,1.47957 44.38722,1.47958 68.06041,10.35702 85.8153,16.27532 20.71404,8.87744 36.98935,19.23446 51.7851,34.0302 16.27531,16.27532 25.15276,31.07106 35.50978,51.7851 5.91829,16.27532 14.79574,39.9485 16.27531,85.8153 1.47958,47.34638 1.47958,62.14212 1.47958,184.94678 0,122.80466 -1.47958,137.6004 -2.95915,184.94677 z" /><path d="m 512.53265,276.7477 c -131.68211,0 -235.2523,106.52934 -235.2523,235.2523 0,131.6821 106.52934,235.2523 235.2523,235.2523 128.72295,0 236.73187,-103.5702 236.73187,-235.2523 0,-131.6821 -105.04977,-235.2523 -236.73187,-235.2523 z m 0,389.12802 c -85.81531,0 -153.87572,-69.53999 -153.87572,-153.87572 0,-84.33573 69.53999,-153.87572 153.87572,-153.87572 85.8153,0 153.87571,68.06042 153.87571,153.87572 0,85.8153 -68.06041,153.87572 -153.87571,153.87572 z" /><circle cx="759.62152" cy="266.39069" r="54.744247" />
</svg>
