<?xml version="1.0" encoding="UTF-8" standalone="no"?>
<svg width="1024" height="1024" viewBox="0 0 1024 1024" xmlns="http://www.w3.org/2000/svg" version="1.1">
  <path d="m 559.12097,669.12962 -61.27518,58.05017 c -6.45002,9.67503 -17.37921,14.15421 -28.84591,14.15421 H 397.333 v 71.66687 c 0,23.82924 -19.17089,43.00013 -43.00012,43.00013 H 282.666 v 71.66687 c 0,23.82924 -19.17089,43.00013 -43.00012,43.00013 H 96.332125 C 72.592473,970.668 53.332,951.49711 53.332,927.66788 V 784.33413 c 0,-11.4667 4.531138,-22.3959 12.593662,-30.45843 L 354.87038,464.87903 C 345.19535,434.59978 339.9995,402.17051 339.9995,368.66625 339.9995,194.51574 481.18324,53.332 655.33375,53.332 c 174.15051,0 315.33425,141.18374 315.33425,315.33425 0,174.15051 -141.18374,315.33425 -315.33425,315.33425 -33.50426,0 -65.93352,-5.19585 -96.21278,-14.87088 z M 727.00063,368.66625 c 39.59594,0 71.66687,-32.07093 71.66687,-71.66687 0,-39.59595 -32.07093,-71.66688 -71.66687,-71.66688 -39.59595,0 -71.66688,32.07093 -71.66688,71.66688 0,39.59594 32.07093,71.66687 71.66688,71.66687 z" />
</svg>
