<?xml version="1.0" encoding="UTF-8" standalone="no"?>
<svg version="1.1" width="1024" height="1024" viewBox="0 0 1024 1024" xmlns="http://www.w3.org/2000/svg">
  <path d="m 731.77842,53.332 c -63.90297,-1e-5 -124.5212,25.2327 -169.61161,70.47242 l -56.13904,56.13905 c -45.23972,45.23972 -70.47243,105.70864 -70.47243,169.6116 0,30.30912 5.82293,59.87171 16.72227,87.19471 l 62.11129,-62.1113 c -7.76391,-49.56959 7.316,-102.87183 45.38903,-140.94485 l 56.13905,-56.13906 c 30.75703,-30.75703 72.4134,-47.77791 115.86144,-47.77791 43.44805,1e-5 83.90996,17.02088 114.66701,47.77791 63.45504,63.45506 63.45504,167.07341 0,230.52845 l -56.13906,56.13905 c -30.75703,30.75704 -72.4134,47.77792 -115.86145,47.77792 -8.51044,0 -16.87158,-0.89584 -25.0834,-2.38889 l -62.1113,62.11129 c 27.323,10.89934 56.88559,16.72227 87.19471,16.72227 63.90296,0 124.52119,-25.23272 169.6116,-70.47243 l 56.13905,-56.13904 c 45.23974,-45.23972 70.47244,-105.70864 70.47244,-169.61161 0,-63.90296 -25.2327,-123.17744 -70.47244,-168.41716 C 855.10516,78.5647 795.68138,53.33199 731.77842,53.332 Z M 637.41703,331.63835 331.63836,637.41702 386.58298,692.36164 692.36165,386.58297 Z M 349.55509,435.55532 c -63.90297,0 -124.5212,25.23273 -169.61161,70.47244 l -56.13904,56.13904 c -45.23973,45.23972 -70.47241,105.70861 -70.47246,169.61164 10e-6,63.90294 25.23269,123.17744 70.47248,168.4171 45.0904,45.23976 104.51416,70.47246 168.4171,70.47246 63.90303,0 124.52122,-25.2327 169.61164,-70.47244 l 56.13904,-56.13904 c 45.23972,-45.23972 70.47244,-105.70864 70.47244,-169.61161 -10e-6,-30.30912 -5.82294,-59.8717 -16.72228,-87.1947 l -62.11129,62.11129 c 7.76391,49.5696 -7.316,102.87184 -45.38903,140.94486 l -56.13905,56.13905 c -30.75703,30.75704 -72.41339,47.77792 -115.86143,47.7779 -43.44804,-10e-6 -83.90994,-17.02089 -114.66698,-47.77793 -63.45505,-63.45505 -63.45508,-167.07337 -3e-5,-230.52841 l 56.13906,-56.13905 c 30.75703,-30.75705 72.41339,-47.77793 115.86144,-47.77793 8.51044,0 16.87158,0.89584 25.08341,2.3889 l 62.11129,-62.11129 c -27.323,-10.89934 -56.88558,-16.72227 -87.1947,-16.72228 z" />
</svg>
