<?xml version="1.0" encoding="UTF-8" standalone="no"?>
<svg version="1.1" viewBox="0 0 1024 1024" width="1024" height="1024" xmlns="http://www.w3.org/2000/svg">
<path d="M 904.72486,53.332 H 122.03011 c -36.98936,0 -66.580844,29.591484 -66.580844,66.58084 v 784.17432 c 0,35.50978 29.591484,66.58084 66.580844,66.58084 h 779.7356 c 36.98935,0 66.58084,-29.59148 66.58084,-66.58084 V 118.43326 C 971.3057,82.923484 941.71421,53.332 904.72486,53.332 Z M 326.21135,833.0676 H 191.5701 V 396.59321 H 326.21135 Z M 258.15093,335.93067 c -44.38722,0 -78.41743,-35.50978 -78.41743,-78.41743 0,-42.90765 35.50978,-78.41743 78.41743,-78.41743 42.90766,0 78.41744,35.50978 78.41744,78.41743 0,42.90765 -32.55064,78.41743 -78.41744,78.41743 z M 836.66444,833.0676 H 702.02319 V 621.48849 c 0,-50.30552 -1.47957,-116.88636 -71.01956,-116.88636 -71.01956,0 -81.37658,56.22382 -81.37658,112.44764 V 833.0676 H 414.9858 V 396.59321 h 131.6821 v 60.66254 h 1.47958 c 19.23446,-35.50978 62.14211,-71.01956 128.72295,-71.01956 137.6004,0 162.75316,88.77446 162.75316,210.09954 V 833.0676 Z" />
</svg>
