<?xml version="1.0" encoding="UTF-8" standalone="no"?>
<svg version="1.1" width="1024" height="1024" viewBox="0 0 1024 1024" xmlns="http://www.w3.org/2000/svg">
  <path d="M 512 117.33203 C 439.90304 117.33203 374.06525 143.98074 323.64844 187.88477 L 425.66211 289.89844 C 449.7005 271.74038 479.53605 260.8457 512 260.8457 C 591.29238 260.8457 655.51367 325.07285 655.51367 404.36523 C 655.51367 436.80708 644.61778 466.64436 626.45312 490.68945 L 739.23242 603.46875 C 774.19918 536.96242 799.0332 467.58151 799.0332 404.36523 C 799.0332 245.85224 670.513 117.33205 512 117.33203 z M 162.68945 117.43359 L 117.43359 162.68945 L 247.51172 292.76758 C 233.00057 327.07044 224.9668 364.77622 224.9668 404.36523 C 224.9668 619.63863 512 906.66797 512 906.66797 C 512 906.66797 593.90846 824.63619 670.22266 715.47852 L 861.31055 906.56641 L 906.56641 861.31055 L 706.25781 661.00195 L 577.30664 532.05078 L 384.30469 339.04883 L 280.28711 235.03125 L 162.68945 117.43359 z M 368.98438 414.24023 L 502.12305 547.37891 C 430.74305 542.50588 373.85508 485.56446 368.98438 414.24023 z" />
</svg>
