<?xml version="1.0" encoding="UTF-8" standalone="no"?>
<svg width="1024" height="1024" viewBox="0 0 1024 1024" xmlns="http://www.w3.org/2000/svg" version="1.1">
  <path d="m 404.36504,117.33202 c -158.51297,0 -287.03305,128.52006 -287.03305,287.03305 0,215.2734 287.03305,502.30291 287.03305,502.30291 0,0 287.03305,-287.02949 287.03305,-502.30289 0,-158.51299 -128.52005,-287.03305 -287.03305,-287.03307 z m 0,143.51456 c 79.29238,0 143.51457,64.22611 143.51457,143.51849 0,79.22062 -64.22219,143.51457 -143.51457,143.51457 -79.29236,0 -143.51456,-64.29395 -143.51456,-143.51457 0,-79.29238 64.2222,-143.51849 143.51456,-143.51849 z" />
  <rect width="64" height="300" x="724.66803" y="606.66797" ry="32" />
  <rect width="64" height="300" x="-788.66797" y="606.66803" ry="32" transform="rotate(-90)" />
</svg>
