<?xml version="1.0" encoding="UTF-8" standalone="no"?>
<svg width="1024" height="1024" viewBox="0 0 1024 1024" xmlns="http://www.w3.org/2000/svg" version="1.1">
  <path d="M 236.7992,420.2664 V 328.5328 C 236.7992,176.54312 360.01032,53.332 512,53.332 c 151.98968,0 275.2008,123.21112 275.2008,275.2008 0,30.57787 0,61.15573 0,91.7336 h 45.8668 c 50.66275,0 91.7336,41.07085 91.7336,91.7336 0,122.31147 0,244.62293 0,366.9344 0,50.66275 -41.07085,91.7336 -91.7336,91.7336 -214.04507,0 -428.09013,0 -642.1352,0 -50.66275,0 -91.7336,-41.07085 -91.7336,-91.7336 0,-122.31147 0,-244.62293 0,-366.9344 0,-50.45348 41.28012,-91.7336 91.7336,-91.7336 z m 229.334,308.68356 V 833.0676 h 91.7336 V 728.94996 c 27.61325,-16.15658 45.8668,-45.66756 45.8668,-79.44416 0,-50.66275 -41.07085,-91.7336 -91.7336,-91.7336 -50.66275,0 -91.7336,41.07085 -91.7336,91.7336 4.68459,33.68507 22.18236,64.97369 45.8668,79.44416 z M 374.3996,328.5328 v 91.7336 h 275.2008 v -91.7336 c 0,-75.99412 -61.60628,-137.6004 -137.6004,-137.6004 -75.99412,0 -137.6004,61.60628 -137.6004,137.6004 z" />
</svg>
