<?xml version="1.0" encoding="UTF-8" standalone="no"?>
<svg version="1.1" width="1024" height="1024" viewBox="0 0 1024 1024" xmlns="http://www.w3.org/2000/svg">
  <path d="m 331.18356,479.37254 c -4.7458,0.27376 -8.8587,3.28489 -11.75586,6.8789 -5.36443,6.62671 -7.8317,15.19035 -8.23828,23.60743 -0.36419,8.83042 1.55935,17.94401 6.44922,25.39453 2.70472,4.09115 6.51275,7.8082 11.39258,9.03515 3.86923,0.92215 8.01704,-0.42961 10.9375,-3.04492 4.43859,-3.74008 7.13071,-9.12516 8.83398,-14.58203 2.67373,-8.79433 2.77775,-18.31323 0.60938,-27.22656 -1.48549,-5.87442 -4.13558,-11.63168 -8.50195,-15.92383 -2.60246,-2.47752 -6.04803,-4.30736 -9.72657,-4.13867 z" />
  <rect width="450" height="64" x="520.66803" y="479.99945" ry="32" />
  <rect width="64" height="245" x="269.67953" y="812.75623" ry="32" transform="rotate(-45)" />
  <rect width="64" height="245" x="-1057.7562" y="88.679604" ry="32" transform="rotate(-135)" />
  <path d="m 674.2402,607.99949 v 221 h -117 v 64 h 149 c 17.728,0 32,-14.272 32,-32 v -253 z" />
  <path d="m 557.2402,130.99949 v 64 h 117 v 221 h 64 v -253 c 0,-17.728 -14.272,-32 -32,-32 z" />
  <path d="m 441.49216,52.960423 c -2.06228,-0.181949 -4.19031,-0.07312 -6.36133,0.371093 L 85.332001,124.90379 c -17.368172,3.55367 -32,14.272 -32,32 v 710.1914 c 0,17.728 14.631828,28.44633 32,32 l 349.798829,71.57227 c 17.36817,3.55367 32,-14.272 32,-32 V 85.331516 c 0,-15.512 -11.20273,-31.097456 -25.63867,-32.371093 z m -38.38477,72.261727 c 0.0221,257.85546 0.0443,515.71093 0.0664,773.5664 -95.26563,-19.49023 -190.53125,-38.98047 -285.79688,-58.4707 -0.0162,-218.85287 -0.0325,-437.70573 -0.0488,-656.55859 50.6068,-10.37357 101.21347,-20.74818 151.82032,-31.1211 z" />
</svg>
