<?xml version="1.0" encoding="UTF-8" standalone="no"?>
<svg version="1.1" width="1024" height="1024" viewBox="0 0 1024 1024" xmlns="http://www.w3.org/2000/svg">
  <path d="m 804.37834,215.29792 c -224.10196,0.0129 -448.20403,0.0181 -672.30593,0.036 -21.71451,0.51214 -43.04228,10.2342 -57.654964,26.30799 -12.263877,13.39529 -19.804232,31.03265 -20.922451,49.16677 -0.280786,4.75311 -0.091,9.51788 -0.149238,14.27636 -0.0363,88.0062 0.01035,176.01241 0.01357,264.01861 0.01096,53.52935 0.02364,107.059 0.04625,160.58817 0.0087,4.7516 0.530957,9.48989 1.476546,14.14463 3.91808,19.71797 15.417753,37.90752 31.831612,49.57869 13.664985,9.85971 30.460165,15.31169 47.316015,15.29217 252.64685,0.004 505.29429,-0.009 757.94137,-0.0254 23.03158,-0.56132 45.63223,-11.49452 60.22459,-29.34729 10.055,-12.18562 16.51546,-27.36015 18.04115,-43.10257 0.7276,-8.00005 0.28416,-16.04018 0.41272,-24.05913 -0.0108,-139.88374 0.0176,-279.76789 -0.0707,-419.65138 -0.84328,-22.29232 -11.49014,-44.02129 -28.6282,-58.31004 -14.24596,-11.90677 -32.65189,-18.79436 -51.23946,-18.88623 -28.77758,-0.0535 -57.55529,-0.0262 -86.33292,-0.0274 z M 175.72427,268.8788 c 224.21141,0 448.42282,0 672.63422,0 C 736.23789,366.42363 624.11728,463.96846 511.99666,561.5133 399.87475,463.96846 287.75284,366.42363 175.63093,268.8788 Z m -68.72191,10.60806 c 89.14037,77.50463 178.27867,155.01478 267.41825,232.52153 -89.2185,77.57849 -178.437,155.15697 -267.6555,232.73545 0.25235,-38.28039 0.11351,-76.56183 0.15229,-114.84273 0.01,-116.82161 0.019,-233.64321 0.0286,-350.46481 z m 809.67162,0.33836 c 0.24136,9.7447 0.54051,19.49091 0.41599,29.23973 -0.0161,145.17444 -0.0323,290.34888 -0.0485,435.52332 C 827.88395,667.06164 738.72639,589.53502 649.56883,512.00839 738.60322,434.59002 827.63763,357.17164 916.67203,279.75328 Z M 414.77983,547.10151 c 30.9596,26.91583 61.91272,53.83857 92.89777,80.72427 1.8475,1.30174 4.30263,2.32491 6.52632,1.37447 3.05389,-1.52854 5.20541,-4.29972 7.88335,-6.34844 29.04856,-25.25529 58.09711,-50.51058 87.14567,-75.76586 79.71176,69.35003 159.42353,138.70006 239.13528,208.05009 -224.2503,0 -448.5006,0 -672.7509,0 79.7137,-69.35068 159.42741,-138.70136 239.14111,-208.05203 z" />
</svg>
