<?xml version="1.0" encoding="UTF-8" standalone="no"?>
<svg version="1.1" width="1024" height="1024" viewBox="0 0 1024 1024" xmlns="http://www.w3.org/2000/svg">
  <path d="m 387.9708,121.63352 c -1.33065,1.62585 -3.58765,1.87075 -5.54923,1.7204 -48.10159,0.0139 -96.20382,-0.047 -144.30495,0.10509 -22.88149,0.94424 -45.09845,12.34845 -59.18666,30.40695 -10.26132,12.95952 -16.42905,29.10967 -17.40305,45.61335 -0.0149,0.41196 -0.0673,1.25915 -0.0833,1.68772 -0.12807,4.91329 -0.0588,9.83013 -0.0882,14.74496 0.0102,35.62313 -0.002,71.24628 0.003,106.86941 -36.00758,31.96713 -72.017811,63.93128 -108.02641,95.89728 0.004,171.7311 0.01196,343.4624 0.05101,515.19337 0.609599,22.72739 11.237961,45.05642 28.727742,59.63138 14.472008,12.25987 33.404428,19.15757 52.382668,18.93077 10.34883,0.065 20.69796,-0.016 31.04692,0.023 242.09908,-0.012 484.19825,-0.017 726.29728,-0.034 7.91022,-0.1474 15.78418,-1.5559 23.29079,-4.0425 1.04336,-0.3522 2.32378,-0.7975 3.44471,-1.2317 2.54876,-0.9678 5.20315,-2.1519 7.53685,-3.3253 13.14267,-6.56029 24.36619,-16.84632 32.12738,-29.30886 2.353,-3.76299 4.39397,-7.71922 6.11971,-11.80811 0.17975,-0.46203 0.51455,-1.2419 0.74223,-1.83365 2.62063,-6.71146 4.35632,-13.77035 5.10361,-20.93767 0.0274,-0.35042 0.11619,-1.23739 0.1466,-1.58517 0.41584,-5.71524 0.2977,-11.45258 0.31639,-17.17878 -0.0603,-13.92096 0.003,-27.84214 -0.0155,-41.76324 0.0185,-153.57648 0.002,-307.15297 0.008,-460.72944 -36.00859,-31.96535 -72.01884,-63.92882 -108.0264,-95.89532 -0.015,-40.69727 0.0518,-81.39515 -0.11731,-122.09197 -0.0368,-0.67147 -0.0735,-1.34294 -0.11026,-2.01442 -0.0357,-0.35342 -0.10043,-1.2018 -0.14723,-1.74483 -0.98096,-10.75321 -4.19614,-21.27817 -9.25318,-30.81139 -0.18117,-0.33918 -0.57842,-1.05824 -0.84231,-1.54285 -6.01357,-10.80869 -14.54352,-20.20772 -24.76786,-27.17636 -12.74591,-8.73249 -28.04735,-13.78155 -43.51989,-13.99669 -6.47392,-0.0962 -12.94957,-0.0278 -19.42422,-0.0528 -42.16406,6.3e-4 -84.32813,0.001 -126.49219,0.002 C 595.96765,86.083115 553.97966,48.810846 511.99087,11.539482 470.65085,48.237491 429.31082,84.935502 387.9708,121.63352 Z M 513.32678,83.015659 c 15.11833,13.442406 30.23679,26.892061 45.3543,40.338261 -31.12484,0 -62.2497,0 -93.37454,0 15.56068,-13.84189 31.12337,-27.681548 46.68433,-41.523121 0.4453,0.394953 0.89061,0.789907 1.33591,1.18486 z M 242.03471,177.04345 c 180.43369,0.0138 360.86772,0.017 541.3012,0.0373 11.10872,0.44385 21.35667,8.47025 24.7243,19.02131 1.67988,4.7459 1.50579,9.85092 1.4525,14.80805 -6.5e-4,94.69344 -10e-4,189.38689 -0.002,284.08034 -37.16336,33.52167 -74.32043,67.03542 -111.4829,100.55825 -124.8708,0 -249.74159,0 -374.61239,0 -36.31336,-32.32493 -72.62835,-64.64802 -108.94056,-96.97424 0.005,-98.53702 0.0148,-197.07434 0.0568,-295.61116 0.5395,-11.1814 8.61705,-21.67184 19.43407,-24.73944 2.61361,-0.78361 5.34076,-1.17672 8.06885,-1.18038 z m 27.34793,145.28676 c 161.74078,0 323.48156,0 485.22234,0 0,-17.8952 0,-35.79039 0,-53.6856 -161.74078,0 -323.48156,0 -485.22234,0 0,17.89521 0,35.7904 0,53.6856 z m 0,108.96802 c 161.74078,0 323.48156,0 485.22234,0 0,-17.89585 0,-35.79171 0,-53.68756 -161.74078,0 -323.48156,0 -485.22234,0 0,17.89585 0,35.79171 0,53.68756 z m 596.59343,-34.60226 c 9.72216,8.64806 19.44679,17.29571 29.17035,25.94335 -10.83826,9.72028 -21.67712,19.43988 -32.51503,29.16055 0,-19.35928 0,-38.71855 0,-58.07783 1.11489,0.99131 2.22979,1.98262 3.34468,2.97393 z m -704.61983,1.50265 c 0,17.86708 0,35.73416 0,53.60125 -10.83835,-9.72091 -21.67821,-19.44012 -32.51699,-29.16055 10.83886,-9.63858 21.67949,-19.2752 32.51699,-28.91532 0,1.49154 0,2.98307 0,4.47462 z m -51.56698,82.77748 c 87.7119,77.60894 175.42541,155.21607 263.13537,232.82723 -88.12332,77.59797 -176.2497,155.19246 -264.37516,232.78801 -0.656,-4.71334 -1.63892,-9.38451 -2.03779,-14.1307 -0.20536,-3.08335 -0.01,-6.17581 -0.0626,-9.26364 0.0287,-41.10982 8.7e-4,-82.21972 0.009,-123.32957 -0.003,-107.28188 -0.006,-214.56376 -0.009,-321.84564 1.11358,0.98477 2.22716,1.96954 3.34075,2.95431 z m 807.7479,1.50658 c -2.4e-4,149.74706 0.009,299.49447 -0.0158,449.24131 -0.1296,3.69659 -1.00097,7.31215 -1.451,10.97111 -0.19926,1.30985 -1.67581,2.26189 -2.92543,1.72464 -0.96675,-0.38464 -1.53508,-1.34463 -2.3733,-1.93494 C 824.20177,866.25794 737.62941,790.03391 651.06107,713.8053 739.88479,635.20958 828.71051,556.61612 917.53719,478.02375 c 0,1.48631 0,2.97262 0,4.45893 z m -648.15452,57.78357 c 161.74078,0 323.48156,0 485.22234,0 0,-17.89585 0,-35.79171 0,-53.68756 -161.74078,0 -323.48156,0 -485.22234,0 0,17.89585 0,35.79171 0,53.68756 z m 119.63178,108.96606 c 83.16,0 166.32002,0 249.48002,0 -20.42851,18.42668 -40.85794,36.85236 -61.28518,55.28045 -17.47178,-0.02 -34.94686,0.0777 -52.41639,-0.11378 -3.90698,-0.48394 -7.85053,-0.11616 -11.77404,-0.24709 -22.65277,-0.14836 -45.30596,-0.22077 -67.9589,-0.33749 -20.44192,-18.19352 -40.88282,-36.38821 -61.32443,-54.58209 1.75964,0 3.51928,0 5.27892,0 z m 18.84008,108.96802 c 69.676,0 139.35199,0 209.028,0 77.32873,66.85533 154.65543,133.713 231.98174,200.57114 -224.58028,0 -449.16057,0 -673.74085,0 77.32692,-66.85817 154.65433,-133.7158 231.9837,-200.57114 0.24914,0 0.49827,0 0.74741,0 z" />
</svg>
