<?xml version="1.0" encoding="UTF-8" standalone="no"?>
<svg version="1.1" viewBox="0 0 1024 1024" width="1024" height="1024" xmlns="http://www.w3.org/2000/svg">
<path d="m 655.08806,284.06446 -3.60351,0.75 c 0.66605,10.16539 0.90603,20.38394 0.45312,30.48633 -0.6493,14.17853 -2.50734,28.37136 -5.21484,42.24024 -3.1062,15.97615 -7.41272,31.8626 -12.47852,47.19531 -3.2037,9.71637 -6.77833,19.37212 -10.58203,28.81055 -0.18009,0.44725 -0.39243,0.89189 -0.57422,1.33984 0.006,139.62485 0.006,279.25015 0.006,418.875 L 402.32439,899.8711 V 753.77931 c -10.60948,11.12888 -21.355,22.12843 -32.32617,32.90039 -2.7789,-2.79784 -5.55484,-5.59893 -8.33594,-8.39453 -7.67091,-7.69778 -15.21739,-15.50214 -22.71289,-23.35352 V 896.37892 L 138.98455,839.6504 c -0.003,-8.3e-4 -0.005,-0.003 -0.008,-0.004 -11.97738,-3.5977 -20.79687,-15.97719 -20.79687,-29.65625 V 437.37501 c -3.45972,-8.4384 -6.77952,-16.93076 -9.76367,-25.49219 -3.3911,-9.74529 -6.51039,-19.69625 -9.179693,-29.5957 -2.2859,-8.54003 -4.325062,-17.14979 -5.976562,-25.83594 -0.7749,-3.97745 -1.481532,-8.1035 -2.082032,-12.10351 -1.8594,-12.22957 -2.96029,-24.67778 -3.15039,-36.97852 -0.02444,-1.44883 0.02238,-2.8969 0.02148,-4.36133 -22.562227,17.35552 -34.716797,43.72885 -34.716797,72.66797 V 811.4629 c 0,41.01206 28.152592,78.56663 67.632814,89.62109 l 248.72266,69.58399 285.77734,-58.92188 201.92578,45.35938 -0.13867,-0.0332 c 6.11434,1.52859 13.70008,3.12109 20.57617,3.12109 20.33507,0 40.88479,-6.31552 58.17383,-20.44141 22.05382,-17.35003 34.61133,-44.10681 34.61133,-72.34375 V 430.14845 l -0.004,0.21094 c 1.57174,-44.00867 -28.57406,-80.50085 -70.87305,-89.90626 z m 32.85352,71.07813 197.20312,45.40039 c 13.97307,3.82856 23.56836,14.82559 23.56836,28.13476 v 438.73047 c 0,8.61363 -3.63015,17.18138 -11.12109,23.42383 -7.35232,6.12693 -15.52186,7.33891 -24.67383,6.05664 L 687.94158,853.8711 Z" /><path d="m 370.10295,53.332015 c -138.1628,0 -250.1833,112.020485 -250.1833,250.183375 0,187.63633 250.1833,437.81662 250.1833,437.81662 0,0 250.1835,-250.18027 250.1835,-437.8166 0,-138.16289 -112.0206,-250.183375 -250.1835,-250.183395 z m 0,125.089975 c 69.1128,0 125.09,55.98068 125.09,125.0934 0,69.05018 -55.9772,125.08999 -125.09,125.08999 -69.1126,0 -125.0899,-56.03981 -125.0899,-125.08999 0,-69.11272 55.9773,-125.0934 125.0899,-125.0934 z" /></svg>
