<?xml version="1.0" encoding="UTF-8" standalone="no"?>
<svg version="1.1" viewBox="0 0 1024 1024" width="1024" height="1024" xmlns="http://www.w3.org/2000/svg">
<path d="M 859.43198,230.2984 H 163.1234 c -60.67419,0 -109.791393,49.1172 -109.791393,109.79139 v 343.82042 c 0,60.67419 49.117203,109.79139 109.791393,109.79139 h 697.7532 c 60.67419,0 109.79139,-49.1172 109.79139,-109.79139 V 340.08979 c 0,-60.67419 -50.56182,-109.79139 -111.23601,-109.79139 z m 60.67419,453.61181 c 0,33.22634 -26.00323,59.22957 -59.22957,59.22957 H 163.1234 c -33.22634,0 -59.22957,-26.00323 -59.22957,-59.22957 V 340.08979 c 0,-33.22634 27.44785,-59.22957 59.22957,-59.22957 h 697.7532 c 33.22634,0 59.22957,27.44785 59.22957,59.22957 z" /><path d="m 582.06424,373.31613 c -28.89247,0 -56.34032,8.66775 -78.00967,24.55861 -20.22473,-14.44624 -44.78333,-20.22473 -70.78656,-20.22473 -73.6758,0 -134.34999,60.67419 -134.34999,134.34999 0,73.6758 60.67419,134.34999 134.34999,134.34999 24.5586,0 49.11721,-7.22311 70.78656,-20.22473 23.11398,15.89086 49.1172,24.55861 78.00967,24.55861 76.56506,0 138.68387,-62.11882 138.68387,-138.68387 0,-76.56505 -62.11881,-138.68387 -138.68387,-138.68387 z m 2.88925,242.69677 c -18.78011,0 -36.11559,-5.7785 -50.56182,-13.00161 21.66935,-24.5586 36.11559,-54.8957 36.11559,-91.01129 -1.44463,-36.11559 -14.44624,-67.89731 -36.11559,-91.01129 15.89086,-8.66774 31.78171,-13.00161 50.56182,-13.00161 56.34032,0 104.0129,46.22796 104.0129,104.0129 -1.44462,57.78494 -47.67258,104.0129 -104.0129,104.0129 z" />
</svg>
