<?xml version="1.0" encoding="UTF-8" standalone="no"?>
<svg version="1.1" viewBox="0 0 1024 1024" width="1024" height="1024" xmlns="http://www.w3.org/2000/svg">
<path d="M 490.37175,315.85417 H 239.7824 c -14.91604,0 -26.84886,11.93282 -26.84886,26.84886 0,14.91603 11.93282,26.84886 26.84886,26.84886 h 250.58935 c 14.91603,0 26.84886,-11.93283 26.84886,-26.84886 0,-14.91604 -13.42443,-26.84886 -26.84886,-26.84886 z" /><path d="m 239.7824,485.89694 h 114.85345 c 14.91603,0 26.84886,-11.93282 26.84886,-26.84886 0,-14.91603 -11.93283,-26.84886 -26.84886,-26.84886 H 239.7824 c -14.91604,0 -26.84886,11.93283 -26.84886,26.84886 0,14.91604 11.93282,26.84886 26.84886,26.84886 z" /><path d="M 432.19922,551.52749 H 238.29079 c -14.91603,0 -26.84886,11.93282 -26.84886,26.84886 0,14.91603 11.93283,26.84886 26.84886,26.84886 h 193.90843 c 14.91604,0 26.84886,-11.93283 26.84886,-26.84886 0,-14.91604 -11.93282,-26.84886 -26.84886,-26.84886 z" /><path d="m 755.87714,293.48012 c -34.30688,-4.47481 -65.63055,11.93282 -82.03818,41.76489 -7.45802,13.42443 -1.49161,28.34046 10.44122,35.79848 13.42443,7.45801 28.34046,1.4916 35.79848,-10.44122 5.96641,-10.44123 17.89924,-16.40764 29.83207,-14.91604 13.42443,1.49161 23.86565,11.93283 25.35725,23.86566 1.49161,11.93282 -4.47481,22.37404 -14.91603,26.84885 -22.37405,10.44123 -38.78169,37.29009 -38.78169,62.64734 v 19.39085 c 0,14.91603 11.93283,26.84886 26.84886,26.84886 14.91604,0 26.84886,-11.93283 26.84886,-26.84886 v -19.39085 c 0,-4.47481 5.96642,-13.42443 10.44123,-14.91603 29.83206,-14.91603 47.7313,-46.2397 43.25649,-80.54658 -5.96641,-37.29008 -35.79848,-65.63054 -73.08856,-70.10535 z" /><path d="m 746.92752,556.0023 c -22.37405,0 -38.78169,17.89924 -38.78169,38.78168 0,22.37405 17.89924,38.78169 38.78169,38.78169 22.37405,0 38.78169,-17.89924 38.78169,-38.78169 1.4916,-20.88244 -16.40764,-38.78168 -38.78169,-38.78168 z" /><path d="M 858.79777,175.64346 H 163.71063 c -61.15574,0 -110.378645,49.22291 -110.378645,110.37864 V 782.726 c 0,23.86565 11.932826,44.7481 32.815272,56.68092 10.441224,5.96642 20.882443,8.94962 32.815273,8.94962 11.93283,0 22.37405,-2.9832 32.81527,-8.94962 L 324.80379,739.4695 c 1.4916,-1.4916 4.47481,-1.4916 5.96641,-1.4916 h 529.51917 c 61.15574,0 110.37864,-49.22291 110.37864,-110.37864 V 287.5137 c 0,-61.15573 -50.71451,-111.87024 -111.87024,-111.87024 z m 59.66413,453.4474 c 0,32.81527 -26.84886,58.17253 -58.17253,58.17253 H 329.2786 c -11.93283,0 -22.37405,2.9832 -32.81528,8.94962 l -171.53438,99.93742 c -5.96641,2.98321 -11.93282,1.4916 -13.42443,0 -1.4916,-1.4916 -5.96641,-4.47481 -5.96641,-11.93283 V 287.5137 c 0,-32.81527 26.84886,-58.17252 58.17253,-58.17252 h 695.08714 c 32.81527,0 58.17253,26.84885 58.17253,58.17252 v 341.57716 z" />
</svg>
