<?xml version="1.0" encoding="UTF-8" standalone="no"?>
<svg version="1.1" viewBox="0 0 1024 1024" width="1024" height="1024" xmlns="http://www.w3.org/2000/svg">
<path d="m 142.12057,183.33412 c -15.56471,0.37509 -31.00017,4.87025 -44.332428,12.91052 -16.791838,10.04877 -30.22959,25.60458 -37.643837,43.72198 -4.700921,11.3432 -6.973521,23.65526 -6.803422,35.92559 0.0036,158.11199 -0.0071,316.22404 0.0053,474.33598 0.05748,15.64262 4.006861,31.32296 11.834626,44.9004 7.666203,13.4293 19.003882,24.63614 32.2463,32.56584 7.407171,4.37214 15.477161,7.57351 23.770391,9.81743 11.14587,2.98275 22.88264,4.07596 34.33528,2.4065 12.11151,-1.70602 23.74648,-5.95567 34.62298,-11.46109 43.51042,-25.21041 87.01152,-50.43838 130.52776,-75.63782 5.53603,-2.78182 11.71769,-4.36938 17.93349,-4.18621 180.4462,-0.003 360.89249,0.007 541.33864,-0.005 15.59899,-0.04 31.1512,-4.23705 44.66885,-12.01787 16.39567,-9.38862 29.77345,-23.95653 37.66756,-41.12721 5.6512,-12.1745 8.48528,-25.62209 8.33387,-39.03885 0.003,-127.39928 -0.006,-254.79871 0.005,-382.1979 0.4366,-14.83975 -2.99109,-29.77313 -9.90409,-42.91484 -8.70006,-16.67389 -22.85567,-30.39615 -39.71939,-38.69973 -12.70023,-6.31037 -26.91081,-9.48955 -41.08481,-9.32691 -245.27063,0.003 -490.54134,-0.005 -735.81193,0.004 -0.66339,0.008 -1.32677,0.0169 -1.99015,0.0254 z m 3.82312,55.92922 c 245.61886,0.002 491.23778,-0.005 736.8566,0.004 9.01874,0.0153 18.00817,3.59358 24.42561,9.95823 6.57677,6.38786 10.32926,15.479 10.40436,24.62662 0.0157,109.44548 0.002,218.89114 0.007,328.33669 0,17.78653 0,35.57306 0,53.35959 -0.47343,0.14852 -1.60024,-0.36412 -1.46708,0.39824 0.0776,4.53066 -0.46193,9.10113 -1.97736,13.38804 -3.08619,9.07622 -10.14605,16.69818 -18.97337,20.44482 -4.99238,2.18762 -10.48706,3.05695 -15.91726,2.8956 -180.28092,0.003 -360.56191,-0.007 -540.84278,0.005 -12.37285,0.12576 -24.65103,2.97007 -36.03244,7.76307 -4.52752,1.87847 -8.84582,4.21207 -13.0479,6.72653 -42.21824,24.46161 -84.42726,48.94058 -126.65126,73.39133 -8.02284,4.03377 -17.44808,5.26129 -26.20525,3.19661 -6.56263,-1.56034 -12.98329,-4.59962 -17.55031,-9.67969 -5.32521,-5.79987 -7.91435,-13.69882 -8.15758,-21.48191 -0.0683,-8.83807 -0.0101,-17.6778 -0.0295,-26.5165 0.003,-150.65968 -0.006,-301.31944 0.004,-451.97907 0.0198,-8.57176 3.23958,-17.12048 9.03817,-23.45487 0.29107,-0.30771 0.82436,-0.88877 1.23025,-1.28493 6.46407,-6.48218 15.58032,-10.11531 24.71404,-10.0951 0.0573,1.3e-4 0.11463,-0.002 0.17196,-0.002 z" /><path d="M 701.32669,363.50141 H 303.33515 c -14.85043,0 -26.73078,11.88035 -26.73078,26.73078 0,14.85043 11.88035,26.73078 26.73078,26.73078 h 399.47659 c 14.85043,0 26.73077,-11.88035 26.73077,-26.73078 0,-14.85043 -13.36539,-26.73078 -28.21582,-26.73078 z" /><path d="M 638.95488,531.31128 H 303.33515 c -14.85043,0 -26.73078,11.88035 -26.73078,26.73078 0,14.85043 11.88035,26.73077 26.73078,26.73077 h 337.10477 c 14.85044,0 26.73079,-11.88034 26.73079,-26.73077 0,-14.85043 -13.3654,-26.73078 -28.21583,-26.73078 z" />
</svg>
