<?xml version="1.0" encoding="UTF-8" standalone="no"?>
<svg version="1.1" viewBox="0 0 1024 1024" width="1024" height="1024" xmlns="http://www.w3.org/2000/svg">
<path d="m 506.65927,0.00670985 c -6.13338,0.0663 -12.2584,0.193449 -18.33913,0.431222 -11.33385,0.436683 -22.5652,1.19855895 -33.86345,2.32045195 -8.99317,0.909577 -18.11308,2.038534 -27.10512,3.41153 -7.88433,1.195581 -15.9118,2.622278 -23.73295,4.1966492 -21.9698,4.427724 -43.61706,10.352583 -64.78372,17.804862 -14.78242,5.204048 -29.40775,11.212786 -43.63346,17.899259 -8.06993,3.796846 -16.15353,7.874137 -24.03669,12.153266 -6.60318,3.577286 -13.26179,7.394627 -19.68896,11.287077 -8.79548,5.332474 -17.44492,10.944894 -25.85341,16.787754 -31.16482,21.624109 -59.97228,46.950279 -86.0649,74.598329 -19.996,21.21292 -38.54357,43.94478 -54.912742,68.12919 -4.3423,6.40116 -8.59962,13.00698 -12.61898,19.58215 -17.823272,29.15149 -32.546403,60.20407 -43.707136,92.50174 -3.697065,10.69445 -7.060788,21.66398 -10.001249,32.65143 -1.530093,5.72863 -3.009255,11.68701 -4.323172,17.47653 -1.536725,6.74466 -2.905123,13.38133 -4.1521287,20.16624 -1.010007,5.40824 -1.925269,10.98972 -2.76908,16.49517 -0.268797,1.86273 -0.587193,3.96837 -0.84193,5.85426 -2.138879,15.26324 -3.514365,30.62583 -4.370191,46.01213 -0.250405,4.81477 -0.449569,9.75737 -0.551097,14.57984 -0.42711704,16.9032 -0.04885,33.81186 0.02442,50.71701 1.227694,159.64574 2.455387,319.29148 3.683081,478.9372 23.1661717,0 46.3323427,0 69.4985127,0 0.009,-173.80984 0.0206,-347.61981 0.0742,-521.42958 0.66412,-48.80419 8.45637,-97.65261 24.52815,-143.79712 16.760352,-48.27557 42.538152,-93.30385 75.012162,-132.71928 24.11753,-29.3752 51.57589,-56.06035 81.99344,-78.87352 35.0154,-26.16419 74.14264,-46.9309 115.70365,-60.557229 39.83518,-13.1568 81.65107,-20.009993 123.55299,-21.258038 39.78332,-1.247703 79.78673,2.192767 118.5891,11.177858 36.06515,8.37972 71.04015,21.57956 103.45144,39.508729 36.78477,20.24461 70.26335,46.27938 99.71401,76.15841 32.11659,32.49728 59.85468,69.47538 80.92989,110.06296 14.51986,27.89598 25.92637,57.41096 33.90098,87.83317 10.46571,39.60662 15.24168,80.61789 15.24989,121.55371 0.0738,17.4937 -0.0182,34.98762 0.0219,52.48142 7e-4,153.28618 0.001,306.57236 0.002,459.85851 25.21694,0 50.43384,0 75.65071,0 -0.01,-173.92476 -0.021,-347.84965 -0.072,-521.77435 -0.1313,-9.04 -0.4464,-18.02878 -1.0009,-27.01823 -0.8186,-13.43238 -2.132,-26.9471 -3.9611,-40.24001 -2.7355,-19.94146 -6.654,-39.7351 -11.7838,-59.13423 -3.9698,-14.99226 -8.69787,-29.91286 -14.11857,-44.43831 -11.7164,-31.47338 -27.0232,-61.90724 -45.17578,-90.21833 -9.67269,-15.11026 -20.16421,-29.68346 -31.38028,-43.7293 -12.52782,-15.68364 -26.073,-30.84188 -40.26172,-45.16693 C 847.89824,124.80832 817.94906,99.770651 785.44928,78.657511 774.10342,71.259741 762.30628,64.25987 750.48074,57.890374 731.54252,47.70116 711.91366,38.792791 691.76452,31.275153 681.43057,27.422042 670.78225,23.865534 660.20101,20.738971 645.43637,16.378141 630.45915,12.744349 615.35363,9.7756888 595.47504,5.9175168 575.2352,3.2189488 554.99383,1.6701898 538.93221,0.42823185 522.8097,-0.06445615 506.65927,0.00670985 Z" />
<path d="m 311.12893,234.664 c -34.80276,-0.0107 -63.74713,38.93867 -66.70834,75.37951 -9.60407,162.60489 -31.13802,509.19514 -25.30824,528.87938 5.82987,19.68414 40.01302,28.52893 57.50245,36.45577 L 173.28373,998.34959 C 169.05034,1009.4877 178.60968,1024 190.10829,1024 c 20.64488,-6.7492 26.02216,-19.2489 41.39852,-37.15747 h 560.89813 c 9.82068,9.49338 20.55049,27.70437 31.66616,34.85637 14.32703,8.1341 32.38141,-7.7831 26.53965,-23.35794 -36.10313,-44.48934 -64.86373,-77.25739 -104.75505,-123.68459 21.75743,-9.79461 57.46538,-23.9377 63.87076,-44.40287 6.40547,-20.46525 -17.93859,-351.87651 -30.60337,-521.97448 -3.39513,-32.37901 -30.8736,-73.30088 -66.35763,-73.60298 z m 132.19065,28.17681 h 137.36196 c 9.75622,0 17.61051,7.85429 17.61051,17.61051 v 17.61051 c 0,9.75622 -7.85429,17.61051 -17.61051,17.61051 H 443.31958 c -9.75623,0 -17.61051,-7.85429 -17.61051,-17.61051 v -17.61051 c 0,-9.75622 7.85428,-17.61051 17.61051,-17.61051 z m 235.21379,81.29038 c 15.20235,0.0392 29.88512,16.43259 30.61199,29.37379 l 6.65211,190.46005 c -7.60722,14.51186 -38.04399,28.13535 -78.56629,35.39128 -93.70719,10.56445 -167.45041,9.7492 -257.80306,-1.06282 -42.9994,-8.67014 -69.71393,-22.81944 -73.96581,-39.106 l 6.59188,-185.67392 c 0.91064,-11.80641 17.98191,-29.1372 30.07893,-29.37377 z M 341.36433,699.18072 c 22.97203,0 41.59452,18.62249 41.59452,41.5945 0,22.97201 -18.62249,41.59451 -41.59452,41.59451 -22.97203,0 -41.59453,-18.6225 -41.59453,-41.59451 0,-22.97201 18.6225,-41.5945 41.59453,-41.5945 z m 340.61893,0 c 22.97203,0 41.59444,18.62249 41.59444,41.5945 0,22.97201 -18.62241,41.59451 -41.59444,41.59451 -22.97202,0 -41.59452,-18.6225 -41.59452,-41.59451 0,-22.97201 18.6225,-41.5945 41.59452,-41.5945 z m -385.3572,211.572 h 430.67846 c 10.32355,12.03942 20.54927,24.16109 30.78053,36.2787 -165.23394,0.99975 -327.89525,0.70319 -492.23951,0 10.19657,-12.14694 20.4915,-24.20996 30.78052,-36.2787 z" /></svg>
