<?xml version="1.0" encoding="UTF-8" standalone="no"?>
<svg version="1.1" width="1024" height="1024" viewBox="0 0 1024 1024" xmlns="http://www.w3.org/2000/svg">
  <path d="M 282.62695 53.332031 C 240.4295 53.332031 206.2207 87.579884 206.2207 129.77734 L 206.2207 894.22266 C 206.2207 936.42013 240.4295 970.66797 282.62695 970.66797 L 741.29492 970.66797 C 783.5306 970.66797 817.7793 936.42013 817.7793 894.22266 L 817.7793 129.77734 C 817.7793 87.579884 783.5306 53.332031 741.29492 53.332031 L 282.62695 53.332031 z M 412 101.33203 L 612 101.33203 L 612 133.33203 L 412 133.33203 L 412 101.33203 z M 270.96289 181.41016 L 753.75195 181.41016 L 753.75195 842.86133 L 270.16016 842.86133 L 270.96289 181.41016 z" />
  <path d="M 511.99997,332 C 439.70544,332 381.0901,390.61538 381.0901,462.90991 381.0901,561.0917 511.99997,692 511.99997,692 c 0,0 130.90993,-130.90829 130.90993,-229.09009 0,-72.29452 -58.61537,-130.9099 -130.90993,-130.90991 z m 0,65.45406 c 36.16366,0 65.45409,29.29222 65.45409,65.45585 0,36.1309 -29.29043,65.45406 -65.45408,65.45406 -36.16363,0 -65.45407,-29.32316 -65.45407,-65.45406 0,-36.16363 29.29044,-65.45585 65.45406,-65.45585 z" />
</svg>
