<?xml version="1.0" encoding="UTF-8" standalone="no"?>
<svg viewBox="0 0 1024 1024" version="1.1" width="1024" height="1024" xmlns="http://www.w3.org/2000/svg">
  <path d="m 569.27472,167.999 c 31.7126,0 57.3335,-25.62091 57.3335,-57.3335 0,-31.712592 -25.6209,-57.3335 -57.3335,-57.3335 -31.71259,0 -57.3335,25.620908 -57.3335,57.3335 0,31.71259 25.62091,57.3335 57.3335,57.3335 z M 969.71339,146.31977 C 965.59254,130.91139 950.005,121.95303 934.59662,126.07388 l -860.002498,229.334 c -15.229211,4.12084 -24.366738,19.70839 -20.245892,35.11677 3.404176,12.72087 14.870876,21.14173 27.591746,21.14173 2.508341,0 5.016682,-0.35834 7.345855,-0.89584 L 483.27447,305.5994 V 454.6665 H 167.94022 c -31.71259,0 -57.33349,25.62091 -57.33349,57.3335 v 401.3345 c 0,31.71259 25.6209,57.3335 57.33349,57.3335 h 688.002 c 31.7126,0 57.3335,-25.62091 57.3335,-57.3335 V 512 c 0,-31.71259 -25.6209,-57.3335 -57.3335,-57.3335 H 540.60797 V 290.37019 L 949.28833,181.43654 c 15.40838,-4.12085 24.36674,-19.88756 20.42506,-35.11677 z M 368.60747,741.334 H 196.60697 V 569.3335 h 172.0005 z m 286.6675,-172.0005 h 172.0005 V 741.334 h -172.0005 z m -57.3335,0 V 741.334 H 425.94097 V 569.3335 Z M 397.27422,225.3325 c 31.7126,0 57.3335,-25.62091 57.3335,-57.3335 0,-31.71259 -25.6209,-57.3335 -57.3335,-57.3335 -31.71259,0 -57.3335,25.62091 -57.3335,57.3335 0,31.71259 25.62091,57.3335 57.3335,57.3335 z" />
</svg>
