<?xml version="1.0" encoding="UTF-8" standalone="no"?>
<svg width="1024" height="1024" viewBox="0 0 1024 1024" xmlns="http://www.w3.org/2000/svg" version="1.1">
<path d="M 186.88672 55.671875 C 113.12603 55.671875 53.332031 115.46588 53.332031 189.22656 L 53.332031 834.77344 C 53.332031 908.53648 113.12603 968.32812 186.88672 968.32812 L 837.11328 968.32812 C 910.87161 968.32812 970.66797 908.53648 970.66797 834.77344 L 970.66797 189.22656 C 970.66797 115.46588 910.87397 55.671875 837.11328 55.671875 L 186.88672 55.671875 z M 511.48828 192.07227 C 602.4035 192.07227 676.10352 265.77465 676.10352 356.6875 C 676.10352 447.60272 602.4035 521.30859 511.48828 521.30859 C 420.57307 521.30859 346.875 447.60272 346.875 356.6875 C 346.875 265.77465 420.57307 192.07227 511.48828 192.07227 z M 511.48828 288.64062 C 473.90711 288.64063 443.44141 319.10827 443.44141 356.68945 C 443.44141 394.27063 473.90711 424.74023 511.48828 424.74023 C 549.06946 424.74023 579.53711 394.27063 579.53711 356.68945 C 579.53711 319.10827 549.06946 288.64062 511.48828 288.64062 z M 367.92578 526.30664 C 377.95617 526.16525 388.09434 529.37747 396.5332 536.14258 C 396.94074 536.47238 439.95265 568.78493 509.25391 568.83203 C 578.55753 568.78491 620.6784 536.47238 621.08594 536.14258 C 640.37477 520.67948 668.54081 523.77838 684.00391 543.0625 C 699.46937 562.34897 696.372 590.51891 677.08789 605.98438 C 674.99834 607.65931 635.5074 638.86758 569.60547 652.29297 L 669.08008 750.88281 C 686.57387 768.3483 686.59635 796.68789 669.13086 814.18164 C 651.66538 831.67307 623.3305 831.70067 605.83203 814.23047 L 509.25586 720.18555 L 421.53906 813.625 C 412.75684 822.73466 401.04134 827.31836 389.31445 827.31836 C 378.12938 827.31836 366.93563 823.15397 358.25 814.7793 C 340.45471 797.62007 339.93842 769.28552 357.09766 751.49023 L 451.51953 652.8125 C 383.7707 639.70278 342.64711 607.68286 340.5293 605.98438 C 321.24518 590.51892 318.14783 562.34897 333.61328 543.0625 C 342.31127 532.21518 355.02957 526.48843 367.92578 526.30664 z" />
</svg>
