<?xml version="1.0" encoding="UTF-8" standalone="no"?>
<svg version="1.1" viewBox="0 0 1024 1024" width="1024" height="1024" xmlns="http://www.w3.org/2000/svg">
<path d="m 936.36114,441.89464 -35.79848,-28.34046 c -11.93283,-8.94962 -16.40764,-23.86565 -13.42443,-37.29008 l 11.93283,-44.7481 c 7.45801,-25.35726 1.4916,-52.20611 -13.42443,-74.58016 -16.40764,-22.37405 -41.7649,-37.29009 -71.59696,-38.78169 l -47.73131,-2.98321 c -16.40763,-1.4916 -29.83206,-10.44122 -35.79848,-23.86565 L 712.62064,149.5404 c -10.44122,-23.86565 -31.32367,-43.2565 -56.68092,-52.206117 -26.84886,-8.94962 -56.68093,-5.966414 -80.54658,8.949617 l -40.27329,23.86566 c -13.42443,8.94961 -31.32367,8.94961 -44.7481,0 L 450.09846,106.2839 C 426.23281,91.367869 396.40074,88.384663 369.55189,97.334283 344.19463,106.2839 323.31218,124.18314 312.87096,149.5404 l -17.89924,41.76489 c -5.96641,13.42443 -19.39084,23.86565 -35.79848,23.86565 l -47.7313,2.98321 c -28.34047,1.4916 -55.18933,16.40764 -71.59696,38.78169 -14.91604,22.37405 -20.88245,49.2229 -13.42443,74.58016 l 11.93282,44.7481 c 4.47481,13.42443 -1.4916,28.34046 -13.42443,37.29008 L 87.638862,441.89464 C 65.264812,459.79388 53.331986,485.15114 53.331986,512 c 0,26.84886 11.932826,52.20612 34.306876,70.10536 l 37.290078,28.34046 c 11.93283,8.94962 16.40764,23.86565 13.42443,37.29008 l -11.93282,44.7481 c -7.45802,25.35726 -1.49161,52.20611 13.42443,74.58016 16.40763,22.37405 41.76489,37.29009 71.59696,38.78169 l 47.7313,2.98321 c 16.40764,1.4916 29.83207,10.44122 35.79848,23.86565 l 17.89924,41.76489 c 10.44122,23.86565 31.32367,43.2565 56.68093,52.20612 10.44122,2.9832 19.39084,4.47481 29.83206,4.47481 17.89924,0 34.30688,-4.47481 49.22291,-13.42443 l 40.27329,-23.86566 c 13.42443,-8.94961 31.32367,-8.94961 44.7481,0 l 40.27329,23.86566 c 23.86565,14.91603 53.69772,17.89924 80.54658,8.94962 25.35725,-8.94962 46.2397,-26.84886 56.68092,-52.20612 l 17.89924,-41.76489 c 5.96641,-13.42443 19.39084,-23.86565 35.79848,-23.86565 l 47.73131,-2.98321 c 28.34046,-1.4916 55.18932,-16.40764 71.59695,-38.78169 14.91604,-22.37405 20.88245,-49.2229 13.42443,-74.58016 l -11.93282,-44.7481 c -4.47481,-13.42443 1.4916,-28.34046 13.42443,-37.29008 l 37.29008,-28.34046 c 22.37405,-17.89924 34.30688,-43.2565 34.30688,-70.10536 0,-26.84886 -11.93283,-52.20612 -34.30688,-70.10536 z m -31.32367,98.44582 -37.29008,28.34047 c -28.34047,22.37404 -40.27329,58.17252 -31.32367,92.4794 l 11.93282,44.7481 c 2.98321,10.44122 1.49161,20.88245 -5.96641,29.83206 -7.45802,10.44123 -19.39084,16.40764 -31.32367,16.40764 l -47.7313,2.98321 c -35.79848,1.4916 -67.12215,23.86565 -80.54658,56.68092 l -17.89924,43.2565 c -4.47481,10.44122 -13.42443,17.89924 -25.35726,22.37405 -11.93282,4.47481 -25.35725,2.98321 -37.29008,-4.47481 l -40.27329,-23.86565 c -29.83207,-17.89924 -68.61375,-17.89924 -99.93742,0 L 423.2496,872.968 c -10.44122,5.96641 -23.86565,7.45802 -37.29008,4.47481 -11.93282,-4.47481 -20.88244,-11.93283 -25.35725,-22.37405 l -17.89924,-41.76489 c -13.42443,-32.81528 -44.7481,-53.69772 -80.54658,-56.68093 l -47.73131,-2.98321 c -13.42443,-1.4916 -25.35725,-7.45801 -31.32367,-16.40763 -5.96641,-8.94962 -8.94962,-19.39084 -5.96641,-29.83207 l 11.93283,-44.7481 c 8.94962,-34.30687 -2.98321,-70.10535 -31.32367,-92.4794 l -37.29009,-28.34046 c -8.94962,-7.45802 -14.91603,-17.89924 -14.91603,-28.34047 0,-11.93282 4.47481,-20.88244 14.91603,-28.34046 l 37.29009,-28.34046 c 28.34046,-22.37405 40.27329,-58.17253 31.32367,-92.47941 l -11.93283,-44.7481 c -2.98321,-10.44122 -1.4916,-20.88244 5.96641,-29.83206 7.45802,-10.44122 19.39085,-16.40764 31.32367,-16.40764 l 47.73131,-2.9832 c 35.79848,-1.49161 67.12215,-23.86566 80.54658,-56.68093 l 17.89924,-44.7481 c 4.47481,-10.44122 13.42443,-17.89924 25.35725,-22.37405 4.47481,-1.4916 8.94962,-2.98321 13.42443,-2.98321 7.45802,0 16.40764,1.49161 22.37405,5.96642 l 40.27329,23.86565 c 29.83207,17.89924 68.61375,17.89924 99.93742,0 L 602.242,151.032 c 10.44122,-5.96641 23.86565,-7.45802 37.29008,-4.47481 11.93283,4.47481 20.88245,11.93283 25.35726,22.37405 l 17.89924,41.76489 c 13.42443,32.81528 44.7481,53.69772 80.54658,56.68093 l 47.7313,2.98321 c 13.42443,1.4916 25.35726,7.45801 31.32367,16.40763 5.96641,8.94962 8.94962,19.39084 5.96641,29.83207 l -11.93282,44.7481 c -8.94962,34.30687 2.9832,70.10535 31.32367,92.4794 l 37.29008,28.34046 c 8.94962,7.45802 14.91603,17.89924 14.91603,28.34047 0,13.42443 -5.96641,22.37405 -14.91603,29.83206 z" /><path d="m 648.4817,374.7725 c -10.44122,-10.44123 -26.84886,-10.44123 -37.29008,0 L 377.0099,610.44582 c -10.44122,10.44122 -10.44122,26.84886 0,37.29008 4.47481,4.47481 11.93283,7.45802 17.89924,7.45802 5.96641,0 13.42443,-2.98321 17.89924,-7.45802 L 648.4817,412.06258 c 10.44123,-10.44122 10.44123,-26.84886 0,-37.29008 z" /><circle cx="414.29999" cy="413.55417" r="58.172531" /><circle cx="611.19159" cy="608.95422" r="58.172531" />
</svg>
