<?xml version="1.0" encoding="UTF-8" standalone="no"?>
<svg version="1.1" viewBox="0 0 1024 1024" width="1024" height="1024" xmlns="http://www.w3.org/2000/svg">
<path d="m 480.00098,53.332031 c -16.88878,0 -32.31641,14.013696 -32.31641,32.318359 v 4.333985 H 367.3291 c -31.35399,0 -56.7539,25.598095 -56.7539,58.109375 v 13.83789 h -80.62305 c -45.10404,0 -81.1875,37.75162 -81.1875,83.90235 v 576.93164 c 0,46.15073 36.08346,83.90234 81.1875,83.90234 h 213.2832 v 32 c 0,17.728 14.272,32 32,32 h 368 c 17.728,0 32,-14.272 32,-32 v -476 c 0,-17.728 -14.272,-32 -32,-32 h -32 V 244.47656 c 0,-46.15073 -36.25668,-82.54492 -81.18554,-82.54492 h -81.98242 v -15.19336 c 0,-31.354 -25.13713,-58.111327 -56.75391,-58.111327 H 510.96192 V 85.65039 c 0,-17.779136 -14.07214,-32.318359 -30.96094,-32.318359 z M 375.21192,151.9043 h 104.78906 106.14453 v 39.62891 39.63085 H 375.21192 Z m -145.25977,71.94922 h 81.98242 v 13.83593 c 0,31.35401 25.13519,58.10938 56.75196,58.10938 h 225.34375 c 31.35398,0 56.75195,-25.59808 56.75195,-58.10938 v -13.83593 h 79.26758 c 8.84507,0 17.9082,8.2747 17.9082,20.62304 V 430.66797 H 475.23535 c -17.728,10e-6 -32,14.272 -32,32 v 379.36524 h -213.2832 c -8.84507,0 -17.91017,-8.2767 -17.91015,-20.625 V 244.47656 c 0,-11.11029 7.75538,-20.62304 17.91015,-20.62304 z m 277.2832,270.81445 h 304 v 412 h -304 z" />
</svg>
