<?xml version="1.0" encoding="UTF-8" standalone="no"?>
<svg width="1024" height="1024" viewBox="0 0 1024 1024" xmlns="http://www.w3.org/2000/svg" version="1.1">
<path d="M 512 53.332031 C 259.8792 53.332031 53.332031 259.87923 53.332031 512 C 53.332031 764.12077 259.8792 970.66797 512 970.66797 C 764.1208 970.66797 970.66797 764.12077 970.66797 512 C 970.66797 259.87923 764.1208 53.332031 512 53.332031 z M 358 282 L 438 282 C 451.29598 282 462 292.70402 462 306 L 462 718 C 462 731.29598 451.29598 742 438 742 L 358 742 C 344.70402 742 334 731.29598 334 718 L 334 306 C 334 292.70402 344.70402 282 358 282 z M 586 282 L 666 282 C 679.29599 282 690 292.70401 690 306 L 690 718 C 690 731.29599 679.29599 742 666 742 L 586 742 C 572.70401 742 562 731.29599 562 718 L 562 306 C 562 292.70401 572.70401 282 586 282 z" />
</svg>
