<?xml version="1.0" encoding="UTF-8" standalone="no"?>
<svg version="1.1" viewBox="0 0 1024 1024" width="1024" height="1024" xmlns="http://www.w3.org/2000/svg">
<path d="M 863.53229,316.27211 C 823.64811,505.35264 698.08683,607.27886 494.23439,607.27886 h -82.72273 l -47.27013,305.77866 h -44.31575 l -5.90877,32.49821 c -1.47719,11.81754 8.86315,25.11226 20.68068,25.11226 h 147.71916 c 16.24911,0 32.49822,-11.81753 35.4526,-29.54383 10.90659,-66.92182 21.28029,-135.91393 29.54384,-193.5121 1.47719,-16.24911 16.2491,-29.54383 35.45259,-29.54383 172.4899,-7.93614 275.63715,-95.65655 310.21024,-226.01032 5.36555,-60.71105 8.42033,-137.82164 -29.54383,-175.7858 z" /><path d="m 370.15029,598.41571 c 1.47719,-20.68068 20.68069,-35.4526 39.88418,-35.4526 h 82.72273 c 163.96826,0 291.00674,-66.47362 330.89091,-259.98572 10.02942,-90.98928 2.57013,-138.37503 -38.40698,-180.21738 C 729.48288,64.122301 641.55344,53.541665 568.09397,53.332008 h -282.1436 c -20.68068,0 -36.92979,14.771916 -39.88417,32.498215 L 127.89087,837.72075 c -1.47719,16.24911 8.86315,29.54383 25.11226,29.54383 h 174.30861 c 0,0 36.40515,-228.60885 42.83855,-268.84887 z" />
</svg>
