<?xml version="1.0" encoding="UTF-8" standalone="no"?>
<svg version="1.1" width="1024" height="1024" viewBox="0 0 1024 1024" xmlns="http://www.w3.org/2000/svg">
  <path d="M 889.73762,81.929829 C 851.60973,43.801952 789.57378,43.654496 750.87068,82.357593 L 101.11252,732.11575 100.56061,734.8726 53.402629,970.668 291.95353,922.95676 941.71169,273.1986 c 38.3768,-38.37683 38.50763,-100.78704 0.4291,-138.86559 z m 7.4987,96.902841 c 13.86995,13.83125 13.95494,36.00112 0.19837,49.77317 L 827.1747,298.9495 724.82291,196.59772 795.00194,126.40789 c 13.83327,-13.83603 35.88549,-13.74067 49.81635,0.15249 z M 680.28277,241.14325 782.65885,343.51932 294.34874,832.40698 191.71763,729.77587 Z m -524.84686,541.43658 86.37066,86.37065 -108.50508,21.36795 z" />
</svg>
