<?xml version="1.0" encoding="UTF-8" standalone="no"?>
<svg width="1024" height="1024" viewBox="0 0 1024 1024" version="1.1" xmlns="http://www.w3.org/2000/svg">
  <path d="m 358.20117,553.24805 c -74.52111,-0.0989 -143.52427,41.15015 -165.44798,111.61562 -6.33903,24.97384 -11.20203,57.25399 19.43001,58.10369 18.61633,0.3314 25.19583,-17.83129 27.43893,-30.71687 2.48415,-14.88202 8.25385,-29.21704 16.88526,-41.59972 20.86754,-26.6159 46.50691,-41.46332 77.88697,-44.12144 21.17813,-1.93365 42.57121,-1.75479 63.68532,0.8392 45.00086,8.49091 75.67389,32.68391 86.84489,83.67203 1.84714,17.3531 10.92681,32.45604 28.08302,32.10262 24.00987,0.1849 26.50516,-21.79005 23.08694,-41.37118 C 514.97586,592.58255 438.95572,553.34535 358.20117,553.24805 Z" />
  <rect width="277.73599" height="53" x="565.49628" y="309.00977" ry="26.5" />
  <path d="M 856.001,96.078125 H 165.02064 c -61.05645,0 -111.688639,50.632175 -111.688639,111.688625 v 608.4665 c 0,61.05645 50.632189,111.68863 111.688639,111.68863 H 858.9794 c 61.0564,0 111.6886,-50.63218 111.6886,-111.68863 V 207.76675 C 969.1788,146.7103 918.5466,96.078125 856.001,96.078125 Z m 61.0565,720.155125 c 0,32.762 -26.8053,59.56727 -59.5673,59.56727 -692.46956,10e-6 -350.50562,10e-6 -692.46956,10e-6 -32.762,0 -59.56727,-26.80527 -59.56727,-59.56727 V 207.76675 c 0,-32.762 26.80527,-59.56727 59.56727,-59.56727 H 857.4902 c 32.762,0 59.5673,26.80527 59.5673,59.56727 z" />
  <rect width="234.99001" height="53" x="608.24243" y="480" ry="26.5" />
  <rect width="149.494" height="53" x="693.73834" y="650.99023" ry="26.5" />
  <path d="M 362.36133,299.89844 A 103.371,103.371 0 0 0 258.99219,403.26953 103.371,103.371 0 0 0 362.36133,506.64063 103.371,103.371 0 0 0 465.73242,403.26953 103.371,103.371 0 0 0 362.36133,299.89844 Z m 0,53 a 50.370998,50.370998 0 0 1 50.37109,50.37109 50.370998,50.370998 0 0 1 -50.37109,50.3711 50.370998,50.370998 0 0 1 -50.36914,-50.3711 50.370998,50.370998 0 0 1 50.36914,-50.37109 z" />
</svg>
