<?xml version="1.0" encoding="UTF-8" standalone="no"?>
<svg viewBox="0 0 1024 1024" width="1024" height="1024" xmlns="http://www.w3.org/2000/svg" version="1.1">
  <path d="m 970.668,970.668 c 0,0 0,-63.09025 -5.24192,-96.03946 C 961.12022,848.60615 925.08202,814.15925 771.66225,757.80861 620.67623,702.39402 630.03681,729.35247 630.03681,627.41585 c 0,-66.17924 33.69805,-27.7073 55.22737,-153.32616 8.33091,-49.42382 15.07052,-16.47461 33.23003,-95.75865 9.54778,-41.56094 -6.4588,-44.64993 -4.49308,-64.49434 1.87212,-19.84441 3.83784,-37.53589 7.39485,-78.16077 C 725.60824,185.40966 678.99259,53.332 512,53.332 c -166.99259,0 -213.60824,132.07766 -209.02156,182.53114 3.55702,40.34407 5.52274,58.31636 7.39485,78.16077 1.87212,19.84442 -14.13446,22.9334 -4.49307,64.49434 18.15951,79.09683 24.80551,46.14762 33.23003,95.75865 21.52931,125.61887 55.22737,87.24052 55.22737,153.32616 0,102.21744 9.36057,75.25899 -141.62545,130.39276 C 99.386011,814.15925 63.066994,848.79336 58.948343,874.81575 53.332,907.57775 53.332,970.668 53.332,970.668 H 512 Z" />
</svg>
