<?xml version="1.0" encoding="UTF-8" standalone="no"?>
<svg version="1.1" width="1024" height="1024" viewBox="0 0 1024 1024" xmlns="http://www.w3.org/2000/svg">
  <path d="m 196.8801,75.34498 c -30.25488,30.89049 -58.48023,58.79339 -87.04505,87.30895 C 75.245061,197.18824 48.655657,240.7099 54.023015,287.91367 95.356401,451.70126 255.0763,648.33651 320.11121,713.31709 c 65.03489,64.98062 225.17778,193.6041 424.0132,255.48658 31.20209,4.99321 69.16889,-8.82357 90.46949,-29.98248 37.2042,-37.21836 74.4319,-74.41348 111.62681,-111.64097 31.50293,-31.57797 32.41973,-72.00858 3.56116,-101.36875 C 900.11876,675.21079 845.94841,621.60402 802.20193,577.85752 771.02168,546.71228 718.59968,550.41337 692.06902,577.74572 l -69.69241,69.69242 c -58.4748,-29.43188 -109.16653,-61.55522 -151.84362,-105.68961 -42.67708,-44.13437 -71.00064,-88.45871 -93.4638,-139.68699 24.04701,-24.05836 48.1167,-48.09433 72.14975,-72.16647 32.45039,-32.6271 26.63631,-77.31191 -2.89622,-107.91675 -9.3386,-9.55149 -18.60678,-19.17234 -27.91818,-28.75061 C 380.03686,153.6708 341.6692,114.1139 303.30154,74.556978 275.68919,46.779745 224.23109,47.729598 196.8801,75.34498 Z m 62.75787,50.18228 c 48.13424,49.23656 96.26845,98.47313 144.40267,147.7097 3.73056,3.79743 1.64692,6.66069 -3.07098,11.38423 -29.17944,29.17095 -58.34236,58.35907 -87.53208,87.51933 -5.14372,4.80104 -10.28745,9.60211 -15.43117,14.40315 25.37029,71.74659 64.96457,138.95256 116.38208,193.461 5.32274,5.62668 10.7545,11.15824 16.40435,16.45635 60.45192,57.13494 139.96851,101.06043 206.16687,131.03676 35.00054,-35.01045 70.02062,-70.00148 105.00937,-105.02367 3.25897,-3.1534 6.16048,-5.15026 9.69954,-1.62268 46.69495,46.72626 93.41963,93.42389 140.12548,140.13965 3.54876,3.51688 7.24771,7.07345 10.66706,10.51403 3.41932,3.44059 0.39042,5.53406 -2.13168,8.07927 -7.44296,7.35114 -14.80197,14.7878 -22.21216,22.17233 -29.10732,29.10024 -58.20082,58.21556 -87.31725,87.30592 -17.12349,13.57259 -33.99816,16.89853 -53.68676,10.998 C 620.96266,856.45982 500.93713,784.15103 414.46401,710.77365 383.28319,684.09815 353.8574,655.37847 326.34304,624.93615 235.75671,518.49102 163.21363,408.25272 120.08283,283.3195 c -4.10343,-16.85272 0.31601,-34.72335 12.33718,-46.66667 36.50612,-37.16792 76.0458,-77.57132 109.0002,-111.2086 5.58317,-5.47646 13.11175,-5.06496 18.21776,0.0831 z" />
</svg>
