<?xml version="1.0" encoding="UTF-8" standalone="no"?>
<svg version="1.1" viewBox="0 0 1024 1024" width="1024" height="1024" xmlns="http://www.w3.org/2000/svg">
<path d="M 901.76874,401.89436 231.94394,66.981962 C 192.96707,46.771732 148.21585,49.658907 112.12615,71.312726 76.036449,94.410133 54.38263,133.38701 54.38263,176.69465 v 669.82479 c 0,43.30764 21.653819,82.28451 59.18711,105.38192 20.21023,12.99229 41.86404,18.76664 64.96145,18.76664 18.76664,0 37.53329,-4.33076 54.85634,-12.99229 L 901.76874,621.31973 c 41.86405,-21.65382 67.84863,-63.51787 67.84863,-109.71269 0,-46.19481 -25.98458,-89.50245 -67.84863,-109.71268 z M 591.39734,302.28679 461.47442,469.74299 177.0876,103.07166 c 11.54871,0 21.65382,2.88718 31.75894,7.21794 z M 104.90821,846.51944 V 176.69465 c 0,-20.21024 8.66153,-40.42047 24.54099,-53.41276 L 429.71549,511.60704 128.00561,899.93219 c -15.87946,-12.99229 -23.0974,-33.20252 -23.0974,-53.41275 z m 103.93833,64.96146 c -10.10512,5.77435 -21.65382,7.21794 -33.20252,7.21794 L 460.03084,552.0275 589.95375,720.92729 Z M 880.11492,576.5685 637.59215,697.82988 493.23336,511.60704 637.59215,325.3842 880.11492,446.64559 c 24.541,12.99229 40.42046,37.53328 40.42046,64.96145 0,27.42817 -15.87946,51.96917 -40.42046,64.96146 z" />
</svg>
