<?xml version="1.0" encoding="UTF-8" standalone="no"?>
<svg version="1.1" viewBox="0 0 1024 1024" width="1024" height="1024" xmlns="http://www.w3.org/2000/svg">
<path d="M 856.001,105.45337 H 165.02064 c -61.05645,0 -111.688635,50.63218 -111.688635,111.68863 v 457.17882 c 0,61.05645 50.632185,111.68863 111.688635,111.68863 h 202.52873 c 1.48918,0 1.48918,0 2.97836,0 l 87.86173,107.22109 c 13.40263,16.381 32.76199,25.31609 53.61054,25.31609 20.84854,0 40.20791,-8.93509 53.61054,-25.31609 l 87.86173,-107.22109 c 0,0 1.48918,0 2.97836,0 h 202.52873 c 61.05645,0 111.68863,-50.63218 111.68863,-111.68863 V 217.142 C 969.17881,156.08555 918.54663,105.45337 856.001,105.45337 Z m 61.05645,568.86745 c 0,32.762 -26.80527,59.56727 -59.56727,59.56727 H 653.47227 c -14.89182,0 -28.29445,5.95673 -40.20791,16.381 0,0 -1.48918,1.48918 -1.48918,1.48918 l -87.86173,108.71027 c -4.46754,5.95673 -10.42427,5.95673 -13.40263,5.95673 -2.97837,0 -8.93509,-1.48918 -13.40264,-5.95673 L 409.24646,751.75827 c 0,0 -1.48919,-1.48918 -1.48919,-1.48918 -10.42427,-10.42427 -25.31609,-16.381 -40.2079,-16.381 H 165.02064 c -32.762,0 -59.56727,-26.80527 -59.56727,-59.56727 V 217.142 c 0,-32.762 26.80527,-59.56727 59.56727,-59.56727 h 692.46954 c 32.762,0 59.56727,26.80527 59.56727,59.56727 z" /><path d="m 282.666,315.428 h 424.41682 c 14.89181,0 26.80527,-11.91345 26.80527,-26.80527 0,-14.89182 -11.91346,-26.80527 -26.80527,-26.80527 H 282.666 c -14.89182,0 -26.80527,11.91345 -26.80527,26.80527 0,14.89182 11.91345,26.80527 26.80527,26.80527 z" /><path d="m 282.666,471.79209 h 306.77145 c 14.89182,0 26.80528,-11.91345 26.80528,-26.80527 0,-14.89182 -11.91346,-26.80527 -26.80528,-26.80527 H 282.666 c -14.89182,0 -26.80527,11.91345 -26.80527,26.80527 0,14.89182 11.91345,26.80527 26.80527,26.80527 z" /><path d="M 745.80154,577.524 H 282.666 c -14.89182,0 -26.80527,11.91345 -26.80527,26.80527 0,14.89182 11.91345,26.80527 26.80527,26.80527 h 463.13554 c 14.89182,0 26.80527,-11.91345 26.80527,-26.80527 0,-14.89182 -11.91345,-26.80527 -26.80527,-26.80527 z" />
</svg>
