<?xml version="1.0" encoding="UTF-8" standalone="no"?>
<svg version="1.1" viewBox="0 0 1024 1024" width="1024" height="1024" xmlns="http://www.w3.org/2000/svg">
  <path d="M 489.85523,56.891359 C 386.97165,85.036901 284.08716,113.18036 181.21139,141.35364 c -32.78923,12.95009 -51.1589,39.69223 -50.61078,72.39357 9.8e-4,75.92413 -0.007,151.84838 0.0312,227.77243 3.67915,123.58623 41.34585,238.69391 108.07689,332.06965 64.18388,85.05933 144.8778,149.07298 235.73886,188.09719 23.34668,10.69016 48.01636,11.61598 70.46394,1.94385 108.9595,-47.78897 199.21961,-125.08343 258.94187,-217.829 57.07791,-93.10757 86.90397,-197.00347 89.42813,-298.22141 0.32106,-80.24839 0.14087,-167.95827 0.10354,-239.35823 -0.0584,-34.03143 -23.46714,-60.03524 -54.27379,-67.90261 C 736.77401,112.19768 634.4407,84.059756 532.10418,55.936872 517.69454,52.215634 503.04739,52.93903 489.85523,56.891359 Z m 332.5981,147.541521 c 2.76269,0.9941 4.37767,4.12158 3.96609,6.96885 -6e-4,75.8064 0.007,151.6129 -0.0357,227.4192 C 823.22835,566.25859 770.41344,687.95264 691.08891,779.03088 645.29472,824.86092 572.77519,897.90949 512.66153,901.85973 442.61754,883.37551 371.82235,822.35856 329.39801,777.41834 247.86707,674.60022 201.52659,572.11465 197.84544,451.21296 c -0.56865,-80.90371 -0.25679,-169.27052 -0.21946,-241.66984 0.26533,-2.8643 2.76927,-4.48808 5.58187,-5.58166 99.94654,-27.61349 223.5231,-62.34104 309.30841,-84.38589 107.47238,28.82536 217.77591,59.49938 309.93707,84.85731 z" />
  <path d="M 682.74246,370.61391 C 613.13818,428.85313 543.53391,487.09235 473.92963,545.33156 441.96175,518.53808 410.0012,491.73689 378.0052,464.97762 c -28.30698,-22.07729 -75.17298,21.89115 -39.48968,55.15826 37.66341,31.4715 75.33934,62.92924 112.97844,94.42906 11.88439,9.44901 30.07769,9.63503 40.72622,1.03051 78.45831,-66.22479 164.17961,-138.2692 233.57613,-196.71517 30.99165,-32.22914 -11.02516,-77.25711 -43.05385,-48.26637 z" />
</svg>
