<?xml version="1.0" encoding="UTF-8" standalone="no"?>
<svg version="1.1" width="1024" height="1024" viewBox="0 0 1024 1024" xmlns="http://www.w3.org/2000/svg">
  <path d="m 129.7394,53.332031 c -42.197446,0 -76.406248,34.247861 -76.406248,76.445309 v 764.44532 c 0,42.19747 34.208802,76.44531 76.406248,76.44531 h 458.66797 c 42.23568,0 76.48439,-34.24784 76.48437,-76.44531 V 695.97852 c 78.45184,-0.004 156.90383,-0.003 235.35547,-0.0254 39.73824,-3.4519 69.81305,-33.7443 70.38282,-70.69531 0.0691,-105.5353 0.0259,-218.54117 -0.008,-310.4707 -3.82003,-39.78315 -35.08786,-68.77687 -71.72851,-69.50195 -1.04493,-0.0175 -2.09169,-0.008 -3.13672,-0.01 h -0.002 c -76.95423,0.005 -153.90901,0.0108 -230.86329,0.0137 V 129.77734 c 0,-42.197448 -34.24869,-76.445309 -76.48437,-76.445309 z m 129.37305,47.999999 h 200 v 32 h -200 z M 118.07534,181.41016 H 600.8644 v 63.88086 c -79.19384,0.003 -158.3883,0.005 -237.58203,0.0137 -41.24128,3.25695 -70.51763,37.17998 -70.72266,74.65625 -0.0142,45.2928 -10e-4,90.58604 -0.004,135.8789 0.002,84.37495 0.0122,168.75022 0.0351,253.125 4.3589,49.44863 50.87712,80.42641 95.57032,65.94922 47.85475,-26.39295 99.29519,-54.8063 140.55468,-78.4414 24.12386,-0.24351 50.85444,-0.48748 72.14844,-0.48828 V 842.86136 H 117.27245 Z M 365.3019,308.89648 c 78.5207,0.15947 157.04181,0.31905 235.5625,0.47852 21.34241,0.0433 42.68493,0.0875 64.02734,0.13086 78.00833,0.15843 156.01708,0.31618 234.0254,0.47461 9.35715,1.65509 7.8161,8.07024 8.12304,14.87891 1.4e-4,100.39683 -0.0101,200.79455 -0.0312,301.1914 -2.10015,8.31188 -9.91182,7.15583 -16.08398,7.37695 -75.34416,0.002 -150.68902,0.014 -226.03321,0.0234 -21.34239,0.003 -42.68496,0.004 -64.02734,0.008 -23.92114,0.005 -47.84256,8.2e-4 -71.76367,0.008 -11.24292,0.25894 -22.63526,2.58643 -32.50586,8.14062 -41.97106,24.00137 -83.94754,47.99314 -125.92773,71.97852 -14.29281,2.85961 -14.1492,-4.55563 -14.49414,-15.42383 -7e-4,-127.26456 0.009,-254.52842 0.0254,-381.79297 1.31222,-4.72112 4.90615,-7.22895 9.10351,-7.47266 z" />
  <path d="m 610.03295,334.29665 c -6.27771,1.66974 -7.86564,2.20638 -11.46302,3.59247 -35.18902,14.40247 -58.72069,47.25146 -59.31496,84.79055 -0.0406,35.02851 -0.0151,71.46144 -0.0151,107.11346 -0.52751,7.31311 -6.23261,12.64027 -12.95836,12.71576 -3.47735,0.007 -6.95504,0.001 -10.43249,0.003 -0.072,6.87254 -0.0279,13.8583 -0.0279,20.76691 h 84.72287 c -3.79508,9.6972 -3.05176,18.58813 -0.46993,25.14524 3.40096,8.50241 15.59267,21.67724 30.6656,21.68842 15.07294,0.0116 27.98533,-11.55473 32.02512,-20.7705 4.0398,-9.21577 3.1718,-17.0062 0.24565,-25.09463 -0.18807,-0.75234 0.25435,-0.97412 0.78534,-0.97466 27.29797,0.019 55.71259,0.007 83.59344,0.007 v -20.76692 c -3.67992,-0.006 -7.3603,0.0152 -11.03999,-0.0151 -7.15947,-0.71248 -12.28203,-6.28721 -12.37908,-12.89981 V 426.73741 c -2.37879,-35.43308 -27.8358,-72.72544 -53.31209,-86.08631 -5.71984,-2.76431 -11.52176,-4.81819 -17.25715,-6.30148 -10.09955,-2.41983 -37.09028,-1.7227 -43.36799,-0.0529 z" />
</svg>
