<?xml version="1.0" encoding="UTF-8" standalone="no"?>
<svg version="1.1" width="1024" height="1024" viewBox="0 0 1024 1024" xmlns="http://www.w3.org/2000/svg">
  <path d="m 53.332,53.332 v 333.57673 h 83.39418 v 83.39418 h 83.39418 V 386.90873 H 386.90873 V 53.332 Z m 333.57673,333.57673 v 83.39418 h 83.39418 v 83.39418 H 303.51455 v 83.39418 H 53.332 V 970.668 H 386.90873 V 637.09127 h 250.18254 v -83.39418 h -83.39418 v -83.39418 h 166.78836 v -83.39418 h 83.39419 v 83.39418 h 83.39418 V 386.90873 H 970.668 V 53.332 H 637.09127 v 333.57673 z m 500.36509,83.39418 v 83.39418 H 970.668 v -83.39418 z m 0,83.39418 h -83.39418 v 83.39418 h 83.39418 z m 0,83.39418 v 83.39418 H 970.668 v -83.39418 z m 0,83.39418 h -83.39418 v -83.39418 h -83.39419 v 83.39418 H 512 V 970.668 h 83.39418 V 803.87964 h 166.78837 v 83.39418 h 83.39418 v -83.39418 h 41.69709 z M 762.18255,887.27382 H 678.78836 V 970.668 h 83.39419 z m 41.69709,-333.57673 v -83.39418 h -83.39419 v 83.39418 z m -500.36509,0 v -83.39418 h -83.39419 v 83.39418 z M 136.72618,470.30291 H 53.332 v 83.39418 h 83.39418 z M 470.30291,53.332 v 166.78836 h -41.69709 v 83.39419 h 41.69709 v 41.69709 h 83.39418 V 220.12036 h 41.69709 V 136.72618 H 553.69709 V 53.332 Z M 136.72618,136.72618 H 303.51455 V 303.51455 H 136.72618 Z m 583.75927,0 H 887.27382 V 303.51455 H 720.48545 Z m -542.06218,41.69709 v 83.39418 h 83.39418 v -83.39418 z m 583.75928,0 v 83.39418 h 83.39418 V 178.42327 Z M 136.72618,720.48545 H 303.51455 V 887.27382 H 136.72618 Z m 41.69709,41.6971 v 83.39418 h 83.39418 V 762.18255 Z M 887.27382,887.27382 V 970.668 H 970.668 v -83.39418 z" />
</svg>
