<?xml version="1.0" encoding="UTF-8" standalone="no"?>
<svg width="1024" height="1024" viewBox="0 0 1024 1024" version="1.1" xmlns="http://www.w3.org/2000/svg">
  <path d="M 520.81055 218.77344 C 442.38287 218.77344 379.83025 248.12675 334.77539 306.29883 L 332.18164 309.64844 L 381.07031 362.44922 L 384.67188 357.6875 C 418.59749 312.81812 461.24571 290.86719 514.09766 290.86719 C 545.19342 290.86719 568.14264 298.1881 583.75391 312.23828 L 583.81836 312.29688 L 583.88477 312.35352 C 600.25859 326.08638 608.10938 342.81645 608.10938 363.90039 C 608.10938 376.9518 604.52662 388.74132 597.20312 399.72656 L 597.15625 399.79492 L 597.11133 399.86719 C 590.16285 411.09167 581.37973 420.67618 570.67188 428.70703 C 559.48409 437.09788 547.17923 446.32746 533.75391 456.39648 C 520.85314 465.93235 508.78361 475.19382 497.54883 484.18164 C 485.81348 493.56993 475.88647 505.57131 467.78125 520.04492 L 467.74219 520.11328 L 467.70703 520.18164 C 460.05722 534.89271 456.23437 551.13474 456.23438 568.63867 C 456.23438 596.84355 468.00167 621.18984 490.73047 640.42188 L 493.08398 642.41211 L 495.91992 641.20312 L 554.91992 616.05664 L 548.21289 610.8418 C 533.95944 599.75578 527.48828 587.72766 527.48828 573.67188 C 527.48828 557.34119 535.01109 541.68217 551.11719 526.10547 C 568.18168 510.14727 586.60145 496.40176 606.39844 484.85352 C 627.17342 472.73478 646.10729 455.48344 663.21094 433.25195 C 681.18233 410.0631 690.27148 383.374 690.27148 353.83203 C 690.27148 315.56391 674.28596 283.06952 643.1543 257.6875 C 612.45855 231.6448 571.41622 218.77344 520.81055 218.77344 z M 511.58008 702.92578 C 498.06137 702.92578 485.72322 708.02293 475.42969 717.71094 L 475.375 717.76367 L 475.32031 717.81641 C 465.52307 727.61369 460.43164 740.05079 460.43164 754.07617 C 460.43164 768.10155 465.52307 780.53864 475.32031 790.33594 L 475.375 790.39062 L 475.42969 790.44141 C 485.72322 800.1294 498.06137 805.22656 511.58008 805.22656 C 525.08252 805.22656 537.21038 800.10478 546.96484 790.36719 C 557.2955 780.60808 562.73047 768.13937 562.73047 754.07617 C 562.73047 740.01297 557.2955 727.54425 546.96484 717.78516 C 537.21038 708.04756 525.08252 702.92578 511.58008 702.92578 z" />
  <path d="M 512.00001,53.33203 C 259.87874,53.33203 53.33204,259.87873 53.33204,512 c 0,252.12127 206.5467,458.66797 458.66797,458.66797 252.12125,0 458.66795,-206.5467 458.66795,-458.66797 0,-252.12127 -206.5467,-458.66797 -458.66795,-458.66797 z m 0,64 c 217.21225,0 394.66795,177.45571 394.66795,394.66797 0,217.21226 -177.4557,394.66797 -394.66795,394.66797 -217.21226,0 -394.66797,-177.45571 -394.66797,-394.66797 0,-217.21226 177.45571,-394.66797 394.66797,-394.66797 z" />
</svg>
