<?xml version="1.0" encoding="UTF-8" standalone="no"?>
<svg width="1024" height="1024" viewBox="0 0 1024 1024" xmlns="http://www.w3.org/2000/svg" version="1.1">
  <path d="M 512,53.332031 C 259.87873,53.332031 53.332031,259.87873 53.332031,512 53.332031,764.12127 259.87873,970.66797 512,970.66797 764.12127,970.66797 970.66797,764.12127 970.66797,512 970.66797,259.87873 764.12127,53.332031 512,53.332031 Z m 0,63.999999 C 729.21226,117.33203 906.66797,294.78774 906.66797,512 906.66797,729.21226 729.21226,906.66797 512,906.66797 294.78774,906.66797 117.33203,729.21226 117.33203,512 117.33203,294.78774 294.78774,117.33203 512,117.33203 Z" />
  <path d="m 341.33203,480 a 32,32 0 0 0 -32,32 32,32 0 0 0 32,32 h 341.33399 a 32,32 0 0 0 32,-32 32,32 0 0 0 -32,-32 z" />
</svg>
