<?xml version="1.0" encoding="UTF-8" standalone="no"?>
<svg version="1.1" width="1024" height="1024" viewBox="0 0 1024 1024" xmlns="http://www.w3.org/2000/svg">
  <path d="M 276.86757,53.355241 C 217.22208,55.552983 170.40632,102.56603 170.05158,162.0801 c -0.0568,187.56656 -0.0228,388.92843 -0.0228,552.52443 H 53.336137 c 0.007,50.02192 -0.02661,100.04417 0.03832,150.06584 -0.142322,57.16758 57.188703,106.3781 103.139193,105.8455 189.62383,0.30736 388.06571,0.1489 551.80552,0.13063 61.03851,0.0311 106.60619,-47.70247 106.7318,-107.12373 0.0332,-193.47852 0.0203,-356.24638 0.0203,-554.12926 h 155.59087 c -0.006,-50.02256 0.0303,-100.04548 -0.0384,-150.06781 C 970.39905,102.43571 925.09617,53.088582 868.31468,53.526541 663.20715,53.164486 452.8825,53.335379 276.86757,53.355241 Z m 1.68152,61.547209 h 485.56159 c -6.53043,17.2601 -10.78806,33.53716 -10.60674,50.78521 -0.007,232.52124 -0.007,465.04256 -0.0183,697.56374 -3.09944,27.72801 -21.74341,46.05419 -47.89973,45.85152 -24.63467,-1.73644 -42.52882,-18.35533 -45.65885,-40.9261 -1.43515,-51.73622 -1.24666,-108.05727 -1.60203,-153.57228 H 231.59627 c 0.005,-184.65276 -8.1e-4,-369.3057 0.0211,-553.95833 0.75962,-26.96744 21.23857,-45.12724 46.93172,-45.74376 z m 630.53304,47.78266 c 0.03,28.38031 0.005,56.76064 0.0126,85.14095 h -94.02345 c 0.008,-29.38676 -0.0427,-58.77425 0.0504,-88.16055 0.39332,-57.63982 94.45462,-58.48013 93.96045,3.0196 z m -311.1711,613.48487 c 0.0111,29.70155 -0.0493,59.40381 0.0572,89.10487 0.74584,23.30542 5.35644,33.93699 9.63347,43.81875 -149.0227,-8.9e-4 -298.04562,0.005 -447.06819,-0.0214 -27.7334,-0.7784 -45.99942,-21.92521 -45.61846,-48.1367 -0.0126,-28.2545 -0.0153,-56.50901 -0.0115,-84.76353 160.52356,-0.005 322.16949,-0.002 483.00748,-0.002 z" />
</svg>
