<?xml version="1.0" encoding="UTF-8" standalone="no"?>
<svg width="1024" height="1024" viewBox="0 0 1024 1024" xmlns="http://www.w3.org/2000/svg" version="1.1"><path d="M 391.22843,275.50331 C 179.09942,277.61775 15.697981,344.56851 1.0585003,446.50721 -16.959346,571.96972 197.20098,703.07597 479.37686,739.23573 761.55154,775.39416 1004.8629,703.06756 1022.9354,577.54823 1041.008,452.02889 826.81959,320.97793 544.64249,284.76502 491.72907,277.98044 440.18127,275.01536 391.22843,275.50331 Z M 198.4921,392.65956 c 8.14601,0 15.23946,1.72542 21.27734,5.17578 6.0379,3.35437 10.4954,8.19396 13.37109,14.51953 l -17.39648,9.3457 c -2.01263,-3.64206 -4.55244,-6.32584 -7.61914,-8.05078 -2.9712,-1.72495 -6.23001,-2.58789 -9.77539,-2.58789 -3.83428,0 -7.28561,0.86294 -10.35352,2.58789 -3.06668,1.72494 -5.50965,4.16986 -7.33007,7.33203 -1.72494,3.16341 -2.5879,6.99802 -2.5879,11.50196 0,4.50514 0.86296,8.33659 2.5879,11.5 1.82042,3.16217 4.26339,5.60783 7.33007,7.33398 3.06791,1.72494 6.51924,2.58594 10.35352,2.58594 3.54538,0 6.80419,-0.81391 9.77539,-2.44336 3.0667,-1.72494 5.60651,-4.45654 7.61914,-8.19532 l 17.39648,9.49024 c -2.87569,6.23008 -7.33319,11.06965 -13.37109,14.51953 -6.03788,3.35439 -13.13133,5.03125 -21.27734,5.03125 -8.33942,0 -15.76542,-1.67686 -22.28321,-5.03125 -6.51777,-3.44988 -11.64523,-8.19453 -15.38281,-14.23242 -3.64206,-6.0379 -5.46484,-12.89125 -5.46484,-20.55859 0,-7.76284 1.82278,-14.61619 5.46484,-20.5586 3.73758,-6.03909 8.86504,-10.73547 15.38281,-14.08984 6.51779,-3.45036 13.94379,-5.17578 22.28321,-5.17578 z m 194.6914,0 c 7.57185,0 14.37814,1.63014 20.41602,4.88867 6.13459,3.16338 10.97415,7.7629 14.51953,13.80078 3.54659,5.94239 5.32031,13.08366 5.32031,21.42187 0,0.86307 -0.0491,1.86878 -0.14453,3.01954 -0.0955,1.05405 -0.19161,2.059 -0.28711,3.01757 H 374.496 c 0.45169,2.05736 1.1629,3.97836 2.1543,5.75196 1.91714,3.16217 4.55383,5.60708 7.9082,7.33203 3.45109,1.62945 7.47553,2.44336 12.07618,2.44336 4.12074,0 7.7165,-0.62288 10.7832,-1.86914 3.1622,-1.24626 6.03699,-3.11416 8.625,-5.60547 l 11.93164,12.9375 c -3.54538,4.02525 -8.00092,7.14208 -13.36914,9.3457 -5.36702,2.10934 -11.54847,3.16211 -18.54492,3.16211 -8.8181,0 -16.58226,-1.72469 -23.29102,-5.17578 -6.61326,-3.44989 -11.74073,-8.1455 -15.38281,-14.08789 -3.64208,-6.0379 -5.46289,-12.89125 -5.46289,-20.55859 0,-7.76284 1.77177,-14.61619 5.31836,-20.5586 3.64206,-6.03909 8.57851,-10.73547 14.80859,-14.08984 6.2301,-3.45036 13.27449,-5.17578 21.13281,-5.17578 z m -149.28906,1.15039 h 23.43359 l 24.66797,44.71875 26.36719,-44.71875 h 20.99024 l 0.28906,77.3457 H 319.371 v -46.26367 l -23.14648,38.78906 h -9.48828 l -22.57227,-38.95508 v 46.42969 h -20.26953 z m 203.85938,0 h 22.28515 v 30.1914 h 33.64063 v -30.1914 h 22.42773 v 77.3457 H 503.6796 v -28.89648 h -33.64063 v 28.89648 h -22.28515 z m 96.94726,0 h 22.28321 v 24.72851 h 18.40234 c 10.15985,0.0955 17.77885,2.39646 22.85937,6.90039 5.17483,4.40966 7.76368,10.68677 7.76368,18.83399 0,8.5304 -2.92262,15.18957 -8.76954,19.98242 -5.84689,4.69613 -14.1378,7.04492 -24.87304,7.04492 l -37.66602,-0.14453 z m 79.64649,0 h 22.28515 v 77.3457 H 624.34757 Z M 393.32803,409.6244 c -3.83305,0 -7.23583,0.86294 -10.20703,2.58789 -2.87569,1.62944 -5.12836,3.97824 -6.75781,7.04492 -1.05086,1.91619 -1.75772,4.07427 -2.13086,6.46875 h 38.07422 c -0.36378,-2.43489 -1.07806,-4.64225 -2.1582,-6.61328 -1.62945,-2.97121 -3.88135,-5.27095 -6.75586,-6.90039 -2.87571,-1.72495 -6.23018,-2.58789 -10.06446,-2.58789 z m 173.65626,23.29102 v 22.42773 h 13.37109 c 4.31294,0.0955 7.61959,-0.81528 9.91992,-2.73242 2.30033,-1.91714 3.45117,-4.7939 3.45117,-8.62695 0,-3.83428 -1.15084,-6.56393 -3.45117,-8.19336 -2.30033,-1.72615 -5.60698,-2.63694 -9.91992,-2.73243 z m -48.13477,74.57812 c 8.14602,0 15.23946,1.72785 21.27734,5.17774 6.03791,3.35437 10.49539,8.19393 13.3711,14.51953 l -17.39649,9.34375 c -2.01264,-3.64209 -4.55318,-6.32389 -7.62109,-8.04883 -2.97121,-1.72494 -6.22882,-2.58789 -9.77539,-2.58789 -3.83428,0 -7.28291,0.86295 -10.34961,2.58789 -3.0679,1.72494 -5.51039,4.16788 -7.33203,7.33008 -1.72494,3.16338 -2.58985,6.998 -2.58985,11.50195 0,4.50514 0.86491,8.33857 2.58985,11.50195 1.82164,3.16219 4.26413,5.60589 7.33203,7.33203 3.0667,1.72494 6.51533,2.58789 10.34961,2.58789 3.54657,0 6.80418,-0.81586 9.77539,-2.44531 3.06791,-1.72494 5.60845,-4.45458 7.62109,-8.19336 l 17.39649,9.48828 c -2.87571,6.2301 -7.33319,11.06966 -13.3711,14.51954 -6.03788,3.35437 -13.13132,5.0332 -21.27734,5.0332 -8.33821,0 -15.76543,-1.67883 -22.2832,-5.0332 -6.51779,-3.44988 -11.6472,-8.19453 -15.38477,-14.23243 -3.64209,-6.03789 -5.46094,-12.89126 -5.46094,-20.55859 0,-7.76283 1.81885,-14.6162 5.46094,-20.55859 3.73757,-6.03912 8.86698,-10.73352 15.38477,-14.08789 6.51777,-3.44989 13.94499,-5.17774 22.2832,-5.17774 z m 168.1875,0 c 8.14722,0 15.43049,1.72785 21.85156,5.17774 6.42109,3.35437 11.45363,8.0029 15.09571,13.94531 3.64206,5.94239 5.46484,12.84164 5.46484,20.70117 0,7.66733 -1.82278,14.5207 -5.46484,20.55859 -3.64208,5.94241 -8.67462,10.63996 -15.09571,14.08985 -6.42107,3.45107 -13.70434,5.17578 -21.85156,5.17578 -8.24271,0 -15.57502,-1.72471 -21.99609,-5.17578 -6.32559,-3.44989 -11.35813,-8.14744 -15.09571,-14.08985 -3.64206,-6.03789 -5.46289,-12.89126 -5.46289,-20.55859 0,-7.76283 1.82083,-14.6162 5.46289,-20.55859 3.73758,-6.03912 8.77012,-10.73352 15.09571,-14.08789 6.42107,-3.44989 13.75338,-5.17774 21.99609,-5.17774 z m -517.1543,1.15234 h 67.42578 v 58.94336 h 11.07032 v 35.08008 h -20.84571 v -16.67773 h -54.34375 v 16.67773 h -20.8457 v -35.08008 h 2.58789 c 2.779,0 5.03166,-0.81391 6.75781,-2.44336 1.72494,-1.72492 3.06682,-4.07372 4.02539,-7.04492 0.95857,-3.06668 1.67636,-6.51728 2.15625,-10.35156 0.47868,-3.92978 0.81487,-8.05034 1.00586,-12.36328 z m 102.09766,0 h 66.13281 v 77.34571 h -22.42773 v -58.94531 h -24.45117 l -0.70704,13.6582 c -0.28769,6.90096 -0.86275,13.22636 -1.72461,18.97656 -0.76757,5.7514 -2.06116,10.73566 -3.88281,14.95313 -1.82043,4.12074 -4.26534,7.33055 -7.33203,9.63085 -3.0667,2.20484 -6.99623,3.3086 -11.78906,3.3086 -1.72494,0 -3.54575,-0.14394 -5.46289,-0.43164 -1.91714,-0.28769 -3.97803,-0.71954 -6.18164,-1.29492 l 1.15039,-18.40235 c 0.57539,0.0955 1.14922,0.19358 1.72461,0.28907 h 1.58203 c 2.68351,-10e-6 4.79221,-0.76805 6.32617,-2.30079 1.53274,-1.53394 2.68285,-3.59363 3.44922,-6.18164 0.76637,-2.6835 1.29434,-5.7042 1.58203,-9.05859 0.38318,-3.35439 0.67109,-6.85206 0.86328,-10.49414 z m 116.59765,0 h 36.94727 v 77.34571 h -19.98242 v -22.14063 h -16.50977 l -14.6875,22.14063 h -23.86523 l 17.625,-25.26758 c -2.58434,-1.01303 -4.91563,-2.26741 -6.98633,-3.77344 -6.32557,-4.60063 -9.48828,-11.21394 -9.48828,-19.83984 0,-9.20128 3.30665,-16.24569 9.91992,-21.13281 6.70876,-4.88834 15.71795,-7.33204 27.02734,-7.33204 z m 175.67188,0 h 39.53711 c 9.67997,0 17.25039,1.773 22.71289,5.31836 5.46371,3.4511 8.19727,8.33848 8.19727,14.66407 0,6.32558 -2.58959,11.30909 -7.76563,14.95117 -1.09962,0.7678 -2.28217,1.44734 -3.53906,2.04883 2.55642,0.82369 4.74601,1.91229 6.55859,3.27148 4.69615,3.4511 7.04492,8.48243 7.04492,15.0957 0,6.80427 -2.58764,12.1718 -7.76367,16.10157 -5.17602,3.92975 -13.08216,5.89453 -23.7207,5.89453 h -41.26172 z m 177.74805,0 h 22.28515 v 46.00391 l 37.66602,-46.00391 h 20.55859 v 77.34571 h -22.28515 v -46.00586 l -37.52149,46.00586 h -20.70312 z m 89.84765,0 h 25.16016 l 16.4082,22.5879 16.80274,-22.5879 h 23.86523 l -28.77344,37.82422 29.92188,39.52149 h -25.44531 l -16.93946,-23.69141 -17.56445,23.69141 h -24.44141 l 29.75586,-39.01563 z M 584.8085,523.88417 v 16.5332 h 16.96485 c 3.92975,0 6.85239,-0.71779 8.76953,-2.15625 2.01264,-1.43725 3.01953,-3.49813 3.01953,-6.18164 0,-2.77901 -1.00689,-4.83988 -3.01953,-6.18164 -1.91714,-1.34176 -4.83978,-2.01367 -8.76953,-2.01367 z m 102.22852,2.01367 c -3.73757,0 -7.09129,0.86295 -10.0625,2.58789 -2.9712,1.72494 -5.36903,4.16788 -7.18945,7.33008 -1.72494,3.16338 -2.58789,6.998 -2.58789,11.50195 0,4.40843 0.86295,8.24307 2.58789,11.50195 1.82042,3.16219 4.21825,5.60589 7.18945,7.33203 2.97121,1.72494 6.32493,2.58789 10.0625,2.58789 3.73758,0 7.09129,-0.86295 10.0625,-2.58789 2.9712,-1.72614 5.31998,-4.16984 7.04492,-7.33203 1.72494,-3.25888 2.58789,-7.09352 2.58789,-11.50195 0,-4.50395 -0.86295,-8.33857 -2.58789,-11.50195 -1.72494,-3.1622 -4.07372,-5.60514 -7.04492,-7.33008 -2.97121,-1.72494 -6.32492,-2.58789 -10.0625,-2.58789 z m -298.02734,1.00586 c -4.60065,0 -8.19446,0.86295 -10.78125,2.58789 -2.49253,1.72615 -3.74024,4.50361 -3.74024,8.33789 0,7.37964 4.7454,11.07031 14.23438,11.07031 h 16.82031 V 526.9037 Z m -199.43165,0.14258 -0.42968,9.91992 c -0.1922,4.12075 -0.43302,8.05224 -0.72071,11.79101 -0.28769,3.73757 -0.86154,7.14036 -1.72461,10.20703 -0.76636,2.97121 -1.91648,5.50907 -3.44921,7.61719 -0.27242,0.35743 -0.56739,0.68966 -0.87305,1.00781 h 32.5 v -40.54296 z m 395.23047,26.59765 v 17.10742 h 18.83399 c 4.12075,0 7.18853,-0.66996 9.20117,-2.01172 2.10813,-1.43723 3.16211,-3.59499 3.16211,-6.4707 0,-2.9712 -0.95786,-5.12699 -2.875,-6.46875 -1.91593,-1.43725 -4.9359,-2.15625 -9.05664,-2.15625 z m 346.63868,5.60742 c 3.92975,0 7.23641,1.29286 9.91992,3.88086 2.6835,2.49131 4.02539,5.79917 4.02539,9.91992 0,4.12197 -1.34189,7.52353 -4.02539,10.20704 -2.68351,2.58679 -5.99017,3.88281 -9.91992,3.88281 -3.83307,0 -7.14092,-1.29602 -9.91993,-3.88281 -2.68349,-2.68351 -4.02539,-6.08507 -4.02539,-10.20704 0,-4.12075 1.3419,-7.42861 4.02539,-9.91992 2.77901,-2.588 6.08686,-3.88086 9.91993,-3.88086 z" /></svg>
