<?xml version="1.0" encoding="UTF-8" standalone="no"?>
<svg width="1024" height="1024" viewBox="0 0 1024 1024" xmlns="http://www.w3.org/2000/svg" version="1.1">
  <path d="m 675.15058,167.44789 a 359,359 0 0 0 -507.7027,-2e-5 359,359 0 0 0 0,507.70269 359,359 0 0 0 476.2585,27.24567 l 247.1118,247.11176 c 16.2571,16.25709 42.4328,16.25709 58.6898,0 16.2571,-16.25709 16.2571,-42.43277 0,-58.68986 L 702.72358,644.03369 a 359,359 0 0 0 -27.573,-476.5858 z m -45.2548,45.25483 a 295,295 0 0 1 0,417.19301 295,295 0 0 1 -417.193,0 295,295 0 0 1 0,-417.19301 295,295 0 0 1 417.193,0 z" />
</svg>
