<?xml version="1.0" encoding="UTF-8" standalone="no"?>
<svg version="1.1" viewBox="0 0 1024 1024" width="1024" height="1024" xmlns="http://www.w3.org/2000/svg">
<path d="m 444.73193,118.14119 c -35.76158,0.17537 -62.37873,31.94917 -62.38013,65.17448 -0.0677,16.44717 0.056,32.89491 -0.0785,49.34185 -14.67472,9.41108 -31.22776,19.61774 -42.90414,29.83381 -5.57714,3.71759 -11.08258,11.87778 -15.96846,13.36724 -22.57714,-12.83012 -45.12135,-25.72035 -67.74097,-38.47401 -21.18558,-10.14462 -45.2583,-7.99149 -58.00308,10.83492 -24.86901,42.07474 -51.38758,88.07816 -72.96349,125.23116 -8.52892,20.20879 -4.31336,43.90493 12.89184,53.05218 25.0642,14.44479 52.68594,29.86566 75.12667,42.53489 -3.41578,29.26281 -2.82608,56.08674 -0.76998,81.80168 -25.48049,13.94506 -50.99125,27.83584 -76.42295,41.86811 -17.26796,11.25905 -23.05047,33.30344 -13.82094,51.67261 24.67059,42.224 49.30574,84.46845 74.03082,126.66018 13.51355,16.54816 32.5713,22.16829 50.96648,15.0443 25.27797,-13.99896 50.55594,-27.99791 75.83391,-41.99687 18.24485,15.58116 36.10604,30.91838 56.73056,40.43644 2.76051,1.09741 1.72784,4.11223 1.82065,6.58369 0.031,17.75048 -0.0693,35.50244 0.0899,53.25188 4.20017,35.27618 32.19972,61.44253 64.98326,61.517 44.74047,0.0168 92.40388,0.0735 133.34632,-0.041 35.78429,-3.87008 62.32202,-32.40353 62.15552,-65.56673 0.0621,-18.81897 -0.0623,-37.64163 0.0804,-56.45831 20.92058,-13.54862 41.27486,-27.11681 58.00283,-42.95886 22.44738,12.76012 44.86541,25.57409 67.35605,38.25636 19.02803,11.42749 44.51508,8.64613 56.78361,-9.54335 25.18888,-42.21037 52.22612,-88.10927 74.16578,-125.23736 9.47909,-22.28588 6.71793,-43.46074 -14.81762,-55.1387 -23.17671,-12.71388 -46.35812,-25.42334 -69.53734,-38.13465 2.5583,-29.50851 3.77598,-57.81529 0.0494,-83.18954 24.98574,-13.89205 50.00354,-27.727 74.94129,-41.70375 17.07556,-9.48961 22.71979,-32.93847 13.78389,-51.27688 -25.20983,-42.41972 -50.38601,-84.85995 -75.64436,-127.25 -10.16412,-16.29681 -32.4998,-21.80993 -50.76203,-14.72558 -25.19558,13.95332 -50.39116,27.90665 -75.58675,41.85998 -3.69157,-3.19229 -7.4091,-6.3559 -11.16802,-9.46701 -13.01079,-11.78123 -27.00966,-22.72162 -42.79339,-30.55139 -4.15271,-1.46861 -4.6168,-2.88977 -4.82417,-6.7006 -0.0583,-16.08094 0.0654,-32.16334 -0.0917,-48.24333 0.4995,-34.41929 -32.23402,-61.65806 -65.20187,-61.71166 -45.02659,0.0161 -92.75632,-0.0197 -131.65932,0.0468 z m 2.56336,65.63726 c 47.3272,0.0783 88.35615,-0.0898 131.29677,0.0434 0.97857,0.024 1.14362,1.11116 1.12377,2.12437 0.0424,17.03432 -0.0586,34.07005 0.0892,51.10345 0.8041,27.24911 16.44916,45.36095 39.96282,56.05187 18.82666,12.11154 33.77733,25.5481 50.41449,38.60921 13.9348,10.1965 33.21488,12.78344 49.22576,6.17755 22.53966,-11.71441 46.38962,-25.69959 66.39072,-36.97334 16.26451,27.68486 32.52903,55.36971 48.79355,83.05456 -19.95505,10.93021 -39.94081,21.80455 -59.84679,32.82211 -21.50083,10.56766 -28.1992,34.93576 -23.08301,58.29123 3.26232,24.92986 1.96416,49.90556 -2.17508,73.75745 -3.09717,25.8194 9.03631,45.56765 30.59714,56.34067 17.74021,9.55315 35.48041,19.10629 53.22062,28.65944 -16.25184,27.66267 -32.50368,55.32534 -48.75553,82.98801 -20.98244,-11.81868 -41.93855,-23.68268 -62.96278,-35.42295 -14.57457,-7.37709 -32.69464,-6.76851 -46.96717,1.04887 -22.50597,24.41032 -49.71818,44.25562 -75.92862,56.39163 -10.88286,10.96882 -17.91821,25.86112 -18.8222,41.33857 -0.31296,20.64269 -0.0789,42.54509 -0.20466,61.47667 -0.0168,0.93065 -1.29006,1.19086 -2.12627,1.02858 -43.23476,0.0165 -86.46962,0.0188 -129.7043,-0.0135 -2.64933,0.0138 -2.10062,-1.54444 -2.29289,-3.49036 -0.0464,-18.66388 0.0559,-37.32914 -0.0915,-55.99213 -0.76607,-25.67424 -16.4509,-45.46869 -39.98354,-56.0524 -16.21859,-9.25862 -28.79266,-19.78445 -41.3701,-31.12558 -18.63005,-16.69839 -42.43489,-24.81626 -64.41911,-11.88803 -20.07433,11.31658 -40.14866,22.63317 -60.22299,33.94975 -16.28987,-27.72604 -32.57974,-55.45208 -48.8696,-83.17813 20.17661,-11.43075 40.38453,-22.80666 60.51767,-34.31262 19.44925,-12.45493 26.78336,-33.5173 24.04101,-55.8559 -1.49429,-14.97376 -2.36369,-29.59567 -1.84398,-44.08356 0.543,-11.00479 1.29306,-20.62389 2.62345,-30.41525 1.83662,-26.03622 -8.47664,-44.44751 -30.23207,-55.58959 -17.92699,-9.80796 -35.85397,-19.61591 -53.78095,-29.42386 16.26515,-27.68485 32.5303,-55.36971 48.79545,-83.05455 20.98277,11.81748 41.93664,23.68479 62.96274,35.42113 13.60327,6.88154 30.31961,6.83333 44.07609,0.39421 11.80078,-7.1251 22.19751,-16.03818 32.35869,-24.59687 10.22619,-8.42938 20.78276,-16.64523 31.80293,-22.20915 19.07272,-10.31728 32.23327,-30.82322 33.51042,-52.48788 0.2699,-18.55947 -0.0125,-36.63215 0.18412,-53.88643 0.043,-0.76636 0.67255,-1.04218 1.69573,-1.02065 z" />
<path d="M 512,348.5 A 163.5,163.5 0 0 0 348.5,512 163.5,163.5 0 0 0 512,675.5 163.5,163.5 0 0 0 675.5,512 163.5,163.5 0 0 0 512,348.5 Z m 0,63.5 A 100,100 0 0 1 612,512 100,100 0 0 1 512,612 100,100 0 0 1 412,512 100,100 0 0 1 512,412 Z" /></svg>
