<?xml version="1.0" encoding="UTF-8" standalone="no"?>
<svg viewBox="0 0 1024 1024" version="1.1" width="1024" height="1024" xmlns="http://www.w3.org/2000/svg">
  <path d="m 512,72.443165 c -81.96898,0 -148.41013,65.694635 -151.69489,146.917085 -137.80943,58.52795 -230.52844,194.84431 -230.52844,349.97324 0,6.56947 -0.2986,13.73616 0,21.50007 C 84.536942,617.41004 53.332,666.23307 53.332,722.22284 c 0,84.05927 68.83005,152.88932 152.88933,152.88932 21.94799,0 43.14942,-4.6285 62.11129,-13.13893 66.29186,55.69114 152.59075,89.58361 243.66738,89.58361 91.07667,0 177.37552,-33.89247 243.66737,-89.58361 18.96188,8.51043 40.16331,13.13893 62.1113,13.13893 84.05928,0 152.88933,-68.83005 152.88933,-152.88932 0,-56.58699 -31.50357,-106.15658 -77.63911,-132.58373 0.59722,-6.12153 1.19444,-12.3924 1.19444,-20.30561 0,-155.12893 -92.71901,-291.44529 -230.52844,-349.97324 C 660.41017,138.1378 593.96898,72.443165 512,72.443165 Z m 0,76.444665 c 42.70153,0 76.44467,33.74317 76.44467,76.44466 0,42.70154 -33.74314,76.44467 -76.44467,76.44467 -42.70149,0 -76.44467,-33.74313 -76.44467,-76.44467 0,-42.70149 33.74318,-76.44466 76.44467,-76.44466 z M 377.02739,295.80492 c 25.68063,48.67377 76.44466,82.41691 134.97261,82.41691 58.52795,0 109.29198,-33.74313 134.97261,-82.4169 102.42393,49.71889 170.80606,154.23307 170.80606,273.52857 -84.05929,0 -152.88934,68.83005 -152.88934,152.88934 0,34.19106 11.79519,65.2467 31.05565,90.77804 C 644.88235,851.67114 579.18771,875.11216 512,875.11216 c -67.18768,0 -132.88231,-23.44102 -183.94498,-62.11129 19.26046,-25.53134 31.05565,-56.58698 31.05565,-90.77803 0,-84.0593 -68.83005,-152.88935 -152.88934,-152.88935 0,-119.29549 68.38217,-223.80968 170.80606,-273.52857 z M 206.22133,645.77816 c 42.70154,0 76.44467,33.74317 76.44467,76.44468 0,42.70153 -33.74313,76.44465 -76.44467,76.44465 -42.70149,0 -76.44466,-33.74312 -76.44466,-76.44465 0,-42.70151 33.74317,-76.44468 76.44466,-76.44468 z m 611.55734,0 c 42.70153,0 76.44466,33.74317 76.44466,76.44468 0,42.70153 -33.74313,76.44465 -76.44466,76.44465 -42.7015,0 -76.44467,-33.74312 -76.44467,-76.44465 0,-42.70151 33.74317,-76.44468 76.44467,-76.44468 z" />
</svg>
