<?xml version="1.0" encoding="UTF-8" standalone="no"?>
<svg version="1.1" viewBox="0 0 1024 1024" width="1024" height="1024" xmlns="http://www.w3.org/2000/svg">
<path d="m 159.8399,833.824 c 68.95192,-4.26742 136.92413,-45.47133 177.1577,-86.61251 107.33702,109.58959 251.75947,105.02021 350.38272,0 56.32555,46.88041 117.62372,86.61251 177.15769,86.61251 L 968.84757,550.39042 c 5.92722,-26.93988 -2.45805,-46.85608 -27.52874,-57.02381 l -78.74716,-25.5624 V 266.95683 c 0,-47.28575 -39.32676,-88.57885 -88.57884,-88.57885 H 644.02724 L 610.5995,70.13575 H 413.77842 L 380.35067,178.37798 H 250.38509 c -47.28575,0 -88.57885,39.32676 -88.57885,88.57885 V 467.71058 L 83.059078,493.27297 C 58.447826,503.1116 48.515249,526.0419 55.530346,548.33044 Z M 250.38509,266.95683 H 773.99283 V 440.18185 L 512.18895,355.53567 250.38509,438.21551 Z m 435.02889,555.06914 c -106.2759,74.81448 -242.14049,74.81448 -348.41638,0 0,0 -145.84363,117.02295 -218.4508,131.83828 83.79887,-0.13946 159.07057,-21.67991 218.4508,-53.18476 108.24222,57.11745 240.17415,57.11745 348.41638,0 79.65073,38.30088 137.65084,53.18476 218.45079,53.18476 C 831.56078,936.04637 685.41398,822.02597 685.41398,822.02597 Z" />
</svg>
