<?xml version="1.0" encoding="UTF-8" standalone="no"?>
<svg version="1.1" width="1024" height="1024" viewBox="0 0 1024 1024" xmlns="http://www.w3.org/2000/svg">
  <path d="M 256.38815,53.332 C 105.73463,64.144657 54.341212,328.72277 53.332,442.72202 57.466834,522.12254 74.128916,586.76774 119.02664,641.00037 98.2731,666.38239 64.08203,713.8617 64.08203,713.8617 l 54.94461,54.9446 c 0,0 37.92372,-52.25709 62.11129,-81.22246 79.27026,37.06687 181.52554,-13.44506 244.86182,-48.97236 20.30561,15.52782 43.14943,26.27785 66.88908,26.27785 89.11135,-7.13476 157.30902,-60.34487 210.22284,-118.25034 -2.81164,39.25404 24.58489,78.69216 57.3335,80.02801 46.76448,-3.6126 79.22796,-40.30355 111.08365,-65.69464 C 906.31712,533.50006 943.345,512 970.668,512 v -76.44467 c -82.62948,6.8278 -132.70144,57.44619 -192.30611,101.52808 0.0262,-31.56609 4.69208,-56.08764 -11.94448,-80.02801 -22.50293,-25.708 -53.05605,-26.45865 -77.63912,-5.97224 -49.99167,59.19343 -114.84471,120.41762 -180.36163,132.58371 27.32299,-21.94798 54.79529,-43.74665 74.05577,-68.08353 25.38202,-31.95148 44.19457,-64.50018 44.19457,-102.72252 0,-21.50006 -2.68751,-50.91334 -19.11117,-78.83356 -55.85027,-75.66049 -162.02445,-62.14839 -211.41728,8.36114 -25.97924,36.57996 -37.02788,83.46204 -37.02788,138.55595 0,37.47581 8.51044,68.53145 20.30561,95.55584 C 326.26335,604.42041 271.16944,626.667 228.91584,626.667 293.56534,529.76741 359.11067,397.78092 359.11067,237.27698 362.76334,161.23519 337.59158,56.683097 256.38815,53.332 Z M 282.666,237.27698 c 0,135.42053 -57.93072,253.96949 -115.86145,342.80655 -24.81215,-39.23737 -36.62478,-96.52079 -37.02788,-137.36151 0,-104.96211 25.0834,-186.33387 54.9446,-240.08403 61.4497,-106.040349 97.68023,-79.15811 97.94473,34.63899 z M 512,359.11067 c 33.13423,1.0767 37.99259,25.83384 38.22233,53.75015 -11.217,52.41707 -59.27542,90.93958 -97.94473,120.63924 C 418.64635,471.55175 455.85922,362.2059 512,359.11067 Z M 53.332,894.22333 V 970.668 h 917.336 v -76.44467 z" />
</svg>
