<?xml version="1.0" encoding="UTF-8" standalone="no"?>
<svg version="1.1" viewBox="0 0 1024 1024" width="1024" height="1024" xmlns="http://www.w3.org/2000/svg">
<path d="m 90.503611,458.05042 c 1.478071,-8.86842 0,-14.7807 -4.434212,-23.64913 C 52.073776,376.75654 46.161494,313.19951 60.942199,249.64247 77.200976,177.21701 118.58695,121.05033 186.57819,87.054711 c 82.77196,-44.342117 167.02198,-44.342117 249.79393,1.478071 5.91228,1.47807 11.82457,4.434211 20.69299,1.47807 106.42108,-11.824564 203.97374,8.868424 294.13604,69.469318 93.11845,62.07896 152.24127,149.28512 177.36847,260.14042 11.82457,47.29825 11.82457,97.55265 5.91229,146.32898 -1.47808,5.91229 -1.47808,11.82457 1.47807,19.21492 33.99562,57.64475 44.34211,121.20179 25.1272,187.71496 -19.21492,72.42546 -60.6009,128.59214 -127.11407,164.06584 -82.77196,44.34211 -168.50005,44.34211 -249.79393,-1.47807 -5.91228,-1.47807 -11.82457,-4.43421 -19.21492,-1.47807 -66.51317,8.86842 -131.54828,1.47807 -195.10531,-20.69299 C 287.08699,886.69089 217.61768,833.48035 165.88521,764.01103 100.94138,671.65249 66.551251,564.01784 90.503611,458.05042 Z M 513.23179,787.66016 c 119.05714,-5.95251 236.4188,-73.22612 223.18866,-192.14918 -13.14972,-66.64235 -54.03844,-101.49091 -112.33337,-119.72371 -44.34211,-14.78071 -90.1623,-25.1272 -135.98249,-36.95177 -42.13796,-6.79036 -107.37263,-42.48848 -81.29388,-85.72809 34.21111,-49.23939 151.69402,-51.50535 183.28075,5.91228 10.28201,19.14955 25.03581,46.73093 42.86405,54.68861 64.69418,15.2359 90.1802,-46.15323 60.60089,-91.64037 -44.70116,-65.16234 -121.03884,-82.45145 -189.19303,-82.77195 -99.34685,-1.17616 -209.78513,43.01548 -221.71059,137.46056 -4.43421,50.2544 16.25878,90.1623 56.16668,116.76758 73.20601,55.32968 169.88098,39.31674 243.88165,81.29388 36.95176,22.17106 39.9079,70.94738 5.91228,97.55265 -16.25878,14.78071 -36.95176,22.17106 -60.60089,25.1272 -59.85725,10.96541 -112.63687,-7.1931 -141.89478,-56.16668 -5.91228,-16.25877 -14.7807,-29.56141 -25.1272,-44.34211 -33.24888,-44.79314 -110.01064,8.12411 -85.72809,65.0351 42.50658,96.01955 147.41451,125.37042 237.96936,125.636 z" />
</svg>
