<?xml version="1.0" encoding="UTF-8" standalone="no"?>
<svg viewBox="0 0 1024 1024" width="1024" height="1024" xmlns="http://www.w3.org/2000/svg" version="1.1">
  <path d="m 511.34766,53.332031 c -8.70319,0 -17.40516,4.747804 -22.15235,14.242188 L 359.4375,341.32812 74.607422,384.05273 c -20.571165,3.16479 -28.48413,30.06506 -12.660156,44.30665 l 207.294924,213.625 -49.05469,299.07226 c -3.1648,20.57117 17.40576,37.97754 36.39453,25.31836 L 514.51367,825.54102 770.86133,966.375 c 17.40638,9.49438 39.55969,-6.32959 34.8125,-25.31836 l -49.05469,-299.07226 207.29492,-213.625 c 12.65918,-14.24158 6.32899,-41.14186 -14.24218,-44.30665 L 663.25781,339.74609 533.50195,67.574219 C 528.75476,58.079835 520.05084,53.332031 511.34766,53.332031 Z m 0.0449,64.046879 114.5039,240.17968 c 5.89104,12.35375 17.5077,20.99697 31.03321,23.08985 L 913.95508,420.4082 726.91602,613.16016 c -9.12942,9.40882 -13.26202,22.5862 -11.14063,35.52343 L 759.07617,912.67578 534.44336,789.26562 c -7.14571,-3.92522 -15.17078,-5.59183 -23.0559,-4.99675 l 0.005,-666.88998 z" />
</svg>
