<?xml version="1.0" encoding="UTF-8" standalone="no"?>
<svg viewBox="0 0 1024 1024" width="1024" height="1024" xmlns="http://www.w3.org/2000/svg" version="1.1">
  <path d="M 511.34766 53.332031 C 502.64447 53.332031 493.9425 58.079835 489.19531 67.574219 L 359.4375 341.32812 L 74.607422 384.05273 C 54.036257 387.21752 46.123292 414.11779 61.947266 428.35938 L 269.24219 641.98438 L 220.1875 941.05664 C 217.0227 961.62781 237.59326 979.03418 256.58203 966.375 L 514.51367 825.54102 L 770.86133 966.375 C 788.26771 975.86938 810.42102 960.04541 805.67383 941.05664 L 756.61914 641.98438 L 963.91406 428.35938 C 976.57324 414.1178 970.24305 387.21752 949.67188 384.05273 L 663.25781 339.74609 L 533.50195 67.574219 C 528.75476 58.079835 520.05084 53.332031 511.34766 53.332031 z M 511.39258 117.37891 L 625.89648 357.55859 A 41.393658 41.393658 0 0 0 656.92969 380.64844 L 913.95508 420.4082 L 726.91602 613.16016 A 41.393658 41.393658 0 0 0 715.77539 648.68359 L 759.07617 912.67578 L 534.44336 789.26562 A 41.393658 41.393658 0 0 0 494.67773 789.21484 L 266.60938 913.74219 L 310.08594 648.68359 A 41.393658 41.393658 0 0 0 298.94531 613.16016 L 111.82227 420.32227 L 365.57812 382.25977 A 41.393658 41.393658 0 0 0 396.83789 359.05664 L 511.39258 117.37891 z " />
</svg>
