<?xml version="1.0" encoding="UTF-8" standalone="no"?>
<svg width="1024" height="1024" viewBox="0 0 1024 1024" xmlns="http://www.w3.org/2000/svg" version="1.1">
 <path d="m 164.65096,481.06081 c 49.13526,-3.74467 88.88775,-40.7772 96.61583,-92.41547 -71.41214,0 -136.52264,0 -207.934779,0 9.032202,57.9576 56.539079,96.59013 111.318949,92.41547" />
 <path d="m 311.61233,96.840151 c -40.06324,0.106667 -80.1265,0.206267 -120.18974,0.312933 -18.46261,0.04267 -33.49067,12.635996 -39.87978,29.957996 -85.608239,232.12946 0.50559,-1.00973 -85.414824,230.92773 H 262.73234 L 311.61233,96.840151" />
 <path d="M 478.52745,563.24161 V 900.60804 H 259.41299 V 563.24161 Z m 107.81897,19.0328 c 0,-10.5112 8.52166,-19.0328 19.03291,-19.0328 h 149.74456 c 10.51694,0 19.03574,8.5216 19.03574,19.0328 V 732.024 c 0,10.50987 -8.5188,19.02867 -19.03574,19.02867 H 605.37933 c -10.51125,0 -19.03291,-8.5188 -19.03291,-19.02867 z M 261.15159,453.68468 c -6.57398,10.11946 -21.1242,29.47879 -46.95294,43.47506 -10.13154,5.4896 -35.41844,17.42653 -68.45119,15.4064 -10.52049,-0.6436 -19.17298,-2.54 -25.20369,-4.2004 0.41599,117.4812 0.83197,234.96453 1.24795,352.44998 0.13155,37.38174 30.4764,67.61708 67.86169,67.61708 h 648.80965 c 37.48129,0 67.85884,-30.38467 67.85884,-67.85884 V 505.04921 c -4.7216,1.93346 -11.88934,4.45773 -20.86323,6.02213 -33.72677,5.87787 -61.16042,-7.3476 -74.7777,-13.9116 -27.83187,-13.41387 -45.69434,-32.46746 -55.64952,-45.2144 -4.94204,7.12654 -40.75228,57.00987 -106.08109,62.60467 -51.51384,4.4116 -102.04284,-20.37467 -132.1644,-64.344 -4.76712,7.17707 -43.73103,63.71253 -116.51342,69.5612 -85.38852,6.85986 -136.59588,-62.53347 -139.12095,-66.08253" />
 <path d="m 499.39567,96.363751 c -51.44986,0.128 -102.90041,0.263067 -154.35027,0.391067 L 296.15262,358.03881 H 499.39567 V 96.363751" />
 <path d="m 283.14261,436.23108 c 26.58605,34.26999 68.24923,54.60066 111.9127,52.23346 42.63239,-2.31173 81.31684,-25.94533 104.34036,-61.92906 v -37.1948 H 290.25843 l -7.11582,46.8904" />
 <path d="m 532.43765,427.73508 c 26.09398,37.49053 69.85841,59.34853 114.77411,55.51226 36.3343,-3.1032 69.28599,-22.67933 90.82475,-52.3088 l -6.07977,-41.59786 H 532.43765 v 38.3944" />
 <path d="m 770.85309,426.95921 c 25.1582,40.91306 71.52805,62.91826 114.60558,54.54946 41.38515,-8.04013 75.30391,-43.24173 85.20932,-88.68999 -0.42665,-1.1584 -0.85331,-2.31814 -1.27995,-3.478 H 765.35641 l 5.49668,37.61853" />
 <path d="M 532.43765,96.278418 V 358.03881 H 726.15429 L 678.94534,95.901484 c -48.83802,0.128 -97.6725,0.248934 -146.50769,0.376934" />
 <path d="m 809.38679,95.567351 c -32.35437,0.08533 -64.70874,0.163467 -97.06312,0.2488 L 759.54683,358.03881 H 957.84002 L 848.58179,122.80895 c -6.05133,-16.40467 -21.70942,-27.284266 -39.195,-27.241599" />
</svg>
