<?xml version="1.0" encoding="UTF-8" standalone="no"?>
<svg version="1.1" width="1024" height="1024" viewBox="0 0 1024 1024" xmlns="http://www.w3.org/2000/svg">
  <path d="M 382.2592,75.841344 C 226.77154,132.01832 124.22755,279.89835 124.51414,442.7873 c 0.0183,70.96118 -0.008,141.92255 0.0215,212.88364 0.0571,33.61832 23.6027,68.99975 47.89782,84.84823 6.73457,4.24352 14.3044,8.00626 21.36573,10.38732 4.34305,4.00182 1.87228,13.85804 2.12326,18.92306 2.43195,85.25397 92.99631,165.06266 168.62914,165.15632 17.93715,0.1667 37.28551,0.0626 52.98084,0.0749 10.90396,19.21645 29.37388,32.3931 50.84062,35.11545 27.08613,1.03278 56.63786,0.51369 81.08209,0.44334 31.60543,-0.43943 57.97147,-20.85598 62.99125,-49.70933 1.82311,-7.62058 2.53664,-15.14331 2.1187,-22.10915 -0.5014,-35.93619 -33.42702,-61.43433 -69.82739,-62.44747 -23.43255,0.0115 -46.86565,-0.0326 -70.29783,0.0319 -26.2973,2.27035 -44.20882,13.66594 -56.89956,35.5613 -16.92901,-0.0155 -33.85869,0.0417 -50.78729,-0.0406 -61.32065,0.10354 -107.95891,-53.55912 -107.94049,-111.69987 0.89656,-5.84244 11.4813,-3.12999 15.59832,-3.10715 h 55.59186 V 444.84123 H 187.62039 c -0.12157,-17.74765 1.02502,-35.51447 3.73374,-53.05925 15.65881,-140.64482 131.55101,-229.62705 232.32647,-266.96878 69.51546,-22.0315 159.7778,-8.69925 227.36905,23.10639 107.11965,54.18579 178.71402,145.6703 184.67077,272.59946 -0.25913,4.16731 2.86966,24.21405 -1.58549,24.34498 -45.83279,-0.0552 -92.86605,-0.0228 -140.14256,-0.0228 v 312.25796 c 34.91785,-0.004 69.83615,0.0167 104.75374,-0.0246 58.57498,-3.05334 101.20803,-47.48288 100.7288,-104.54571 -0.004,-71.68114 0.0107,-143.36243 -0.019,-215.04346 C 901.25675,268.90589 786.10649,135.54186 651.32139,79.419398 558.61535,47.020057 471.64774,44.502473 382.2592,75.841344 Z M 189.65178,507.95512 h 77.23697 v 186.02996 c -13.80027,-0.0186 -27.60162,0.0473 -41.40117,-0.0421 -23.0485,0.41406 -38.16739,-19.09849 -37.85142,-40.65325 -6.4e-4,-48.44487 -10e-4,-96.88973 -0.002,-145.3346 h 2.01757 z m 569.47218,0 h 77.23697 c -0.002,49.20018 0.013,98.40073 -0.019,147.60068 -2.6614,23.04784 -19.03897,38.73953 -40.67793,38.42738 -12.85252,5.9e-4 -25.70506,0.001 -38.55759,0.002 V 507.95521 h 2.01756 z" />
</svg>
