<?xml version="1.0" encoding="UTF-8" standalone="no"?>
<svg version="1.1" viewBox="0 0 1024 1024" width="1024" height="1024" xmlns="http://www.w3.org/2000/svg">
<path d="m 211.43205,553.65455 c 0,-6.64601 2.43375,-13.1048 6.4588,-19.09557 h 588.2183 c 3.93144,5.99077 6.4588,12.44956 6.4588,19.09557 0,30.14104 -44.08829,55.60179 -96.13307,55.60179 H 307.56512 c -52.04478,0 -96.13307,-25.46075 -96.13307,-55.60179 z M 970.668,572.84372 c 0,26.2096 -18.72114,47.5517 -41.74815,47.5517 h -10.20302 c 10.46008,38.00893 8.77406,77.45971 8.70533,109.05066 0,54.47852 -13.29201,101.46859 -43.24584,124.40199 v 61.21814 c 0,30.70267 -21.90374,55.60179 -48.86218,55.60179 H 790.477 c -26.95845,0 -48.86218,-24.89912 -48.86218,-55.60179 v -46.42844 h -458.668 v 46.42844 c 0,30.70267 -21.90374,55.60179 -48.95579,55.60179 h -44.93074 c -26.95845,0 -48.95579,-24.89912 -48.95579,-55.60179 V 853.84807 C 110.15067,830.91467 96.858657,784.01821 96.858657,729.44608 96.74152,692.95086 94.808402,652.87029 105.47038,620.58263 c 0,-0.0936 0.0936,-0.18721 0.0936,-0.28082 H 95.26736 C 72.053143,620.39542 53.332,599.05332 53.332,572.84372 c 0,-26.30321 18.721143,-47.55171 41.748149,-47.55171 h 40.718481 c 5.8408,0.35066 40.48656,-95.83319 57.2867,-134.97944 18.19916,-42.40614 57.19309,-75.07178 94.07374,-75.07178 h 58.50358 c 5.89716,-52.79362 44.3691,-93.88653 91.17196,-93.88653 h 150.04996 c 46.89646,0 85.27481,41.09291 91.17197,93.88653 h 58.50357 c 36.22541,0 73.41708,34.83906 94.07374,74.97818 24.31012,47.23835 46.40398,134.71274 57.47391,135.07304 h 40.81209 c 23.02701,0 41.74815,21.2485 41.74815,47.55171 z M 187.00096,553.65455 c 0,44.83713 52.98083,80.03288 120.56416,80.03288 h 408.86976 c 67.67693,0 120.56416,-35.19575 120.56416,-80.03288 -4.02008,-48.53148 -31.51227,-101.3533 -51.76396,-145.55689 -9.73499,-24.71191 -33.97887,-43.90108 -48.48776,-43.90108 H 287.34629 c -14.41528,0 -38.75277,19.18917 -48.48776,43.99469 -19.76361,46.80072 -51.53957,98.40542 -51.85757,145.46328 z m 135.44747,189.55157 c 0,-31.63873 -34.72772,-57.47391 -77.59914,-57.47391 -42.77781,0 -77.50553,25.74157 -77.50553,57.47391 0,31.63873 34.72772,57.3803 77.50553,57.3803 42.87142,0 77.59914,-25.64797 77.59914,-57.3803 z m 534.30142,0 c 0,-31.63873 -34.72772,-57.47391 -77.50554,-57.47391 -42.77781,0 -77.59913,25.74157 -77.59913,57.47391 0,31.63873 34.72772,57.3803 77.59913,57.3803 42.77782,0 77.50554,-25.64797 77.50554,-57.3803 z" />
</svg>
