<?xml version="1.0" encoding="UTF-8" standalone="no"?>
<svg version="1.1" viewBox="0 0 1024 1024" width="1024" height="1024" xmlns="http://www.w3.org/2000/svg">
<path d="m 740.59951,53.336909 c -153.39422,0.0017 -306.78861,-0.0061 -460.18273,0.01743 -65.16287,-0.0085 -112.97323,56.222941 -112.97807,117.848211 0.004,249.56722 0.002,499.13452 0.0101,748.70169 2.97572,44.83517 59.18894,54.03904 79.93246,19.40402 18.10204,-30.0806 36.25473,-60.131 54.37468,-90.20096 23.44906,34.48126 46.88831,68.96985 70.36571,103.43144 16.91257,21.48905 46.87428,22.8988 63.74245,5.37377 26.31816,-37.39138 53.67408,-78.88184 76.13582,-112.14434 24.04002,35.59826 48.07362,71.19842 72.14343,106.77622 16.93778,21.58987 47.15687,22.78959 63.91472,5.18502 25.52556,-36.2844 52.25746,-76.37518 74.15113,-108.57006 18.82199,31.66792 37.62899,63.34541 56.48641,94.99184 23.49177,31.50411 69.72877,20.77832 77.05427,-15.20821 1.67104,-263.57763 0.80905,-535.6162 0.80036,-762.08397 C 856.68353,102.47672 802.48534,53.714883 740.59951,53.336909 Z M 282.39013,116.7149 c 153.4603,6.9e-4 306.92071,-0.004 460.38094,0.0159 27.54125,0.86058 49.85106,23.76645 50.38971,50.75714 0.059,223.76768 0.0243,450.59103 0.0243,675.39032 -11.38787,-19.3394 -22.73811,-38.69856 -34.1728,-58.00974 -22.80504,-30.12947 -56.8398,-18.00981 -74.1333,7.0152 -21.83027,32.53069 -43.66055,65.06137 -65.49081,97.59204 -24.56302,-35.21859 -49.1135,-70.44645 -73.7087,-105.64226 -21.84767,-27.39481 -54.55227,-17.71269 -71.2208,5.63655 -22.83378,33.81079 -45.66754,67.62158 -68.50132,101.43237 -24.07011,-35.1731 -48.12707,-70.35578 -72.22713,-105.50801 -20.22955,-24.50922 -54.29348,-23.94081 -70.07099,3.15103 -10.97947,18.21393 -21.89249,36.47057 -32.84447,54.70298 0.006,-225.26002 -9.8e-4,-450.52019 0.0123,-675.78014 0.2337,-28.7492 25.76014,-49.9443 51.56307,-50.75338 z" /><path d="m 354.89608,327.20981 c -44.0629,3.94675 -36.70946,66.20736 3.47554,64.83322 104.02965,-9.9e-4 208.0596,0.005 312.08906,-0.0166 43.67586,-3.53195 36.31322,-63.46715 -1.67155,-64.80828 -108.92327,-0.0485 -220.45285,-0.0286 -313.89305,-0.008 z" /><path d="m 666.98241,483.26198 c -104.02798,-9.8e-4 -208.05626,-0.007 -312.08406,0.0187 -44.08772,3.98148 -36.73009,66.17431 3.47327,64.8303 104.03029,-9.9e-4 208.06088,0.005 312.09099,-0.0167 45.78594,-4.30128 36.80933,-65.14173 -3.4802,-64.8323 z" />
</svg>
