<?xml version="1.0" encoding="UTF-8" standalone="no"?>
<svg version="1.1" width="1024" height="1024" viewBox="0 0 1024 1024" xmlns="http://www.w3.org/2000/svg">
  <path d="m 328.80946,53.332031 c -42.19745,0 -76.40625,34.247857 -76.40625,76.445309 V 232.625 h 64.67969 l 0.0625,-51.21484 h 482.78906 v 661.45117 h -483.5918 l 0.0625,-52.23633 h -64.00195 v 103.59766 c 0,42.19747 34.2088,76.44531 76.40625,76.44531 h 458.66797 c 42.23568,0 76.48437,-34.24784 76.48437,-76.44531 V 129.77734 c 0,-42.197452 -34.24869,-76.445309 -76.48437,-76.445309 z m 129.37305,47.999999 h 200 v 32 h -200 z" />
  <path d="m 316.40278,296.62434 c -86.35175,0 -156.36458,70.01281 -156.36458,156.36462 0,117.2727 156.36458,273.63538 156.36458,273.63538 0,0 156.36464,-156.36267 156.36464,-273.63537 0,-86.35181 -70.01283,-156.36461 -156.36464,-156.36463 z m 0,78.18124 c 43.19547,0 78.18126,34.98793 78.18126,78.18338 0,43.15636 -34.98579,78.18124 -78.18126,78.18124 -43.19541,0 -78.1812,-35.02488 -78.1812,-78.18124 0,-43.19545 34.98579,-78.18338 78.1812,-78.18338 z" />
  <rect width="64" height="215" x="-651.12433" y="472.76746" ry="32" transform="rotate(-90)" />
  <rect width="64" height="215" x="-612.2674" y="-726.62433" ry="32" transform="scale(-1)" />
</svg>
