<?xml version="1.0" encoding="UTF-8" standalone="no"?>
<svg version="1.1" viewBox="0 0 1024 1024" width="1024" height="1024" xmlns="http://www.w3.org/2000/svg">
<path d="m 517.23427,53.363278 c -98.07965,-0.168489 -182.17431,0.365207 -186.83585,1.085968 -52.89637,9.14524 -95.92673,50.023264 -108.11415,103.097494 -1.97507,8.24662 -15.23828,215.51762 -15.23828,237.57103 0,2.68647 2.15233,3.76293 10.39896,5.38231 60.06654,11.65386 142.54168,57.19219 232.55256,128.73474 23.85063,19.00188 55.76142,46.08153 57.38079,48.76801 2.33077,3.76293 6.99195,1.25401 21.15444,-11.29846 20.4434,-18.29048 64.37252,-53.07444 90.01101,-71.36492 71.17749,-51.09914 135.55017,-84.09421 183.06422,-93.95085 7.71309,-1.61001 14.33939,-3.22998 14.70445,-3.40783 0.3557,-0.3557 -2.33106,-52.35236 -5.91615,-115.64828 -5.20445,-92.87519 -7.16929,-117.6256 -9.86513,-128.73655 -11.83171,-45.90406 -44.46289,-79.788309 -92.34201,-95.748017 l -12.55261,-4.305478 z m -2.11709,38.02899 c 6.8998,0.314218 13.65754,1.735428 19.50904,4.290853 10.9331,4.839399 24.56218,18.291139 29.40158,29.224239 6.27156,14.16249 6.09415,34.42738 -0.72032,48.23416 -5.38231,11.12031 -14.8842,20.62169 -26.71592,26.89325 -6.4494,3.40724 -10.39926,4.12815 -24.73959,4.12815 -14.34034,0 -18.29018,-0.72091 -24.73959,-4.12815 -11.83171,-6.27156 -21.33361,-15.7823 -26.71591,-26.89325 -6.81447,-13.62893 -7.16921,-34.25077 -0.89766,-47.87034 4.4837,-9.866 13.98449,-20.6214 23.48543,-26.359406 8.74039,-5.493463 20.6333,-8.043202 32.13294,-7.519506 z m 32.22986,113.854782 c 62.31795,6.72717 112.45804,13.00432 178.41138,19.53646 6.83759,2.22463 10.53665,7.12883 15.59478,12.18698 v 72.2644 c 0,77.63625 9.4e-4,77.81242 -9.32213,84.62688 l -4.83933,3.58516 -85.70554,-9.32213 C 535.52498,376.47094 542.50742,377.54637 536.59156,371.63051 l -5.01665,-4.83932 v -74.40526 c 0,-73.15256 -4.4e-4,-74.40752 3.76249,-79.06907 3.22939,-3.94078 7.71316,-6.99335 12.00964,-8.06981 z m -55.218,12.357 v 74.05059 c 0,79.06841 -8e-5,78.89166 -8.96747,83.73105 -3.05153,1.61002 -173.56312,21.51826 -184.31838,21.51826 -2.50862,0 -6.99173,-2.68625 -10.39897,-6.09348 l -6.09348,-6.0935 V 236.97049 c 3.94954,-3.75936 7.79853,-7.61997 11.65313,-11.4758 58.22335,-6.86564 116.62632,-12.22164 174.81708,-19.36643 11.43551,-0.51622 16.45366,4.1164 23.30809,11.47579 z m 326.14873,219.10228 -11.11929,2.50832 c -64.90593,14.71475 -160.29005,74.59379 -263.5648,165.14758 -23.30772,20.4434 -28.14712,23.30868 -36.03805,21.3336 -2.33077,-0.54291 -15.06065,-10.40058 -28.33389,-21.87659 C 374.69268,512.55405 281.4514,454.10704 216.54547,439.22379 l -11.11929,-2.50833 c -4.52487,50.17383 -6.22031,91.98586 -8.41534,132.68554 -6.27156,116.54799 -6.45884,121.92108 -3.58515,134.47356 6.27155,27.96927 22.77329,49.66603 48.94534,64.54927 13.62893,7.71308 27.25012,10.4008 52.89798,10.4008 12.55247,0 22.95158,0.35475 22.95158,0.89766 0,0.54292 -29.40136,37.64879 -65.44876,82.65423 -57.38007,71.89825 -65.44877,82.66176 -65.44878,88.03471 0,12.18741 7.71257,20.25677 19.36644,20.25677 20.53757,-0.62478 23.52866,-19.1058 38.36903,-37.65786 h 533.5869 c 10.3887,10.80824 17.67036,25.68414 29.58075,34.96123 7.89092,5.56015 22.05224,1.43325 26.18023,-7.53414 5.56016,-12.00956 6.28041,-10.93427 -63.47428,-98.08082 -36.03805,-45.00544 -65.43779,-82.11886 -65.43779,-82.65241 0,-0.53355 10.22126,-0.89948 22.95158,-0.89948 12.55247,0 26.35853,-0.89803 30.84222,-1.97449 24.02849,-5.56016 50.02327,-25.81569 61.67713,-48.23417 12.90817,-24.56203 12.90767,-22.95253 5.55965,-157.78163 -3.88771,-44.56737 -2.80775,-89.67521 -8.24714,-134.1079 z M 340.44271,591.80961 c 12.73032,4.66155 26.35787,17.74764 32.27373,31.19872 4.30584,9.50094 5.0187,12.73003 4.3073,24.7396 -1.43216,31.7322 -24.74149,54.5063 -55.94015,54.68415 -27.43572,0.17785 -48.94599,-16.85751 -55.93831,-44.10602 -6.99232,-26.71496 8.24728,-55.76091 34.60654,-65.98261 13.32191,-4.22816 27.91324,-4.991 40.69089,-0.53384 z m 383.70686,0.72027 c 12.73033,4.66154 24.9165,16.4942 31.01956,29.75807 17.03617,37.29236 -11.1195,80.32192 -52.5305,80.14407 -39.26743,-0.3557 -66.16083,-39.08877 -53.25265,-77.10189 3.94078,-11.65387 21.33338,-29.40173 32.80939,-33.52972 13.92656,-3.79784 28.88189,-4.095 41.9542,0.72947 z M 368.59926,778.81365 h 286.52553 c 10.47363,12.74027 20.7309,25.6536 31.00128,38.55735 -116.98807,1.01286 -232.18172,0.71291 -348.54819,0 10.19366,-12.97087 20.6138,-25.75852 31.02138,-38.55735 z m -62.03363,77.10373 h 410.59096 l 14.51797,18.46876 14.70627,18.28961 c -157.50048,1.01284 -312.43432,0.713 -469.04675,0 9.88751,-12.13885 19.55278,-24.45345 29.23155,-36.75837 z" />
</svg>
