<?xml version="1.0" encoding="UTF-8" standalone="no"?>
<svg version="1.1" viewBox="0 0 1024 1024" width="1024" height="1024" xmlns="http://www.w3.org/2000/svg">
<path d="M 506.85541,0.01170612 C 419.02938,-0.51187388 333.26756,16.531194 300.1551,50.198286 c -9.84656,20.900318 15.47366,38.578675 34.35848,24.113259 15.07426,-11.45266 54.05183,-25.120353 84.99816,-29.739208 l 7.03243,-1.008735 c 15.50139,26.454547 31.16937,52.809869 46.82823,79.171288 -116.07734,2.17772 -145.62969,-0.82234 -189.49852,4.82839 -39.52501,17.86816 -69.0889,44.86402 -75.75963,85.60709 -10.90727,184.66802 -35.36362,578.28472 -28.74278,600.63975 6.62085,22.35503 45.44271,32.40075 65.3053,41.40321 L 127.32529,994.8697 c -4.80781,12.6494 6.04773,29.1303 19.10649,29.1303 23.44612,-7.665 29.55419,-21.8602 47.01687,-42.19872 h 637.00338 c 11.15328,10.78152 23.33982,31.46222 35.96384,39.58462 16.27097,9.2377 36.77336,-8.8383 30.13901,-26.5264 -41.00184,-50.52589 -73.66314,-87.73955 -118.96709,-140.46627 24.70954,-11.12358 65.26205,-27.18648 72.53661,-50.42852 7.27456,-23.24204 -20.37308,-399.6217 -34.75622,-592.7995 -6.02551,-36.77238 -36.97291,-70.92977 -75.36189,-83.58963 -69.48576,-4.86303 -110.29137,-3.77776 -189.49852,-4.83044 15.71783,-26.326529 31.26788,-52.751604 46.82824,-79.171286 l 7.03448,1.008734 c 31.95408,4.818305 69.52353,17.888221 84.79724,29.540332 9.44766,7.232706 16.07167,8.438841 24.31213,4.418338 8.63936,-4.020503 14.26506,-14.663798 12.45951,-23.313653 C 684.57103,18.62658 594.68145,0.53528512 506.85541,0.01170612 Z m 5.14003,37.51384288 c 12.65369,-0.0055 25.29163,0.932499 37.73528,2.827327 -11.53713,19.961901 -25.1913,40.472725 -37.78038,61.292904 -14.19128,-21.276084 -23.76873,-37.886529 -37.78038,-61.292904 12.50186,-1.873141 25.17179,-2.821905 37.82548,-2.827327 z M 696.01499,214.37798 c 17.26505,0.0445 33.94099,18.66287 34.76648,33.36 l 12.66928,253.80738 c -8.63936,16.48091 -43.20729,31.95309 -89.22788,40.19354 -106.42191,11.9979 -190.17093,11.07145 -292.78306,-1.20761 -48.83389,-9.84655 -79.17293,-25.91659 -84.00174,-44.413 l 11.01498,-248.37006 c 1.03422,-13.40837 20.42125,-33.09132 34.15961,-33.35999 z M 318.21185,655.1067 c 26.08898,0 47.23829,21.14931 47.23829,47.23829 0,26.08898 -21.14931,47.23829 -47.23829,47.23829 -26.08898,0 -47.23828,-21.14931 -47.23828,-47.23829 0,-26.08898 21.1493,-47.23829 47.23828,-47.23829 z m 386.83524,0 c 26.08898,0 47.23829,21.14931 47.23829,47.23829 0,26.08898 -21.14931,47.23829 -47.23829,47.23829 -26.08898,0 -47.23829,-21.14931 -47.23829,-47.23829 0,-26.08898 21.14931,-47.23829 47.23829,-47.23829 z M 267.40404,895.38638 h 489.11515 c 11.7243,13.67292 23.3377,27.44039 34.95715,41.20228 -187.65377,1.13535 -372.38594,0.79852 -559.02945,0 11.58017,-13.7952 23.27211,-27.49604 34.95715,-41.20228 z" />
</svg>
