<?xml version="1.0" encoding="UTF-8" standalone="no"?>
<svg width="1024" height="1024" viewBox="0 0 1024 1024" xmlns="http://www.w3.org/2000/svg" version="1.1">
<path d="m 434.67893,53.332001 c -33.66595,1.603141 -61.42809,27.670559 -61.42809,61.686429 v 46.92225 H 236.8393 c -34.01587,0 -61.71342,27.66864 -61.71342,61.68451 v 107.11838 c 0,17.83471 14.52772,32.36051 32.36243,32.36051 h 16.07904 v 491.58857 c 0,63.44577 52.5585,115.97535 116.00427,115.97535 H 684.4573 c 63.44576,0 115.97536,-52.52958 115.97536,-115.97535 V 360.1524 h 16.10794 c 17.83472,0 32.33352,-14.4988 32.33352,-32.33351 V 220.38625 l -0.0289,-0.28727 c -3.21458,-32.15271 -29.31804,-58.1583 -63.14589,-58.1583 H 649.28585 v -46.92225 c 0,-34.01587 -27.69754,-61.686429 -61.71342,-61.686429 H 434.82159 Z m 1.80647,63.205649 h 149.56782 v 45.40303 H 436.4854 Z M 239.8199,223.68302 h 167.25475 211.341 167.25475 v 73.26566 H 239.8199 Z m 46.95309,136.46938 h 450.45402 v 487.14467 h -1.46139 v 5.9342 c 0,29.05661 -23.74201,52.7697 -52.79861,52.7697 H 339.57162 c -29.0566,0 -52.79863,-23.71309 -52.79863,-52.7697 z" /><path d="m 511.26835,499.48862 c -17.83471,0 -32.33159,14.49881 -32.33159,32.33351 v 194.02616 l 0.0289,0.28726 c 1.71266,17.12662 14.86473,30.26869 32.30459,30.26869 17.83471,0 32.33159,-14.49881 32.33159,-32.33352 V 531.82213 c 0,-17.8347 -14.49688,-32.33351 -32.33159,-32.33351 z" /><path d="m 634.55252,499.48862 c -17.83471,0 -32.33159,14.49881 -32.33159,32.33351 v 194.02616 l 0.0289,0.28726 c 1.75157,17.51561 16.02522,30.26869 32.3046,30.26869 17.83469,0 32.33159,-14.49881 32.33159,-32.33352 V 531.82213 c 0,-17.8347 -14.4969,-32.33351 -32.33159,-32.33351 z" /><path d="m 387.98417,499.48862 c -17.83469,0 -32.33159,14.49881 -32.33159,32.33351 v 193.70998 c 0,17.83471 14.89174,30.87213 32.33159,30.87213 17.83471,0 32.33352,-14.49881 32.33352,-32.33352 V 531.82213 c 0,-17.8347 -14.49881,-32.33351 -32.33352,-32.33351 z" />
</svg>
