<?xml version="1.0" encoding="UTF-8" standalone="no"?>
<svg height="1024" width="1024" viewBox="0 0 1024 1024" xmlns="http://www.w3.org/2000/svg" version="1.1">
  <path d="m 409.48517,53.332 c -40.92623,0 -73.92087,33.018194 -73.92087,73.97154 v 70.97808 H 141.72128 c -15.16786,0 -27.45772,12.28974 -27.45772,27.4577 0,15.16818 12.28987,27.45772 27.45772,27.45772 h 24.76632 l 51.07419,619.98233 c 4.11463,54.71908 50.24942,97.48863 105.15552,97.48863 h 378.56334 c 54.90882,0 101.04471,-42.77361 105.1555,-97.49643 l 0.004,-0.037 51.0703,-619.93751 h 24.76827 c 15.16802,0 27.45772,-12.28955 27.45772,-27.45772 0,-15.16795 -12.28969,-27.4577 -27.45772,-27.4577 H 688.35375 c 0.21098,-8.57779 -0.16176,-37.15145 -0.16176,-70.97808 0,-40.953329 -32.99447,-73.97154 -73.92087,-73.97154 z m 188.4797,54.9622 h 0.0273 0.002 c 5.23116,-0.007 10.44491,-0.0487 15.64363,0.0409 h 0.01 0.0818 l 0.0156,-0.002 h 0.002 c 8.60236,-0.47005 17.16582,6.16591 18.88655,14.59903 0.77565,20.13519 0.59058,53.38775 0.65678,75.34941 H 390.52066 c -0.0133,-12.59541 4.6e-4,-34.18868 0.0215,-44.15374 l -0.002,0.0156 c 0.19165,-9.1785 -0.26062,-18.28116 0.13252,-27.29206 v -0.0215 -0.0409 -0.0272 -0.0117 c -0.20951,-8.80295 7.28673,-17.06894 15.96325,-18.19472 63.77223,-0.2698 127.55016,-0.2265 191.32896,-0.26115 z m -376.365,144.90284 H 802.2149 l -50.68638,615.89553 c -1.97333,26.09416 -24.15599,46.65805 -50.24787,46.65805 H 322.71731 c -26.28163,0 -48.27215,-20.5569 -50.24593,-46.65805 z" />
  <path d="m 667.83157,793.02464 21.68756,-413.82152 c 0.77937,-14.8714 -10.49433,-27.39211 -25.36551,-28.17148 -14.8715,-0.77938 -27.39213,10.49435 -28.1715,25.36575 l -21.6874,413.82152 c -0.77937,14.8714 10.49417,27.39195 25.36535,28.17132 14.8715,0.77937 27.39229,-10.49419 28.1715,-25.36559 z" />
  <path d="M 538.7122,791.90573 V 377.51631 c 0,-14.89182 -11.91354,-26.80536 -26.80535,-26.80536 -14.89181,0 -26.8052,11.91354 -26.8052,26.80536 v 414.38942 c 0,14.89181 11.91339,26.80519 26.8052,26.80519 14.89181,0 26.80535,-11.91338 26.80535,-26.80519 z" />
  <path d="m 409.51914,790.21891 -21.6874,-413.82152 c -0.77937,-14.8714 -13.30016,-26.14512 -28.17166,-25.36575 -14.87118,0.77937 -26.14472,13.30008 -25.36535,28.17148 l 21.68756,413.82152 c 0.77921,14.8714 13.29984,26.14497 28.17134,25.36559 14.87118,-0.77937 26.14488,-13.29992 25.36551,-28.17132 z" />
</svg>
