<?xml version="1.0" encoding="UTF-8" standalone="no"?>
<svg width="1024" height="1024" viewBox="0 0 1024 1024" version="1.1" xmlns="http://www.w3.org/2000/svg">
  <path d="m 411.66564,0 -39.63043,160.36647 c -0.004,0.004 -0.007,0.006 -0.0121,0.0105 -129.25727,19.18737 -218.84618,64.39277 -218.84618,118.27441 v 76.89051 h -12.81577 c -21.22505,0 -38.44525,17.20417 -38.44525,38.44525 v 128.15154 c 0,21.22507 17.2202,38.44524 38.44525,38.44524 h 12.81577 v 256.30307 c 0,28.30542 22.95357,51.26101 51.25898,51.26101 v 51.26106 c 0,28.30528 22.95559,51.25894 51.26103,51.25894 h 51.26102 c 28.30541,0 51.26101,-22.95366 51.26101,-51.25894 V 868.148 h 307.56204 v 51.26106 c 0,28.30528 22.95565,51.25894 51.26102,51.25894 h 51.26103 c 28.30547,0 51.26099,-22.95366 51.26099,-51.25894 V 868.148 h 10.25061 c 25.63031,0 41.0084,-20.5042 41.0084,-41.00842 V 560.58353 h 12.81576 c 21.2251,0 38.44526,-17.22017 38.44526,-38.44524 V 393.98675 c 0,-21.24108 -17.22018,-38.44526 -38.44526,-38.44526 h -12.81576 v -76.89051 c 0,-56.38395 -98.28339,-103.13705 -237.28744,-120.64675 L 662.49942,0 h -50.16513 l -38.12663,152.36247 -2.1106,0.0223 c -19.56047,-1.1477 -39.54133,-1.88532 -60.09708,-1.88532 -28.13427,0 -55.32611,1.22732 -81.50744,3.34651 l -1.70876,0.0183 L 461.8328,1.07e-4 Z m -40.63295,253.02149 h 281.93458 c 7.08026,0 12.81372,5.73542 12.81372,12.81576 v 25.6295 c 0,7.08036 -5.73346,12.81575 -12.81372,12.81575 H 371.03269 c -7.08036,0 -12.81374,-5.73539 -12.81374,-12.81575 v -25.6295 c 0,-7.08034 5.73338,-12.81576 12.81374,-12.81576 z m -64.07475,102.52 H 486.37047 V 611.84455 H 306.95794 c -28.30541,0 -51.26103,-22.9556 -51.26103,-51.26102 V 406.80252 c 0,-28.30542 22.95561,-51.26103 51.26103,-51.26103 z m 230.67151,0 h 179.41256 c 28.30547,0 51.26103,22.95561 51.26103,51.26103 v 153.78101 c 0,28.30542 -22.95556,51.26102 -51.26103,51.26102 H 537.62945 Z M 281.32844,688.73506 c 28.3054,0 51.25898,22.95561 51.25898,51.26102 0,28.30541 -22.95358,51.26103 -51.25898,51.26103 -28.30541,0 -51.26101,-22.95562 -51.26101,-51.26103 0,-28.30541 22.9556,-51.26102 51.26101,-51.26102 z m 461.34306,0 c 28.30538,0 51.261,22.95561 51.261,51.26102 0,28.30541 -22.95563,51.26103 -51.261,51.26103 -28.30547,0 -51.25898,-22.95562 -51.25898,-51.26103 0,-28.30541 22.95352,-51.26102 51.25898,-51.26102 z" />
</svg>
