<?xml version="1.0" encoding="UTF-8" standalone="no"?>
<svg version="1.1" viewBox="0 0 1024 1024" width="1024" height="1024" xmlns="http://www.w3.org/2000/svg">
<path d="m 338.88982,887.81184 c 349.17951,0 538.56501,-288.51696 538.56501,-538.56501 0,-5.91829 0,-16.27531 -1.47958,-25.15276 36.98936,-26.63233 69.53999,-60.66254 94.69275,-97.65189 -35.50978,16.27531 -71.01956,25.15276 -108.00892,29.59148 39.94851,-23.67319 69.53999,-60.66254 82.85616,-105.04976 -36.98936,20.71404 -75.45829,36.98935 -121.32509,45.8668 -35.50978,-36.98936 -82.85615,-60.66255 -137.6004,-60.66255 -105.04976,0 -190.86507,85.81531 -190.86507,190.86507 0,14.79574 1.47958,29.59148 4.43873,44.38723 -152.39615,-10.35702 -291.47612,-85.81531 -386.16887,-199.74251 -16.275314,29.59148 -25.152759,60.66253 -25.152759,94.69274 0,66.58084 34.030209,122.80466 85.815299,156.83486 -31.07105,-1.47957 -60.66254,-10.35702 -85.815299,-23.67318 0,1.47957 0,1.47957 0,1.47957 0,90.25403 65.101269,168.67146 150.916569,186.42635 -16.27532,4.43873 -34.03021,5.9183 -47.34638,5.9183 -11.83659,0 -25.15276,-1.47957 -35.50978,-4.43873 25.15276,75.45829 94.69275,130.20253 177.54891,131.68211 -65.10127,50.30552 -146.47785,81.37658 -233.77273,81.37658 -17.754886,2.95915 -32.550628,0 -47.34637,-1.47958 79.89701,56.22382 179.02848,87.29488 285.55782,87.29488 z" />
</svg>
