<?xml version="1.0" encoding="UTF-8" standalone="no"?>
<svg width="1024" height="1024" viewBox="0 0 1024 1024" xmlns="http://www.w3.org/2000/svg" version="1.1">
  <path d="M 356.19141 258.02344 A 518.44275 240.6185 10.22 0 0 1.7832031 420.01367 A 518.44275 240.6185 10.22 0 0 469.30664 748.80078 A 518.44275 240.6185 10.22 0 0 1022.2168 603.98633 A 518.44275 240.6185 10.22 0 0 554.69336 275.19922 A 518.44275 240.6185 10.22 0 0 356.19141 258.02344 z M 413.30078 337.63672 A 67.839571 67.839571 0 0 1 445.10156 345.16211 A 56.391644 56.391644 0 0 1 467.36133 366.36328 A 57.345638 57.345638 0 0 1 475.41797 396.67773 A 57.133639 57.133639 0 0 1 467.36133 426.99414 A 55.649648 55.649648 0 0 1 445.10156 448.19336 A 66.673579 66.673579 0 0 1 413.30078 455.7207 A 67.627573 67.627573 0 0 1 380.86523 447.55859 A 55.967646 55.967646 0 0 1 358.5 426.35742 A 57.133639 57.133639 0 0 1 350.44336 396.04297 A 57.345638 57.345638 0 0 1 358.5 365.72656 A 56.709642 56.709642 0 0 1 380.86523 344.52734 A 68.899564 68.899564 0 0 1 413.30078 337.63672 z M 186.99219 339.33203 L 221.54883 339.33203 L 258.01172 405.26367 L 296.70312 339.33203 L 327.6543 339.33203 L 327.6543 453.38867 L 298.29297 453.38867 L 298.29297 385.125 L 264.16016 442.36328 L 250.16797 442.36328 L 216.88477 385.125 L 216.88477 453.59961 L 186.99219 453.59961 L 186.99219 339.33203 z M 596.15039 339.33203 L 596.15039 453.38867 L 566.68164 453.38867 L 566.68164 420.74023 L 542.30273 420.74023 L 521.10352 453.38867 L 485.48633 453.38867 L 511.5625 416.07617 A 37.94776 37.94776 0 0 1 493.4375 402.61523 A 35.933773 35.933773 0 0 1 487.18359 381.41406 A 36.781768 36.781768 0 0 1 501.70508 350.35742 A 65.507586 65.507586 0 0 1 541.66602 339.75781 L 596.15039 339.33203 z M 413.30078 364.77344 A 27.877824 27.877824 0 0 0 392.10156 373.35938 A 31.799799 31.799799 0 0 0 383.83398 396.36133 A 31.799799 31.799799 0 0 0 392.10156 419.36328 A 27.877824 27.877824 0 0 0 413.30078 427.52344 A 27.453826 27.453826 0 0 0 434.50195 419.36328 L 433.86523 419.36328 A 31.799799 31.799799 0 0 0 442.02734 396.36133 A 31.799799 31.799799 0 0 0 434.50195 373.35938 A 27.453826 27.453826 0 0 0 413.30078 364.77344 z M 542.30273 366.25586 A 27.665825 27.665825 0 0 0 526.29688 370.07227 A 13.991912 13.991912 0 0 0 520.89062 382.36914 A 14.627908 14.627908 0 0 0 526.08398 394.87695 A 26.711831 26.711831 0 0 0 541.87891 398.69336 L 566.68164 398.69336 L 566.68164 366.25586 L 542.30273 366.25586 z M 813.02539 485.61133 A 59.359625 59.359625 0 0 1 853.72852 498.65039 A 48.441694 48.441694 0 0 1 867.93164 536.70312 L 867.93164 601.78711 L 837.29883 601.78711 L 837.29883 587.58398 A 36.887767 36.887767 0 0 1 802.53125 603.48242 A 53.953659 53.953659 0 0 1 779.74023 599.03125 A 33.28379 33.28379 0 0 1 764.68945 586.52344 A 31.799799 31.799799 0 0 1 759.60156 568.71484 A 29.891811 29.891811 0 0 1 771.58008 544.12305 A 61.267613 61.267613 0 0 1 808.57227 535.00781 L 834.86133 535.00781 A 21.199866 21.199866 0 0 0 828.28906 518.36523 A 29.149816 29.149816 0 0 0 808.57227 512.32422 A 57.557636 57.557636 0 0 0 790.6582 515.18555 A 49.713686 49.713686 0 0 0 775.71289 522.92383 L 763.8418 499.81641 A 74.199531 74.199531 0 0 1 786.20703 489.2168 A 102.92535 102.92535 0 0 1 813.02539 485.61133 z M 531.02539 485.82227 A 67.627573 67.627573 0 0 1 566.25781 493.03125 A 53.953659 53.953659 0 0 1 587.45898 513.70117 A 61.373612 61.373612 0 0 1 595.19531 545.50195 C 595.19531 545.50195 595.93766 548.57592 595.51367 554.08789 L 509.23047 554.08789 A 26.605832 26.605832 0 0 0 519.83008 570.83594 A 36.46377 36.46377 0 0 0 541.03125 576.98242 A 42.399732 42.399732 0 0 0 556.82422 574.33398 A 36.251771 36.251771 0 0 0 569.65039 565.95898 L 587.24609 585.03906 A 59.041627 59.041627 0 0 1 540.18359 603.48242 A 73.563535 73.563535 0 0 1 506.05078 595.95703 A 55.33165 55.33165 0 0 1 483.1543 574.75781 A 57.133639 57.133639 0 0 1 475.09961 544.44141 A 58.51163 58.51163 0 0 1 483.04883 514.23242 A 56.92164 56.92164 0 0 1 504.88477 493.03125 A 67.627573 67.627573 0 0 1 531.02539 485.82227 z M 241.26367 486.03516 A 63.599598 63.599598 0 0 1 273.06445 493.5625 A 44.413719 44.413719 0 0 1 292.67383 514.76172 L 267.02148 528.54102 A 28.089822 28.089822 0 0 0 241.37109 512.85352 A 29.361814 29.361814 0 0 0 220.16992 521.33398 A 31.799799 31.799799 0 0 0 211.69141 544.44141 A 31.799799 31.799799 0 0 0 220.16992 567.54883 A 28.937817 28.937817 0 0 0 241.37109 576.0293 A 27.559826 27.559826 0 0 0 267.02148 560.3418 L 292.67383 574.33398 A 44.731717 44.731717 0 0 1 273.06445 595.5332 A 62.963602 62.963602 0 0 1 241.26367 603.16602 A 69.64156 69.64156 0 0 1 208.50977 595.95703 A 55.967646 55.967646 0 0 1 177.66406 544.75977 A 55.967646 55.967646 0 0 1 208.50977 493.5625 A 71.019551 71.019551 0 0 1 241.26367 486.03516 z M 312.49609 487.73242 L 347.05273 487.73242 L 383.51562 553.66406 L 422.31055 487.73242 L 453.26367 487.73242 L 453.26367 601.78711 L 423.90039 601.78711 L 423.90039 533.52344 L 389.76953 590.76367 L 375.67188 590.76367 L 342.38867 533.52344 L 342.38867 602 L 312.49609 602 L 312.49609 487.73242 z M 621.58984 487.73242 L 654.44922 487.73242 L 654.44922 532.25195 L 704.05664 532.25195 L 704.05664 487.73242 L 737.12891 487.73242 L 737.12891 601.78711 L 704.05664 601.78711 L 704.05664 559.38672 L 654.44922 559.38672 L 654.44922 601.78711 L 621.58984 601.78711 L 621.58984 487.73242 z M 536.89648 511.05273 A 28.619819 28.619819 0 0 0 518.13477 517.41211 A 27.347827 27.347827 0 0 0 508.70117 534.79492 L 564.88086 534.79492 A 27.559826 27.559826 0 0 0 555.55273 517.51758 A 28.301821 28.301821 0 0 0 536.89648 511.05273 z M 812.17773 553.66406 C 798.60982 553.66406 791.82422 558.11558 791.82422 567.01953 A 11.977924 11.977924 0 0 0 796.80664 577.08984 A 21.835862 21.835862 0 0 0 810.48047 580.79883 A 28.51382 28.51382 0 0 0 825.5332 577.30078 A 21.199866 21.199866 0 0 0 834.86133 565.32422 L 834.86133 553.66406 L 812.17773 553.66406 z M 907.17969 561.97461 A 21.835862 21.835862 0 0 1 923.26367 567.54883 A 19.609876 19.609876 0 0 1 929.19922 582.2832 A 20.245872 20.245872 0 0 1 923.26367 597.12305 A 21.199866 21.199866 0 0 1 894.00781 597.12305 A 20.245872 20.245872 0 0 1 888.07227 582.2832 A 19.609876 19.609876 0 0 1 894.00781 567.54883 A 21.835862 21.835862 0 0 1 907.17969 561.97461 z" />
</svg>
