<?xml version="1.0" encoding="UTF-8" standalone="no"?>
<svg version="1.1" viewBox="0 0 1024 1024" width="1024" height="1024" xmlns="http://www.w3.org/2000/svg">
<polygon points="31.2,24.4 27.3,24.4 24.8,39.6 28.8,39.6" transform="matrix(14.795742,0,0,14.795742,38.536256,39.276043)" /><path d="m 665.87572,551.20872 c 0,-25.15277 -14.79575,-44.38723 -48.82595,-62.14212 -20.71404,-10.35702 -32.55063,-17.75489 -32.55063,-28.11191 0,-8.87745 10.35702,-19.23446 34.0302,-19.23446 19.23447,0 32.55063,4.43872 44.38723,8.87744 l 5.9183,1.47957 7.39787,-47.34637 c -11.8366,-4.43872 -29.59149,-8.87744 -51.7851,-8.87744 -57.70339,0 -99.13147,29.59148 -99.13147,73.97871 0,32.55063 28.11191,51.78509 51.78509,62.14211 22.19362,10.35702 31.07106,17.75489 31.07106,28.11191 0,14.79574 -17.75489,22.19361 -35.50978,22.19361 -23.67319,0 -36.98935,-2.95914 -56.22382,-11.83659 l -7.39787,-2.95915 -8.87744,51.7851 c 13.31616,4.43872 38.46893,10.35702 63.62169,10.35702 62.14211,0 102.09062,-31.07106 102.09062,-78.41743 z" /><path d="m 722.09954,625.18743 c 0,0 8.87744,-28.11191 13.31616,-34.03021 5.9183,0 66.58084,0 73.97871,0 1.47958,7.39787 7.39788,34.03021 7.39788,34.03021 h 54.74424 L 824.19016,400.29215 h -44.38723 c -13.31617,0 -25.15276,4.43872 -31.07106,19.23446 l -87.29488,205.66082 z m 51.78509,-140.55955 c 0,1.47957 5.9183,-13.31617 7.39787,-20.71404 l 4.43873,19.23446 c 0,0 11.83659,54.74425 13.31616,65.10127 -8.87744,0 -36.98935,0 -48.82594,0 5.91829,-14.79574 23.67318,-63.62169 23.67318,-63.62169 z" /><polygon points="19.4,39.6 25.8,24.4 21.6,24.4 17.7,34.9 15.6,24.4 7.7,24.4 12.1,27.7 15.3,39.6" transform="matrix(14.795742,0,0,14.795742,38.536256,39.276043)" /><path d="m 881.89355,295.24238 c 20.71404,0 36.98936,16.27532 36.98936,36.98935 v 359.53654 c 0,20.71403 -16.27532,36.98935 -36.98936,36.98935 h -739.7871 c -20.71404,0 -36.98935,-16.27532 -36.98935,-36.98935 V 332.23173 c 0,-20.71403 16.27531,-36.98935 36.98935,-36.98935 h 739.7871 m 0,-51.7851 h -739.7871 c -48.825949,0 -88.774452,39.94851 -88.774452,88.77445 v 359.53654 c 0,48.82594 39.948503,88.77445 88.774452,88.77445 h 739.7871 c 48.82595,0 88.77445,-39.94851 88.77445,-88.77445 V 332.23173 c 0,-48.82594 -39.9485,-88.77445 -88.77445,-88.77445 z" />
</svg>
