<?xml version="1.0" encoding="UTF-8" standalone="no"?>
<svg version="1.1" viewBox="0 0 1024 1024" width="1024" height="1024" xmlns="http://www.w3.org/2000/svg">
<path d="M 651.07997,53.332 H 372.92003 C 113.99454,53.332 53.332,113.99454 53.332,372.92003 v 281.11909 c 0,255.96634 60.66254,316.62888 319.58803,316.62888 h 281.11909 c 255.96634,0 316.62888,-60.66254 316.62888,-319.58803 V 372.92003 C 970.668,113.99454 910.00546,53.332 651.07997,53.332 Z M 793.1191,707.30379 h -66.58084 c -25.15276,0 -34.03021,-20.71404 -79.89701,-66.58084 -39.9485,-39.9485 -57.70339,-44.38722 -66.58084,-44.38722 -11.83659,0 -16.27531,1.47957 -16.27531,20.71404 v 60.66254 c 0,16.27532 -4.43873,25.15276 -47.34638,25.15276 -71.01956,0 -147.95742,-44.38722 -204.18124,-122.80466 -82.85615,-116.88636 -103.57019,-204.18124 -103.57019,-223.4157 0,-10.35702 1.47957,-19.23446 20.71404,-19.23446 h 66.58084 c 16.27531,0 23.67318,5.91829 29.59148,25.15276 34.03021,96.17232 87.29488,179.02847 110.96807,179.02847 8.87744,0 11.83659,-4.43872 11.83659,-25.15276 v -97.65189 c -1.47957,-45.8668 -25.15276,-47.34638 -25.15276,-66.58084 0,-5.9183 5.9183,-16.27532 16.27531,-16.27532 h 103.5702 c 14.79574,0 19.23446,5.9183 19.23446,25.15276 v 131.68211 c 0,14.79574 5.9183,19.23446 10.35702,19.23446 8.87745,0 16.27532,-4.43872 31.07106,-20.71404 47.34637,-54.74424 81.37658,-136.12082 81.37658,-136.12082 4.43872,-10.35702 11.83659,-19.23447 29.59148,-19.23447 h 66.58084 c 20.71404,0 25.15276,10.35702 20.71404,25.15276 -8.87744,39.94851 -90.25402,153.87572 -90.25402,153.87572 -5.9183,10.35702 -10.35702,16.27531 0,29.59148 5.91829,10.35702 31.07105,29.59149 45.8668,47.34638 29.59148,34.0302 50.30552,60.66254 56.22382,79.897 7.39787,25.15276 -1.47958,35.50978 -20.71404,35.50978 z" />
</svg>
