<?xml version="1.0" encoding="UTF-8" standalone="no"?>
<svg width="1024" height="1024" viewBox="0 0 1024 1024" version="1.1" xmlns="http://www.w3.org/2000/svg">
  <path d="m 378.72581,929.75412 76.3015,-263.26299 48.11118,47.34062 54.28178,214.08159 c 3.96289,14.5367 13.5521,26.95742 26.71892,34.58965 13.16682,7.63223 28.84714,9.8583 43.66516,6.21342 14.81803,-3.65099 27.58733,-12.89162 35.56203,-25.7282 7.96859,-12.83658 10.50043,-28.24169 7.05125,-42.90071 L 612.17296,670.57021 c -2.54408,-10.07845 -7.8157,-19.27627 -15.25834,-26.62718 l -82.59076,-81.36764 37.27439,-128.41471 46.01354,56.69132 c 5.45509,6.70878 12.36568,12.12717 20.2303,15.85156 7.86462,3.72438 16.47534,5.66301 25.20226,5.66913 H 759.5337 c 15.44792,0 30.25983,-6.0483 41.18224,-16.80558 10.92852,-10.76341 17.06243,-25.35515 17.06243,-40.5768 0,-15.21554 -6.13391,-29.8134 -17.06243,-40.57068 -10.92241,-10.7634 -25.73432,-16.80559 -41.18224,-16.80559 H 658.88367 L 543.38505,276.13806 C 529.98583,263.9161 510.41602,251.86659 486.71207,255.07971 l -173.57023,28.51751 c -9.05716,1.49587 -17.62873,5.07653 -25.01695,10.4509 -7.38822,5.37375 -13.38453,12.38953 -17.50215,20.47736 l -58.24528,114.76109 c -6.91243,13.61326 -8.05298,29.37308 -3.17031,43.81194 4.88267,14.43885 15.3886,26.38256 29.20612,33.18919 13.81812,6.81274 29.81584,7.93189 44.47486,3.12505 14.6584,-4.81295 26.77762,-15.16049 33.69005,-28.77375 l 44.96533,-88.65128 54.63159,-8.95319 -149.4547,515.2183 c -4.01365,14.56117 -2.04321,30.09471 5.48444,43.23707 7.52765,13.13624 20.00708,22.82942 34.73581,26.97577 14.72874,4.14024 30.52036,2.3973 43.95626,-4.84353 13.43591,-7.24695 23.43425,-19.41693 27.8289,-33.86802 z M 584.79967,53.332001 c 23.17189,0 45.38975,9.068165 61.77336,25.208985 16.38973,16.141431 25.59366,38.033944 25.59366,60.860914 0,22.82697 -9.20393,44.71948 -25.59366,60.8603 -16.38361,16.14143 -38.60147,25.2096 -61.77336,25.2096 -23.17188,0 -45.39586,-9.06817 -61.77947,-25.2096 -16.38361,-16.14082 -25.58754,-38.03333 -25.58754,-60.8603 0,-22.82697 9.20393,-44.719483 25.58754,-60.860914 16.38361,-16.14082 38.60759,-25.208985 61.77947,-25.208985 z" />
</svg>
