<?xml version="1.0" encoding="UTF-8" standalone="no"?>
<svg width="1024" height="1024" viewBox="0 0 1024 1024" version="1.1" xmlns="http://www.w3.org/2000/svg">
  <path d="M 480.39504,80.383917 4.0714018,905.40105 C -9.344039,928.72512 12.770857,960.38803 35.826312,960.40232 H 988.4736 c 27.0075,-0.20443 43.3271,-34.7699 31.7549,-55.00127 L 543.90486,80.383917 c -13.33995,-22.748007 -50.69772,-22.012275 -63.50982,0 z M 512.14995,152.40228 941.98088,896.8925 H 82.319034 Z" />
  <path d="m 484.35318,660.32332 -18.6617,-259.19101 c -2.1542,-32.5348 16.2268,-59.70479 47,-60.13231 39.1619,3.25201 48.5505,32.74846 46.9999,62.89702 l -20.0441,256.4263 z m 26.9559,150.67637 c -29.1982,-0.20652 -54.8124,-20.42871 -54.6029,-51.14702 0.2095,-30.71831 24.9734,-53.15267 54.6029,-53.22056 29.6295,-0.0679 56.1458,23.49615 55.9853,53.22056 -0.1605,29.72441 -26.7871,51.35354 -55.9853,51.14702 z" />
</svg>
