<?xml version="1.0" encoding="UTF-8" standalone="no"?>
<svg version="1.1" viewBox="0 0 1024 1024" width="1024" height="1024" xmlns="http://www.w3.org/2000/svg">
<path d="M 836.45967,186.06551 C 750.92031,100.52614 634.40979,53.332006 514.94963,53.332006 c -250.71884,0 -455.718357,203.524704 -455.718357,454.243544 0,81.11492 20.647434,157.80539 60.467487,228.59659 L 54.806823,970.66799 298.15158,908.72569 c 66.36675,35.3956 141.5824,56.04304 218.27287,56.04304 v 0 0 c 249.24402,-1.47482 452.76873,-204.99952 452.76873,-457.19318 0,-120.93497 -47.19414,-234.49586 -132.73351,-321.51004 z M 513.47482,886.60344 v 0 c -66.36675,0 -135.68314,-19.17262 -193.20099,-54.56822 l -14.74817,-8.8489 -143.05722,36.87042 39.82005,-138.63277 -8.8489,-14.74817 c -36.87041,-60.46748 -57.51785,-131.25868 -57.51785,-202.04988 0,-207.94916 168.12911,-376.07826 377.55308,-376.07826 100.28753,0 194.6758,39.82005 265.467,110.61125 70.7912,70.7912 110.61126,166.65429 110.61126,268.41664 2.94963,210.89879 -168.12911,379.02789 -376.07826,379.02789 z m 207.94915,-283.1648 c -11.79853,-5.89927 -66.36675,-33.92079 -79.6401,-35.39561 -10.32372,-4.42445 -19.17262,-5.89926 -25.07188,5.89927 -5.89927,11.79854 -29.49634,35.3956 -35.39561,44.2445 -5.89926,5.89927 -11.79853,8.8489 -25.07188,1.47482 -11.79853,-5.89927 -47.19413,-16.22298 -91.43863,-57.51785 -33.92079,-29.49634 -57.51786,-66.36675 -61.94231,-79.6401 -5.89926,-11.79854 -1.47481,-16.22299 5.89927,-23.59707 5.89927,-5.89927 11.79853,-11.79853 16.22298,-20.64743 5.89927,-5.89927 5.89927,-11.79854 11.79854,-19.17262 5.89927,-5.89927 1.47482,-14.74817 -1.47482,-20.64744 -4.42445,-5.89926 -25.07188,-61.9423 -35.3956,-85.53936 -8.8489,-23.59707 -19.17262,-19.17262 -25.07188,-19.17262 -5.89927,0 -14.74817,0 -20.64744,0 -5.89926,0 -20.64743,1.47482 -29.49633,14.74817 -10.32372,11.79853 -39.82005,39.82005 -39.82005,95.86308 0,56.04304 39.82005,107.66162 47.19413,117.98534 5.89927,5.89926 81.11492,122.40978 193.20099,172.55355 26.5467,11.79853 47.19413,19.17262 64.89194,25.07188 26.5467,8.8489 51.61858,5.89927 70.7912,4.42445 22.12225,-1.47481 66.36675,-26.5467 76.69047,-54.56821 8.8489,-25.07189 8.8489,-50.14377 5.89926,-54.56822 -2.94963,-2.94963 -11.79853,-7.37408 -22.12225,-11.79853 z" />
</svg>
