<?xml version="1.0" encoding="UTF-8" standalone="no"?>
<svg version="1.1" viewBox="0 0 1024 1024" width="1024" height="1024" xmlns="http://www.w3.org/2000/svg">
<path d="M 951.43354,291.54345 C 941.07652,251.59494 910.00546,220.52388 870.05695,210.16687 799.03739,190.9324 512,190.9324 512,190.9324 c 0,0 -287.03739,0 -358.05695,19.23447 -39.94851,10.35701 -71.019566,41.42807 -81.376585,81.37658 C 53.332,364.04258 53.332,512 53.332,512 c 0,0 0,149.43699 19.234465,220.45655 10.357019,39.94851 41.428075,71.01957 81.376585,81.37659 C 224.96261,833.0676 512,833.0676 512,833.0676 c 0,0 287.03739,0 358.05695,-19.23446 39.94851,-10.35702 71.01957,-41.42808 81.37659,-81.37659 C 970.668,661.43699 970.668,512 970.668,512 c 0,0 0,-147.95742 -19.23446,-220.45655 z M 420.2664,649.6004 V 374.3996 L 658.47785,512 Z" />
</svg>
